<?xml version="1.0" encoding="UTF-8"?>
<!DOCTYPE svg PUBLIC "-//W3C//DTD SVG 1.1//EN" "http://www.w3.org/Graphics/SVG/1.1/DTD/svg11.dtd">
<svg xmlns="http://www.w3.org/2000/svg" version="1.1" width="517px" height="106px" style="shape-rendering:geometricPrecision; text-rendering:geometricPrecision; image-rendering:optimizeQuality; fill-rule:evenodd; clip-rule:evenodd" xmlns:xlink="http://www.w3.org/1999/xlink">
<g><path style="opacity:1" fill="#a5c421" d="M -0.5,-0.5 C 171.833,-0.5 344.167,-0.5 516.5,-0.5C 516.5,34.8333 516.5,70.1667 516.5,105.5C 393.167,105.5 269.833,105.5 146.5,105.5C 146.5,105.167 146.5,104.833 146.5,104.5C 147.167,104.5 147.5,104.167 147.5,103.5C 150.115,100.006 151.615,96.0058 152,91.5C 152.821,84.3209 152.655,77.3209 151.5,70.5C 151.656,66.2357 150.989,62.2357 149.5,58.5C 148.624,53.868 147.957,49.2014 147.5,44.5C 146.041,44.5674 144.708,44.2341 143.5,43.5C 140.364,36.3614 136.031,30.0281 130.5,24.5C 128.431,21.4275 125.764,19.0941 122.5,17.5C 120.973,17.573 119.973,16.9063 119.5,15.5C 116.778,10.4634 112.444,8.13011 106.5,8.5C 104.824,6.16628 102.491,5.16628 99.5,5.5C 97.7085,5.63404 96.0418,5.30071 94.5,4.5C 92.4855,3.07619 90.1522,2.40953 87.5,2.5C 85.8333,2.5 84.1667,2.5 82.5,2.5C 77.3497,1.34926 72.0164,1.18259 66.5,2C 63.2026,2.20366 60.2026,3.03699 57.5,4.5C 51.5088,5.66615 45.8422,7.66615 40.5,10.5C 38.9731,10.427 37.9731,11.0937 37.5,12.5C 29.6532,16.6724 22.9865,22.3391 17.5,29.5C 15.4131,30.5846 14.0798,32.2512 13.5,34.5C 12.0937,34.9731 11.427,35.9731 11.5,37.5C 10.0937,37.9731 9.42702,38.9731 9.5,40.5C 8.89022,41.391 8.55688,42.391 8.5,43.5C 7.09368,43.9731 6.42702,44.9731 6.5,46.5C 5.55154,49.1402 4.55154,51.8069 3.5,54.5C 2.36339,55.7888 1.03005,56.7888 -0.5,57.5C -0.5,38.1667 -0.5,18.8333 -0.5,-0.5 Z"/></g>
<g><path style="opacity:1" fill="#455406" d="M 82.5,2.5 C 74.0937,2.36228 65.7604,3.02895 57.5,4.5C 60.2026,3.03699 63.2026,2.20366 66.5,2C 72.0164,1.18259 77.3497,1.34926 82.5,2.5 Z"/></g>
<g><path style="opacity:1" fill="#060c08" d="M 82.5,2.5 C 84.1667,2.5 85.8333,2.5 87.5,2.5C 89.5145,3.92381 91.8478,4.59047 94.5,4.5C 96.0418,5.30071 97.7085,5.63404 99.5,5.5C 101.509,7.06518 103.843,8.06518 106.5,8.5C 110.666,11.0841 115,13.4174 119.5,15.5C 119.973,16.9063 120.973,17.573 122.5,17.5C 124.569,20.5725 127.236,22.9059 130.5,24.5C 136.031,30.0281 140.364,36.3614 143.5,43.5C 145.906,48.394 147.906,53.394 149.5,58.5C 150.226,68.8171 150.56,79.1504 150.5,89.5C 149.907,94.2721 148.907,98.9388 147.5,103.5C 144.941,103.802 142.607,103.468 140.5,102.5C 141.167,99.5 141.833,96.5 142.5,93.5C 143.302,92.0484 143.802,90.3817 144,88.5C 144.667,80.5 144.667,72.5 144,64.5C 143.299,60.8909 142.132,57.5575 140.5,54.5C 140.498,50.8355 139.165,47.8355 136.5,45.5C 129.799,32.4667 119.799,22.8 106.5,16.5C 104.751,13.625 102.085,12.2917 98.5,12.5C 98.1667,12.5 97.8333,12.5 97.5,12.5C 95.4855,11.0762 93.1522,10.4095 90.5,10.5C 57.7447,4.79141 32.578,16.1247 15,44.5C 12.9653,47.5612 11.7986,50.8945 11.5,54.5C 7.74844,61.411 6.08178,68.911 6.5,77C 6.58097,82.5395 7.08097,88.0395 8,93.5C 8.27842,94.4158 8.77842,95.0825 9.5,95.5C 9.58378,98.3274 10.2504,100.994 11.5,103.5C 8.46687,103.868 5.8002,103.202 3.5,101.5C 3.20224,97.3775 2.3689,93.3775 1,89.5C 0.500575,83.8431 0.333909,78.1764 0.5,72.5C 0.638062,66.3383 1.63806,60.3383 3.5,54.5C 4.55154,51.8069 5.55154,49.1402 6.5,46.5C 7.90632,46.0269 8.57298,45.0269 8.5,43.5C 8.55688,42.391 8.89022,41.391 9.5,40.5C 10.9063,40.0269 11.573,39.0269 11.5,37.5C 12.9063,37.0269 13.573,36.0269 13.5,34.5C 15.5869,33.4154 16.9202,31.7488 17.5,29.5C 22.9865,22.3391 29.6532,16.6724 37.5,12.5C 39.0269,12.573 40.0269,11.9063 40.5,10.5C 45.8422,7.66615 51.5088,5.66615 57.5,4.5C 65.7604,3.02895 74.0937,2.36228 82.5,2.5 Z"/></g>
<g><path style="opacity:1" fill="#4b590c" d="M 87.5,2.5 C 90.1522,2.40953 92.4855,3.07619 94.5,4.5C 91.8478,4.59047 89.5145,3.92381 87.5,2.5 Z"/></g>
<g><path style="opacity:1" fill="#617217" d="M 99.5,5.5 C 102.491,5.16628 104.824,6.16628 106.5,8.5C 103.843,8.06518 101.509,7.06518 99.5,5.5 Z"/></g>
<g><path style="opacity:1" fill="#7e9222" d="M 106.5,8.5 C 112.444,8.13011 116.778,10.4634 119.5,15.5C 115,13.4174 110.666,11.0841 106.5,8.5 Z"/></g>
<g><path style="opacity:1" fill="#174d59" d="M 90.5,10.5 C 93.1522,10.4095 95.4855,11.0762 97.5,12.5C 94.8478,12.5905 92.5145,11.9238 90.5,10.5 Z"/></g>
<g><path style="opacity:1" fill="#394b09" d="M 40.5,10.5 C 40.0269,11.9063 39.0269,12.573 37.5,12.5C 37.9731,11.0937 38.9731,10.427 40.5,10.5 Z"/></g>
<g><path style="opacity:1" fill="#48b3cb" d="M 90.5,10.5 C 92.5145,11.9238 94.8478,12.5905 97.5,12.5C 97.8333,12.5 98.1667,12.5 98.5,12.5C 100.849,14.341 103.515,15.6743 106.5,16.5C 119.799,22.8 129.799,32.4667 136.5,45.5C 136.73,49.0827 138.063,52.0827 140.5,54.5C 142.352,67.3934 143.018,80.3934 142.5,93.5C 141.833,96.5 141.167,99.5 140.5,102.5C 139.833,102.5 139.5,102.833 139.5,103.5C 136.833,103.5 134.167,103.5 131.5,103.5C 131.433,102.041 131.766,100.708 132.5,99.5C 136.196,89.2576 137.363,78.5909 136,67.5C 135.03,61.7538 133.197,56.4205 130.5,51.5C 124.015,38.8495 114.349,29.3495 101.5,23C 71.4224,10.9209 46.2558,17.4209 26,42.5C 22.6426,47.5424 20.1426,52.8757 18.5,58.5C 17.3995,60.2774 16.5662,62.2774 16,64.5C 15.1782,72.0118 15.3448,79.3451 16.5,86.5C 17.8243,92.1119 19.1576,97.7786 20.5,103.5C 17.5,103.5 14.5,103.5 11.5,103.5C 10.2504,100.994 9.58378,98.3274 9.5,95.5C 6.44828,81.6178 7.11495,67.9512 11.5,54.5C 11.7986,50.8945 12.9653,47.5612 15,44.5C 32.578,16.1247 57.7447,4.79141 90.5,10.5 Z"/></g>
<g><path style="opacity:1" fill="#113740" d="M 98.5,12.5 C 102.085,12.2917 104.751,13.625 106.5,16.5C 103.515,15.6743 100.849,14.341 98.5,12.5 Z"/></g>
<g><path style="opacity:1" fill="#63771b" d="M 122.5,17.5 C 125.764,19.0941 128.431,21.4275 130.5,24.5C 127.236,22.9059 124.569,20.5725 122.5,17.5 Z"/></g>
<g><path style="opacity:1" fill="#fbfcfc" d="M 130.5,51.5 C 132.757,60.4386 134.423,69.4386 135.5,78.5C 134.238,85.4735 133.238,92.4735 132.5,99.5C 131.766,100.708 131.433,102.041 131.5,103.5C 113.167,103.5 94.8333,103.5 76.5,103.5C 79.5389,101.544 82.3722,99.2105 85,96.5C 86.0086,94.9751 86.5086,93.3084 86.5,91.5C 87.287,89.8958 88.6203,89.2291 90.5,89.5C 91.1667,89.1667 91.8333,88.8333 92.5,88.5C 97.6003,91.2271 102.934,93.0604 108.5,94C 104.976,90.9754 101.309,88.1421 97.5,85.5C 95.4169,81.0823 92.0836,78.0823 87.5,76.5C 86.032,75.2209 85.3653,73.5542 85.5,71.5C 88.6437,63.2161 93.3104,55.8828 99.5,49.5C 99.1667,49.1667 98.8333,48.8333 98.5,48.5C 89.4291,52.3966 81.5958,58.0633 75,65.5C 73.1031,68.1274 71.6031,70.9607 70.5,74C 71.3805,74.7083 72.0472,75.5416 72.5,76.5C 72.5,77.8333 71.8333,78.5 70.5,78.5C 67.8908,77.5569 65.8908,75.8903 64.5,73.5C 63.5994,71.2729 61.9328,70.2729 59.5,70.5C 54.9041,60.7068 50.9041,50.7068 47.5,40.5C 43.799,47.0054 41.4656,54.0054 40.5,61.5C 41.0401,72.585 44.5401,82.9183 51,92.5C 53.1238,93.6217 54.9571,95.1217 56.5,97C 59.1396,97.839 61.4729,97.339 63.5,95.5C 64.5624,96.4246 64.5624,97.4246 63.5,98.5C 61.7376,99.2623 60.7376,100.596 60.5,102.5C 60.5,102.833 60.5,103.167 60.5,103.5C 47.1667,103.5 33.8333,103.5 20.5,103.5C 19.1576,97.7786 17.8243,92.1119 16.5,86.5C 16.0602,77.0511 16.7269,67.7177 18.5,58.5C 20.1426,52.8757 22.6426,47.5424 26,42.5C 46.2558,17.4209 71.4224,10.9209 101.5,23C 114.349,29.3495 124.015,38.8495 130.5,51.5 Z"/></g>
<g><path style="opacity:1" fill="#36410a" d="M 17.5,29.5 C 16.9202,31.7488 15.5869,33.4154 13.5,34.5C 14.0798,32.2512 15.4131,30.5846 17.5,29.5 Z"/></g>
<g><path style="opacity:1" fill="#47550a" d="M 13.5,34.5 C 13.573,36.0269 12.9063,37.0269 11.5,37.5C 11.427,35.9731 12.0937,34.9731 13.5,34.5 Z"/></g>
<g><path style="opacity:1" fill="#53620e" d="M 11.5,37.5 C 11.573,39.0269 10.9063,40.0269 9.5,40.5C 9.42702,38.9731 10.0937,37.9731 11.5,37.5 Z"/></g>
<g><path style="opacity:1" fill="#0a0a0a" d="M 59.5,70.5 C 62.7498,77.7475 67.7498,83.4142 74.5,87.5C 77.9555,90.2075 81.9555,91.5409 86.5,91.5C 86.5086,93.3084 86.0086,94.9751 85,96.5C 82.3722,99.2105 79.5389,101.544 76.5,103.5C 74.8333,103.5 73.1667,103.5 71.5,103.5C 68.5,103.5 65.5,103.5 62.5,103.5C 62.6287,101.784 62.962,100.117 63.5,98.5C 64.5624,97.4246 64.5624,96.4246 63.5,95.5C 61.4729,97.339 59.1396,97.839 56.5,97C 54.9571,95.1217 53.1238,93.6217 51,92.5C 44.5401,82.9183 41.0401,72.585 40.5,61.5C 41.4656,54.0054 43.799,47.0054 47.5,40.5C 50.9041,50.7068 54.9041,60.7068 59.5,70.5 Z"/></g>
<g><path style="opacity:1" fill="#465312" d="M 8.5,43.5 C 8.57298,45.0269 7.90632,46.0269 6.5,46.5C 6.42702,44.9731 7.09368,43.9731 8.5,43.5 Z"/></g>
<g><path style="opacity:1" fill="#111111" d="M 85.5,71.5 C 81.8097,75.1912 77.4764,76.8578 72.5,76.5C 72.0472,75.5416 71.3805,74.7083 70.5,74C 71.6031,70.9607 73.1031,68.1274 75,65.5C 81.5958,58.0633 89.4291,52.3966 98.5,48.5C 98.8333,48.8333 99.1667,49.1667 99.5,49.5C 93.3104,55.8828 88.6437,63.2161 85.5,71.5 Z"/></g>
<g><path style="opacity:1" fill="#2c7283" d="M 136.5,45.5 C 139.165,47.8355 140.498,50.8355 140.5,54.5C 138.063,52.0827 136.73,49.0827 136.5,45.5 Z"/></g>
<g><path style="opacity:1" fill="#73861e" d="M 143.5,43.5 C 144.708,44.2341 146.041,44.5674 147.5,44.5C 147.957,49.2014 148.624,53.868 149.5,58.5C 147.906,53.394 145.906,48.394 143.5,43.5 Z"/></g>
<g><path style="opacity:1" fill="#8ea627" d="M 3.5,54.5 C 1.63806,60.3383 0.638062,66.3383 0.5,72.5C 0.166667,72.5 -0.166667,72.5 -0.5,72.5C -0.5,67.5 -0.5,62.5 -0.5,57.5C 1.03005,56.7888 2.36339,55.7888 3.5,54.5 Z"/></g>
<g><path style="opacity:1" fill="#6a7d1d" d="M 507.5,64.5 C 506.041,64.4326 504.708,64.7659 503.5,65.5C 503.615,62.6607 504.948,60.6607 507.5,59.5C 508.052,61.0026 508.052,62.6693 507.5,64.5 Z"/></g>
<g><path style="opacity:1" fill="#728324" d="M 217.5,64.5 C 220.64,63.3592 223.973,63.1925 227.5,64C 228.056,64.3826 228.389,64.8826 228.5,65.5C 224.901,64.6561 221.234,64.3227 217.5,64.5 Z"/></g>
<g><path style="opacity:1" fill="#708222" d="M 245.5,64.5 C 242.763,64.4013 240.096,64.7347 237.5,65.5C 238.492,63.9735 239.992,63.3068 242,63.5C 243.385,63.5143 244.551,63.8476 245.5,64.5 Z"/></g>
<g><path style="opacity:1" fill="#6b7b22" d="M 340.5,64.5 C 336.445,64.1758 332.445,64.5091 328.5,65.5C 329.949,66.1719 331.282,66.8386 332.5,67.5C 330.833,67.5 329.167,67.5 327.5,67.5C 327.5,66.1667 327.5,64.8333 327.5,63.5C 332.032,63.1818 336.366,63.5151 340.5,64.5 Z"/></g>
<g><path style="opacity:1" fill="#809521" d="M 454.5,65.5 C 454.5,65.1667 454.5,64.8333 454.5,64.5C 455.833,64.5 457.167,64.5 458.5,64.5C 459.089,68.9707 458.423,72.9707 456.5,76.5C 456.923,75.7354 457.257,74.9021 457.5,74C 457.279,70.6697 456.279,67.8364 454.5,65.5 Z"/></g>
<g><path style="opacity:1" fill="#000500" d="M 264.5,66.5 C 262.5,66.5 260.5,66.5 258.5,66.5C 258.5,67.8333 258.5,69.1667 258.5,70.5C 260.292,71.3091 262.292,71.8091 264.5,72C 262.292,72.1909 260.292,72.6909 258.5,73.5C 258.715,75.1788 258.048,76.1788 256.5,76.5C 256.5,72.8333 256.5,69.1667 256.5,65.5C 259.385,65.1936 262.052,65.5269 264.5,66.5 Z"/></g>
<g><path style="opacity:1" fill="#191d06" d="M 273.5,64.5 C 274.833,64.5 276.167,64.5 277.5,64.5C 277.5,67.8333 277.5,71.1667 277.5,74.5C 279.5,74.5 281.5,74.5 283.5,74.5C 283.5,71.1667 283.5,67.8333 283.5,64.5C 284.833,64.5 286.167,64.5 287.5,64.5C 289.396,73.7695 285.729,77.6028 276.5,76C 275.667,75.1667 274.833,74.3333 274,73.5C 273.502,70.5184 273.335,67.5184 273.5,64.5 Z"/></g>
<g><path style="opacity:1" fill="#030b00" d="M 340.5,64.5 C 339.448,66.256 337.781,66.9227 335.5,66.5C 335.5,69.8333 335.5,73.1667 335.5,76.5C 334.5,76.5 333.5,76.5 332.5,76.5C 332.5,73.5 332.5,70.5 332.5,67.5C 331.282,66.8386 329.949,66.1719 328.5,65.5C 332.445,64.5091 336.445,64.1758 340.5,64.5 Z"/></g>
<g><path style="opacity:1" fill="#040c00" d="M 393.5,64.5 C 397.226,64.1774 400.893,64.5108 404.5,65.5C 401.694,66.1676 399.028,66.8343 396.5,67.5C 396.5,68.1667 396.5,68.8333 396.5,69.5C 398.292,70.3091 400.292,70.8091 402.5,71C 400.292,71.1909 398.292,71.6909 396.5,72.5C 398.635,74.369 401.302,75.0356 404.5,74.5C 401.316,76.4136 397.649,77.0803 393.5,76.5C 393.5,72.5 393.5,68.5 393.5,64.5 Z"/></g>
<g><path style="opacity:1" fill="#9ab331" d="M 454.5,64.5 C 451.167,64.5 447.833,64.5 444.5,64.5C 444.5,68.8333 444.5,73.1667 444.5,77.5C 448.042,77.8128 451.375,77.4794 454.5,76.5C 455.167,76.5 455.833,76.5 456.5,76.5C 456.389,77.1174 456.056,77.6174 455.5,78C 451.5,78.6667 447.5,78.6667 443.5,78C 442.531,73.2633 442.197,68.43 442.5,63.5C 446.702,63.1832 450.702,63.5166 454.5,64.5 Z"/></g>
<g><path style="opacity:1" fill="#0a1001" d="M 454.5,65.5 C 456.279,67.8364 457.279,70.6697 457.5,74C 457.257,74.9021 456.923,75.7354 456.5,76.5C 455.833,76.5 455.167,76.5 454.5,76.5C 451.5,76.5 448.5,76.5 445.5,76.5C 445.5,72.8333 445.5,69.1667 445.5,65.5C 448.5,65.5 451.5,65.5 454.5,65.5 Z"/></g>
<g><path style="opacity:1" fill="#040c00" d="M 463.5,64.5 C 467.226,64.1774 470.893,64.5108 474.5,65.5C 471.914,66.48 469.247,66.8134 466.5,66.5C 466.5,67.8333 466.5,69.1667 466.5,70.5C 474.5,70.8333 474.5,71.1667 466.5,71.5C 466.5,72.5 466.5,73.5 466.5,74.5C 469.247,74.1866 471.914,74.52 474.5,75.5C 470.893,76.4892 467.226,76.8226 463.5,76.5C 463.5,72.5 463.5,68.5 463.5,64.5 Z"/></g>
<g><path style="opacity:1" fill="#111603" d="M 482.5,64.5 C 485.902,64.3424 489.236,64.6758 492.5,65.5C 492.026,68.9214 492.026,72.2547 492.5,75.5C 491.575,76.5624 490.575,76.5624 489.5,75.5C 489.586,74.5041 489.252,73.6708 488.5,73C 486.866,72.5065 485.199,72.3398 483.5,72.5C 483.5,73.8333 483.5,75.1667 483.5,76.5C 481.158,72.8837 480.825,68.8837 482.5,64.5 Z"/></g>
<g><path style="opacity:1" fill="#90a52e" d="M 185.5,64.5 C 187.725,63.2488 189.891,63.5822 192,65.5C 193.608,68.6208 194.441,71.9541 194.5,75.5C 192.963,72.1 191.13,68.7667 189,65.5C 187.989,64.6634 186.822,64.33 185.5,64.5 Z"/></g>
<g><path style="opacity:1" fill="#121603" d="M 217.5,64.5 C 221.234,64.3227 224.901,64.6561 228.5,65.5C 229.032,68.914 229.365,72.414 229.5,76C 227.414,76.557 226.081,75.7236 225.5,73.5C 223.955,72.5481 222.288,72.2148 220.5,72.5C 220.5,74.1667 220.5,75.8333 220.5,77.5C 219.5,77.5 218.5,77.5 217.5,77.5C 217.5,73.1667 217.5,68.8333 217.5,64.5 Z"/></g>
<g><path style="opacity:1" fill="#92a92a" d="M 265.5,64.5 C 262.167,64.5 258.833,64.5 255.5,64.5C 255.183,68.7016 255.517,72.7016 256.5,76.5C 258.048,76.1788 258.715,75.1788 258.5,73.5C 261.57,73.6323 264.57,73.299 267.5,72.5C 267.389,73.1174 267.056,73.6174 266.5,74C 264.19,74.4966 261.857,74.6633 259.5,74.5C 259.657,75.8734 259.49,77.2068 259,78.5C 257.301,77.5939 255.467,77.2606 253.5,77.5C 253.785,75.712 253.452,74.0453 252.5,72.5C 250.815,73.9527 249.149,75.286 247.5,76.5C 250.698,71.6836 250.031,67.6836 245.5,64.5C 246.978,64.238 248.311,64.5713 249.5,65.5C 252.509,70.7613 253.843,70.0946 253.5,63.5C 257.702,63.1832 261.702,63.5166 265.5,64.5 Z"/></g>
<g><path style="opacity:1" fill="#1a2003" d="M 265.5,64.5 C 268.643,66.4034 269.31,69.07 267.5,72.5C 264.57,73.299 261.57,73.6323 258.5,73.5C 260.292,72.6909 262.292,72.1909 264.5,72C 262.292,71.8091 260.292,71.3091 258.5,70.5C 260.5,70.5 262.5,70.5 264.5,70.5C 264.5,69.1667 264.5,67.8333 264.5,66.5C 262.052,65.5269 259.385,65.1936 256.5,65.5C 256.5,69.1667 256.5,72.8333 256.5,76.5C 255.517,72.7016 255.183,68.7016 255.5,64.5C 258.833,64.5 262.167,64.5 265.5,64.5 Z"/></g>
<g><path style="opacity:1" fill="#0e1302" d="M 382.5,64.5 C 387.571,66.2787 388.738,69.612 386,74.5C 385.184,75.8228 384.017,76.4894 382.5,76.5C 379.833,76.5 377.167,76.5 374.5,76.5C 374.5,72.5 374.5,68.5 374.5,64.5C 377.167,64.5 379.833,64.5 382.5,64.5 Z"/></g>
<g><path style="opacity:1" fill="#5b6d10" d="M 393.5,64.5 C 393.5,68.5 393.5,72.5 393.5,76.5C 397.649,77.0803 401.316,76.4136 404.5,74.5C 405.404,75.209 405.737,76.209 405.5,77.5C 401.167,77.5 396.833,77.5 392.5,77.5C 392.182,72.9677 392.515,68.6344 393.5,64.5 Z"/></g>
<g><path style="opacity:1" fill="#576518" d="M 393.5,64.5 C 397.298,63.5166 401.298,63.1832 405.5,63.5C 405.5,64.8333 405.5,66.1667 405.5,67.5C 402.5,67.5 399.5,67.5 396.5,67.5C 399.028,66.8343 401.694,66.1676 404.5,65.5C 400.893,64.5108 397.226,64.1774 393.5,64.5 Z"/></g>
<g><path style="opacity:1" fill="#2c3a08" d="M 454.5,64.5 C 454.5,64.8333 454.5,65.1667 454.5,65.5C 451.5,65.5 448.5,65.5 445.5,65.5C 445.5,69.1667 445.5,72.8333 445.5,76.5C 448.5,76.5 451.5,76.5 454.5,76.5C 451.375,77.4794 448.042,77.8128 444.5,77.5C 444.5,73.1667 444.5,68.8333 444.5,64.5C 447.833,64.5 451.167,64.5 454.5,64.5 Z"/></g>
<g><path style="opacity:1" fill="#465117" d="M 453.5,69.5 C 451.735,70.4614 449.735,70.7947 447.5,70.5C 447.5,69.1667 447.5,67.8333 447.5,66.5C 449.833,66.5 452.167,66.5 454.5,66.5C 454.737,67.791 454.404,68.791 453.5,69.5 Z"/></g>
<g><path style="opacity:1" fill="#2d3e02" d="M 482.5,64.5 C 480.825,68.8837 481.158,72.8837 483.5,76.5C 483.5,76.8333 483.5,77.1667 483.5,77.5C 482.5,77.5 481.5,77.5 480.5,77.5C 479.903,72.706 480.57,68.3727 482.5,64.5 Z"/></g>
<g><path style="opacity:1" fill="#111602" d="M 245.5,64.5 C 250.031,67.6836 250.698,71.6836 247.5,76.5C 243.894,76.7892 240.394,76.4558 237,75.5C 234.855,71.8632 235.022,68.5298 237.5,65.5C 240.096,64.7347 242.763,64.4013 245.5,64.5 Z"/></g>
<g><path style="opacity:1" fill="#151904" d="M 360.5,73.5 C 357.332,76.0561 353.666,77.0561 349.5,76.5C 347.069,75.3932 346.069,73.3932 346.5,70.5C 346.046,67.7759 347.046,65.9425 349.5,65C 357.167,62.8444 360.834,65.6777 360.5,73.5 Z"/></g>
<g><path style="opacity:1" fill="#303e0d" d="M 438.5,76.5 C 437.791,77.404 436.791,77.7373 435.5,77.5C 435.5,73.1667 435.5,68.8333 435.5,64.5C 436.833,64.5 438.167,64.5 439.5,64.5C 439.817,68.7016 439.483,72.7016 438.5,76.5 Z"/></g>
<g><path style="opacity:1" fill="#000700" d="M 438.5,76.5 C 437.213,75.1286 436.547,73.2953 436.5,71C 436.833,69.1667 437.167,67.3333 437.5,65.5C 438.489,69.1073 438.823,72.774 438.5,76.5 Z"/></g>
<g><path style="opacity:1" fill="#98ad3d" d="M 220.5,67.5 C 222.288,67.2148 223.955,67.5481 225.5,68.5C 224.667,68.8333 223.833,69.1667 223,69.5C 221.624,69.3158 220.791,68.6491 220.5,67.5 Z"/></g>
<g><path style="opacity:1" fill="#495807" d="M 340.5,64.5 C 341.404,65.209 341.737,66.209 341.5,67.5C 339.833,67.5 338.167,67.5 336.5,67.5C 336.5,70.8333 336.5,74.1667 336.5,77.5C 334.901,77.7678 333.568,77.4345 332.5,76.5C 333.5,76.5 334.5,76.5 335.5,76.5C 335.5,73.1667 335.5,69.8333 335.5,66.5C 337.781,66.9227 339.448,66.256 340.5,64.5 Z"/></g>
<g><path style="opacity:1" fill="#a4c02d" d="M 377.5,67.5 C 379.5,67.5 381.5,67.5 383.5,67.5C 383.5,69.5 383.5,71.5 383.5,73.5C 383.5,71.5 383.5,69.5 383.5,67.5C 381.5,67.5 379.5,67.5 377.5,67.5 Z"/></g>
<g><path style="opacity:1" fill="#9ab03a" d="M 453.5,69.5 C 451.712,69.7852 450.045,69.4519 448.5,68.5C 449.333,68.1667 450.167,67.8333 451,67.5C 452.376,67.6842 453.209,68.3509 453.5,69.5 Z"/></g>
<g><path style="opacity:1" fill="#8da137" d="M 484.5,67.5 C 486.604,67.2011 488.604,67.5344 490.5,68.5C 489.5,68.8333 488.5,69.1667 487.5,69.5C 485.97,69.3601 484.97,68.6935 484.5,67.5 Z"/></g>
<g><path style="opacity:1" fill="#9ab332" d="M 238.5,67.5 C 241.167,67.5 243.833,67.5 246.5,67.5C 247.656,74.1584 245.156,76.1584 239,73.5C 238.505,71.5273 238.338,69.5273 238.5,67.5 Z"/></g>
<g><path style="opacity:1" fill="#819234" d="M 264.5,66.5 C 264.5,67.8333 264.5,69.1667 264.5,70.5C 262.5,70.5 260.5,70.5 258.5,70.5C 258.5,69.1667 258.5,67.8333 258.5,66.5C 260.5,66.5 262.5,66.5 264.5,66.5 Z"/></g>
<g><path style="opacity:1" fill="#3a4708" d="M 396.5,69.5 C 398.833,69.5 401.167,69.5 403.5,69.5C 403.5,70.5 403.5,71.5 403.5,72.5C 401.167,72.5 398.833,72.5 396.5,72.5C 398.292,71.6909 400.292,71.1909 402.5,71C 400.292,70.8091 398.292,70.3091 396.5,69.5 Z"/></g>
<g><path style="opacity:1" fill="#151904" d="M 507.5,64.5 C 509.358,66.8831 510.692,69.5498 511.5,72.5C 512.292,73.9669 512.292,75.3002 511.5,76.5C 510.478,76.1445 509.811,75.4778 509.5,74.5C 507.052,73.5269 504.385,73.1936 501.5,73.5C 501.5,72.5 501.5,71.5 501.5,70.5C 501.392,68.4862 502.058,66.8195 503.5,65.5C 504.708,64.7659 506.041,64.4326 507.5,64.5 Z"/></g>
<g><path style="opacity:1" fill="#d3f3f9" d="M 130.5,51.5 C 133.197,56.4205 135.03,61.7538 136,67.5C 137.363,78.5909 136.196,89.2576 132.5,99.5C 133.238,92.4735 134.238,85.4735 135.5,78.5C 134.423,69.4386 132.757,60.4386 130.5,51.5 Z"/></g>
<g><path style="opacity:1" fill="#97af32" d="M 349.5,67.5 C 351.833,67.5 354.167,67.5 356.5,67.5C 356.5,69.8333 356.5,72.1667 356.5,74.5C 354.167,74.5 351.833,74.5 349.5,74.5C 349.5,72.1667 349.5,69.8333 349.5,67.5 Z"/></g>
<g><path style="opacity:1" fill="#778538" d="M 505.5,67.5 C 507.104,68.287 507.771,69.6203 507.5,71.5C 506.5,71.5 505.5,71.5 504.5,71.5C 504.433,70.0413 504.766,68.7079 505.5,67.5 Z"/></g>
<g><path style="opacity:1" fill="#3d97af" d="M 140.5,54.5 C 142.132,57.5575 143.299,60.8909 144,64.5C 144.667,72.5 144.667,80.5 144,88.5C 143.802,90.3817 143.302,92.0484 142.5,93.5C 143.018,80.3934 142.352,67.3934 140.5,54.5 Z"/></g>
<g><path style="opacity:1" fill="#141803" d="M 185.5,64.5 C 186.822,64.33 187.989,64.6634 189,65.5C 191.13,68.7667 192.963,72.1 194.5,75.5C 194.265,76.0967 193.765,76.4301 193,76.5C 191.32,75.4535 189.486,74.7868 187.5,74.5C 185.076,75.0211 182.743,75.6877 180.5,76.5C 181.611,72.2769 183.278,68.2769 185.5,64.5 Z"/></g>
<g><path style="opacity:1" fill="#7f8d42" d="M 186.5,68.5 C 188.048,68.8212 188.715,69.8212 188.5,71.5C 185.752,71.5983 185.086,70.5983 186.5,68.5 Z"/></g>
<g><path style="opacity:1" fill="#a3bd31" d="M 320.5,63.5 C 316.958,63.1872 313.625,63.5206 310.5,64.5C 309.437,68.6391 308.77,72.9725 308.5,77.5C 310.415,77.7845 312.081,77.4511 313.5,76.5C 313.5,75.1667 313.5,73.8333 313.5,72.5C 316.888,71.9694 318.888,73.3027 319.5,76.5C 317.857,76.5198 316.524,75.8532 315.5,74.5C 314.571,75.6888 314.238,77.0222 314.5,78.5C 311.956,78.1043 309.789,78.771 308,80.5C 303.284,78.8981 298.45,77.8981 293.5,77.5C 297.5,77.5 301.5,77.5 305.5,77.5C 305.737,76.209 305.404,75.209 304.5,74.5C 303.699,72.9582 303.366,71.2915 303.5,69.5C 301.167,69.5 298.833,69.5 296.5,69.5C 296.5,68.8333 296.5,68.1667 296.5,67.5C 299.5,67.5 302.5,67.5 305.5,67.5C 305.737,66.209 305.404,65.209 304.5,64.5C 300.5,64.5 296.5,64.5 292.5,64.5C 292.5,68.5 292.5,72.5 292.5,76.5C 292.5,76.8333 292.5,77.1667 292.5,77.5C 291.195,75.6028 290.529,73.2695 290.5,70.5C 290.527,67.9105 290.861,65.4105 291.5,63C 297.019,62.0007 302.353,62.5007 307.5,64.5C 311.756,62.2939 316.09,61.9606 320.5,63.5 Z"/></g>
<g><path style="opacity:1" fill="#131a02" d="M 304.5,64.5 C 302.143,66.0984 299.477,67.0984 296.5,67.5C 296.5,68.1667 296.5,68.8333 296.5,69.5C 298.369,70.1646 300.369,70.8313 302.5,71.5C 300.5,72.1667 298.5,72.8333 296.5,73.5C 299.086,74.48 301.753,74.8134 304.5,74.5C 300.971,76.4228 296.971,77.0894 292.5,76.5C 292.5,72.5 292.5,68.5 292.5,64.5C 296.5,64.5 300.5,64.5 304.5,64.5 Z"/></g>
<g><path style="opacity:1" fill="#4f5d13" d="M 304.5,64.5 C 305.404,65.209 305.737,66.209 305.5,67.5C 302.5,67.5 299.5,67.5 296.5,67.5C 299.477,67.0984 302.143,66.0984 304.5,64.5 Z"/></g>
<g><path style="opacity:1" fill="#515e13" d="M 382.5,64.5 C 379.833,64.5 377.167,64.5 374.5,64.5C 374.5,68.5 374.5,72.5 374.5,76.5C 377.167,76.5 379.833,76.5 382.5,76.5C 379.713,77.4767 376.713,77.81 373.5,77.5C 373.5,72.8333 373.5,68.1667 373.5,63.5C 376.713,63.19 379.713,63.5233 382.5,64.5 Z"/></g>
<g><path style="opacity:1" fill="#748433" d="M 296.5,69.5 C 298.833,69.5 301.167,69.5 303.5,69.5C 303.366,71.2915 303.699,72.9582 304.5,74.5C 301.753,74.8134 299.086,74.48 296.5,73.5C 298.5,72.8333 300.5,72.1667 302.5,71.5C 300.369,70.8313 298.369,70.1646 296.5,69.5 Z"/></g>
<g><path style="opacity:1" fill="#81942a" d="M 310.5,64.5 C 310.5,68.5 310.5,72.5 310.5,76.5C 311.5,76.5 312.5,76.5 313.5,76.5C 312.081,77.4511 310.415,77.7845 308.5,77.5C 308.77,72.9725 309.437,68.6391 310.5,64.5 Z"/></g>
<g><path style="opacity:1" fill="#5f6e19" d="M 492.5,65.5 C 493.483,69.2984 493.817,73.2984 493.5,77.5C 491.517,77.8432 490.183,77.1765 489.5,75.5C 490.575,76.5624 491.575,76.5624 492.5,75.5C 492.026,72.2547 492.026,68.9214 492.5,65.5 Z"/></g>
<g><path style="opacity:1" fill="#78853b" d="M 209.5,72.5 C 210.167,73.1667 210.833,73.8333 211.5,74.5C 208.753,74.8134 206.086,74.48 203.5,73.5C 205.396,72.5344 207.396,72.2011 209.5,72.5 Z"/></g>
<g><path style="opacity:1" fill="#879b2a" d="M 310.5,64.5 C 313.625,63.5206 316.958,63.1872 320.5,63.5C 322.017,63.5106 323.184,64.1772 324,65.5C 324.17,69.4934 324.004,73.4934 323.5,77.5C 321.901,77.7678 320.568,77.4345 319.5,76.5C 320.675,76.719 321.675,76.3857 322.5,75.5C 322.026,72.2547 322.026,68.9214 322.5,65.5C 318.548,64.7279 314.548,64.3946 310.5,64.5 Z"/></g>
<g><path style="opacity:1" fill="#5a6721" d="M 377.5,67.5 C 377.5,69.5 377.5,71.5 377.5,73.5C 379.5,73.5 381.5,73.5 383.5,73.5C 381.393,74.4682 379.059,74.8016 376.5,74.5C 376.198,71.9407 376.532,69.6074 377.5,67.5 Z"/></g>
<g><path style="opacity:1" fill="#79853c" d="M 396.5,72.5 C 398.833,72.5 401.167,72.5 403.5,72.5C 403.833,73.1667 404.167,73.8333 404.5,74.5C 401.302,75.0356 398.635,74.369 396.5,72.5 Z"/></g>
<g><path style="opacity:1" fill="#718428" d="M 413.5,64.5 C 414.477,67.2869 414.81,70.2869 414.5,73.5C 417.385,73.1936 420.052,73.5269 422.5,74.5C 419.5,74.5 416.5,74.5 413.5,74.5C 413.5,71.1667 413.5,67.8333 413.5,64.5 Z"/></g>
<g><path style="opacity:1" fill="#747f40" d="M 448.5,72.5 C 450.604,72.2011 452.604,72.5344 454.5,73.5C 453.5,73.8333 452.5,74.1667 451.5,74.5C 449.97,74.3601 448.97,73.6935 448.5,72.5 Z"/></g>
<g><path style="opacity:1" fill="#879c2c" d="M 489.5,75.5 C 488.292,74.7659 486.959,74.4326 485.5,74.5C 485.715,76.1788 485.048,77.1788 483.5,77.5C 483.5,77.1667 483.5,76.8333 483.5,76.5C 483.5,75.1667 483.5,73.8333 483.5,72.5C 485.199,72.3398 486.866,72.5065 488.5,73C 489.252,73.6708 489.586,74.5041 489.5,75.5 Z"/></g>
<g><path style="opacity:1" fill="#252d07" d="M 501.5,70.5 C 501.5,71.5 501.5,72.5 501.5,73.5C 504.385,73.1936 507.052,73.5269 509.5,74.5C 506.428,74.1875 503.595,74.8542 501,76.5C 500.235,76.4301 499.735,76.0967 499.5,75.5C 499.402,73.4471 500.069,71.7804 501.5,70.5 Z"/></g>
<g><path style="opacity:1" fill="#1e2903" d="M 149.5,58.5 C 150.989,62.2357 151.656,66.2357 151.5,70.5C 151.823,77.0221 151.49,83.3554 150.5,89.5C 150.56,79.1504 150.226,68.8171 149.5,58.5 Z"/></g>
<g><path style="opacity:1" fill="#171c07" d="M 200.5,64.5 C 204.167,64.5 207.833,64.5 211.5,64.5C 211.5,65.5 211.5,66.5 211.5,67.5C 208.753,67.1866 206.086,67.52 203.5,68.5C 205.396,69.4656 207.396,69.7989 209.5,69.5C 209.5,70.5 209.5,71.5 209.5,72.5C 207.396,72.2011 205.396,72.5344 203.5,73.5C 206.086,74.48 208.753,74.8134 211.5,74.5C 211.5,75.1667 211.5,75.8333 211.5,76.5C 207.833,76.5 204.167,76.5 200.5,76.5C 200.5,72.5 200.5,68.5 200.5,64.5 Z"/></g>
<g><path style="opacity:1" fill="#121803" d="M 310.5,64.5 C 314.548,64.3946 318.548,64.7279 322.5,65.5C 322.026,68.9214 322.026,72.2547 322.5,75.5C 321.675,76.3857 320.675,76.719 319.5,76.5C 318.888,73.3027 316.888,71.9694 313.5,72.5C 313.5,73.8333 313.5,75.1667 313.5,76.5C 312.5,76.5 311.5,76.5 310.5,76.5C 310.5,72.5 310.5,68.5 310.5,64.5 Z"/></g>
<g><path style="opacity:1" fill="#9ab538" d="M 313.5,67.5 C 315.604,67.2011 317.604,67.5344 319.5,68.5C 318.5,68.8333 317.5,69.1667 316.5,69.5C 314.97,69.3601 313.97,68.6935 313.5,67.5 Z"/></g>
<g><path style="opacity:1" fill="#0b1300" d="M 413.5,64.5 C 413.5,67.8333 413.5,71.1667 413.5,74.5C 416.5,74.5 419.5,74.5 422.5,74.5C 418.971,76.4228 414.971,77.0894 410.5,76.5C 410.5,72.5 410.5,68.5 410.5,64.5C 411.5,64.5 412.5,64.5 413.5,64.5 Z"/></g>
<g><path style="opacity:1" fill="#c6c6c6" d="M 85.5,71.5 C 85.3653,73.5542 86.032,75.2209 87.5,76.5C 82.4149,76.2091 78.0816,77.8758 74.5,81.5C 72.739,80.9649 71.4057,79.9649 70.5,78.5C 71.8333,78.5 72.5,77.8333 72.5,76.5C 77.4764,76.8578 81.8097,75.1912 85.5,71.5 Z"/></g>
<g><path style="opacity:1" fill="#738620" d="M 360.5,73.5 C 360.64,75.1238 359.973,76.2904 358.5,77C 355.304,77.8045 352.304,77.6378 349.5,76.5C 353.666,77.0561 357.332,76.0561 360.5,73.5 Z"/></g>
<g><path style="opacity:1" fill="#b1b1b1" d="M 59.5,70.5 C 61.9328,70.2729 63.5994,71.2729 64.5,73.5C 63.475,73.8966 63.3083,74.5632 64,75.5C 67.0359,78.7044 70.2026,81.7044 73.5,84.5C 74.3984,85.1577 75.3984,85.8243 76.5,86.5C 76.0431,87.2975 75.3764,87.6309 74.5,87.5C 67.7498,83.4142 62.7498,77.7475 59.5,70.5 Z"/></g>
<g><path style="opacity:1" fill="#141414" d="M 64.5,73.5 C 65.8908,75.8903 67.8908,77.5569 70.5,78.5C 71.4057,79.9649 72.739,80.9649 74.5,81.5C 78.0816,77.8758 82.4149,76.2091 87.5,76.5C 92.0836,78.0823 95.4169,81.0823 97.5,85.5C 101.309,88.1421 104.976,90.9754 108.5,94C 102.934,93.0604 97.6003,91.2271 92.5,88.5C 92.2615,85.8517 90.9282,84.0183 88.5,83C 85.1119,82.3412 81.7786,82.5078 78.5,83.5C 76.9582,84.3007 75.2915,84.634 73.5,84.5C 70.2026,81.7044 67.0359,78.7044 64,75.5C 63.3083,74.5632 63.475,73.8966 64.5,73.5 Z"/></g>
<g><path style="opacity:1" fill="#47540f" d="M 200.5,64.5 C 200.5,68.5 200.5,72.5 200.5,76.5C 204.167,76.5 207.833,76.5 211.5,76.5C 207.702,77.4834 203.702,77.8168 199.5,77.5C 199.182,72.9677 199.515,68.6344 200.5,64.5 Z"/></g>
<g><path style="opacity:1" fill="#586814" d="M 304.5,74.5 C 305.404,75.209 305.737,76.209 305.5,77.5C 301.5,77.5 297.5,77.5 293.5,77.5C 293.167,77.5 292.833,77.5 292.5,77.5C 292.5,77.1667 292.5,76.8333 292.5,76.5C 296.971,77.0894 300.971,76.4228 304.5,74.5 Z"/></g>
<g><path style="opacity:1" fill="#53611a" d="M 463.5,64.5 C 467.298,63.5166 471.298,63.1832 475.5,63.5C 475.5,64.8333 475.5,66.1667 475.5,67.5C 472.753,67.1866 470.086,67.52 467.5,68.5C 469.396,69.4656 471.396,69.7989 473.5,69.5C 474.167,72.1667 474.833,74.8333 475.5,77.5C 471.298,77.8168 467.298,77.4834 463.5,76.5C 467.226,76.8226 470.893,76.4892 474.5,75.5C 471.914,74.52 469.247,74.1866 466.5,74.5C 466.5,73.5 466.5,72.5 466.5,71.5C 474.5,71.1667 474.5,70.8333 466.5,70.5C 466.5,69.1667 466.5,67.8333 466.5,66.5C 469.247,66.8134 471.914,66.48 474.5,65.5C 470.893,64.5108 467.226,64.1774 463.5,64.5 Z"/></g>
<g><path style="opacity:1" fill="#809525" d="M 511.5,72.5 C 513.213,73.6354 513.88,75.302 513.5,77.5C 510.91,77.6038 508.577,76.9371 506.5,75.5C 504.761,76.3998 502.928,77.0665 501,77.5C 500.167,77.1667 499.333,76.8333 498.5,76.5C 498.624,75.8933 498.957,75.56 499.5,75.5C 499.735,76.0967 500.235,76.4301 501,76.5C 503.595,74.8542 506.428,74.1875 509.5,74.5C 509.811,75.4778 510.478,76.1445 511.5,76.5C 512.292,75.3002 512.292,73.9669 511.5,72.5 Z"/></g>
<g><path style="opacity:1" fill="#18505f" d="M 11.5,54.5 C 7.11495,67.9512 6.44828,81.6178 9.5,95.5C 8.77842,95.0825 8.27842,94.4158 8,93.5C 7.08097,88.0395 6.58097,82.5395 6.5,77C 6.08178,68.911 7.74844,61.411 11.5,54.5 Z"/></g>
<g><path style="opacity:1" fill="#c1eff7" d="M 18.5,58.5 C 16.7269,67.7177 16.0602,77.0511 16.5,86.5C 15.3448,79.3451 15.1782,72.0118 16,64.5C 16.5662,62.2774 17.3995,60.2774 18.5,58.5 Z"/></g>
<g><path style="opacity:1" fill="#b8b8b8" d="M 92.5,88.5 C 91.8333,88.8333 91.1667,89.1667 90.5,89.5C 90.4226,88.2502 89.756,87.4169 88.5,87C 89.6091,85.187 88.9424,84.3537 86.5,84.5C 84.3382,83.5829 82.0048,83.5829 79.5,84.5C 78.8333,84.5 78.5,84.1667 78.5,83.5C 81.7786,82.5078 85.1119,82.3412 88.5,83C 90.9282,84.0183 92.2615,85.8517 92.5,88.5 Z"/></g>
<g><path style="opacity:1" fill="#161616" d="M 86.5,84.5 C 85.4855,85.7647 83.9855,86.4313 82,86.5C 80.5,86.3333 79,86.1667 77.5,86C 78.4158,85.7216 79.0825,85.2216 79.5,84.5C 82.0048,83.5829 84.3382,83.5829 86.5,84.5 Z"/></g>
<g><path style="opacity:1" fill="#666666" d="M 78.5,83.5 C 78.5,84.1667 78.8333,84.5 79.5,84.5C 79.0825,85.2216 78.4158,85.7216 77.5,86C 79,86.1667 80.5,86.3333 82,86.5C 83.9855,86.4313 85.4855,85.7647 86.5,84.5C 88.9424,84.3537 89.6091,85.187 88.5,87C 89.756,87.4169 90.4226,88.2502 90.5,89.5C 88.6203,89.2291 87.287,89.8958 86.5,91.5C 81.9555,91.5409 77.9555,90.2075 74.5,87.5C 75.3764,87.6309 76.0431,87.2975 76.5,86.5C 75.3984,85.8243 74.3984,85.1577 73.5,84.5C 75.2915,84.634 76.9582,84.3007 78.5,83.5 Z"/></g>
<g><path style="opacity:1" fill="#6d821c" d="M -0.5,72.5 C -0.166667,72.5 0.166667,72.5 0.5,72.5C 0.333909,78.1764 0.500575,83.8431 1,89.5C 2.3689,93.3775 3.20224,97.3775 3.5,101.5C 2.16667,98.1667 0.833333,94.8333 -0.5,91.5C -0.5,85.1667 -0.5,78.8333 -0.5,72.5 Z"/></g>
<g><path style="opacity:1" fill="#809427" d="M 151.5,70.5 C 152.655,77.3209 152.821,84.3209 152,91.5C 151.615,96.0058 150.115,100.006 147.5,103.5C 148.907,98.9388 149.907,94.2721 150.5,89.5C 151.49,83.3554 151.823,77.0221 151.5,70.5 Z"/></g>
<g><path style="opacity:1" fill="#8c8d88" d="M 63.5,98.5 C 62.962,100.117 62.6287,101.784 62.5,103.5C 61.8333,103.167 61.1667,102.833 60.5,102.5C 60.7376,100.596 61.7376,99.2623 63.5,98.5 Z"/></g>
<g><path style="opacity:1" fill="#4e5b17" d="M 60.5,102.5 C 61.1667,102.833 61.8333,103.167 62.5,103.5C 65.5,103.5 68.5,103.5 71.5,103.5C 67.8333,104.833 64.1667,104.833 60.5,103.5C 60.5,103.167 60.5,102.833 60.5,102.5 Z"/></g>
<g><path style="opacity:1" fill="#495e1b" d="M 140.5,102.5 C 142.607,103.468 144.941,103.802 147.5,103.5C 147.5,104.167 147.167,104.5 146.5,104.5C 143.941,104.802 141.607,104.468 139.5,103.5C 139.5,102.833 139.833,102.5 140.5,102.5 Z"/></g>
<g><path style="opacity:1" fill="#afc85a" d="M -0.5,91.5 C 0.833333,94.8333 2.16667,98.1667 3.5,101.5C 5.8002,103.202 8.46687,103.868 11.5,103.5C 14.5,103.5 17.5,103.5 20.5,103.5C 33.8333,103.5 47.1667,103.5 60.5,103.5C 64.1667,104.833 67.8333,104.833 71.5,103.5C 73.1667,103.5 74.8333,103.5 76.5,103.5C 94.8333,103.5 113.167,103.5 131.5,103.5C 134.167,103.5 136.833,103.5 139.5,103.5C 141.607,104.468 143.941,104.802 146.5,104.5C 146.5,104.833 146.5,105.167 146.5,105.5C 97.5,105.5 48.5,105.5 -0.5,105.5C -0.5,100.833 -0.5,96.1667 -0.5,91.5 Z"/></g>
</svg>
