<?xml version="1.0" encoding="UTF-8"?>
<!DOCTYPE svg PUBLIC "-//W3C//DTD SVG 1.1//EN" "http://www.w3.org/Graphics/SVG/1.1/DTD/svg11.dtd">
<svg xmlns="http://www.w3.org/2000/svg" version="1.1" width="524px" height="152px" style="shape-rendering:geometricPrecision; text-rendering:geometricPrecision; image-rendering:optimizeQuality; fill-rule:evenodd; clip-rule:evenodd" xmlns:xlink="http://www.w3.org/1999/xlink">
<g><path style="opacity:1" fill="#c9d687" d="M -0.5,-0.5 C 174.167,-0.5 348.833,-0.5 523.5,-0.5C 523.5,50.1667 523.5,100.833 523.5,151.5C 348.833,151.5 174.167,151.5 -0.5,151.5C -0.5,100.833 -0.5,50.1667 -0.5,-0.5 Z"/></g>
<g><path style="opacity:1" fill="#15160e" d="M 139.5,16.5 C 139.369,17.3764 139.702,18.0431 140.5,18.5C 141.395,14.7887 142.395,11.122 143.5,7.5C 143.811,6.52216 144.478,5.85549 145.5,5.5C 149.751,9.99996 151.751,15.3333 151.5,21.5C 147.462,25.1784 146.962,29.1784 150,33.5C 150.612,29.6339 152.112,26.3006 154.5,23.5C 155.921,28.7139 155.421,33.7139 153,38.5C 152.667,36.5 152.333,34.5 152,32.5C 151.139,35.8451 149.305,36.8451 146.5,35.5C 147.194,33.176 146.361,31.176 144,29.5C 140.211,30.562 136.377,30.7287 132.5,30C 129.328,28.2481 126.328,26.2481 123.5,24C 124.672,23.5814 125.672,22.9147 126.5,22C 130.833,21.6667 135.167,21.3333 139.5,21C 135.774,19.9806 132.107,18.6473 128.5,17C 126.041,13.25 123.708,9.41663 121.5,5.5C 127.58,4.80953 132.747,6.80953 137,11.5C 138.094,13.0779 138.928,14.7446 139.5,16.5 Z"/></g>
<g><path style="opacity:1" fill="#c1cc87" d="M 43.5,37.5 C 43.7329,35.9382 44.3995,34.6049 45.5,33.5C 44.1667,32.1667 44.1667,30.8333 45.5,29.5C 48.263,27.9202 50.9297,26.0869 53.5,24C 48.7559,20.932 43.7559,19.7654 38.5,20.5C 38.7093,19.914 39.0426,19.414 39.5,19C 42.5755,18.6543 45.5755,17.9876 48.5,17C 58.9501,3.65095 56.6168,1.15095 41.5,9.5C 41.5,8.5 41.5,7.5 41.5,6.5C 44.5715,5.50467 47.5715,4.33801 50.5,3C 52.4727,2.50454 54.4727,2.33788 56.5,2.5C 55.1555,8.66238 57.3222,10.6624 63,8.5C 66.1742,11.4153 65.6742,13.9153 61.5,16C 61.8333,16.3333 62.1667,16.6667 62.5,17C 60.9632,18.1096 60.2965,19.6096 60.5,21.5C 59.448,21.3505 58.448,21.5172 57.5,22C 55.0756,25.7532 51.7423,28.4199 47.5,30C 46.7511,31.7337 46.2511,33.567 46,35.5C 45.2917,36.3805 44.4584,37.0472 43.5,37.5 Z"/></g>
<g><path style="opacity:1" fill="#9da674" d="M 143.5,7.5 C 142.395,11.122 141.395,14.7887 140.5,18.5C 139.702,18.0431 139.369,17.3764 139.5,16.5C 140.309,14.7078 140.809,12.7078 141,10.5C 141.377,9.05773 142.21,8.05773 143.5,7.5 Z"/></g>
<g><path style="opacity:1" fill="#b6bf84" d="M 31.5,5.5 C 25.7741,12.8143 25.1074,20.481 29.5,28.5C 29.1964,30.4405 28.3631,32.1072 27,33.5C 26.587,30.7679 25.9203,28.1013 25,25.5C 23.2927,23.9625 21.7927,22.2959 20.5,20.5C 21.5832,20.5394 22.5832,20.8728 23.5,21.5C 24.2226,15.8133 25.8892,10.48 28.5,5.5C 29.5,5.5 30.5,5.5 31.5,5.5 Z"/></g>
<g><path style="opacity:1" fill="#a8b17c" d="M 151.5,21.5 C 152.391,22.1098 153.391,22.4431 154.5,22.5C 154.5,22.8333 154.5,23.1667 154.5,23.5C 152.112,26.3006 150.612,29.6339 150,33.5C 146.962,29.1784 147.462,25.1784 151.5,21.5 Z"/></g>
<g><path style="opacity:1" fill="#6f7747" d="M 121.5,55.5 C 121.5,50.1667 121.5,44.8333 121.5,39.5C 110.38,38.8389 99.88,35.8389 90,30.5C 80.3194,35.0419 70.1528,38.2086 59.5,40C 57.7323,54.8921 60.2323,69.0588 67,82.5C 68.0487,84.3844 69.5487,85.7177 71.5,86.5C 71.5,88.1667 71.5,89.8333 71.5,91.5C 67.5239,86.2324 64.0239,80.5657 61,74.5C 57.3943,62.0918 55.8943,49.4251 56.5,36.5C 68.2525,36.1157 79.2525,33.1157 89.5,27.5C 99.7257,33.2407 110.726,36.574 122.5,37.5C 122.823,43.69 122.49,49.69 121.5,55.5 Z"/></g>
<g><path style="opacity:1" fill="#a2aa7b" d="M 45.5,29.5 C 44.1667,30.8333 44.1667,32.1667 45.5,33.5C 39.73,31.5321 34.5633,32.5321 30,36.5C 29.6079,33.613 30.6079,31.2797 33,29.5C 37.1781,30.7938 41.3448,30.7938 45.5,29.5 Z"/></g>
<g><path style="opacity:1" fill="#5a603f" d="M 121.5,39.5 C 119.572,48.4444 118.406,57.7777 118,67.5C 117.066,68.8584 116.232,70.1917 115.5,71.5C 117.389,61.3281 118.056,51.1614 117.5,41C 107.414,40.4701 98.0811,37.6368 89.5,32.5C 80.3942,37.1932 70.7275,39.8598 60.5,40.5C 59.3439,57.0671 63.0106,72.4004 71.5,86.5C 69.5487,85.7177 68.0487,84.3844 67,82.5C 60.2323,69.0588 57.7323,54.8921 59.5,40C 70.1528,38.2086 80.3194,35.0419 90,30.5C 99.88,35.8389 110.38,38.8389 121.5,39.5 Z"/></g>
<g><path style="opacity:1" fill="#14160e" d="M 115.5,71.5 C 110.536,83.476 102.536,93.3093 91.5,101C 88.0699,101.459 85.0699,100.459 82.5,98C 78.6019,94.2712 74.9352,90.4379 71.5,86.5C 63.0106,72.4004 59.3439,57.0671 60.5,40.5C 70.7275,39.8598 80.3942,37.1932 89.5,32.5C 98.0811,37.6368 107.414,40.4701 117.5,41C 118.056,51.1614 117.389,61.3281 115.5,71.5 Z"/></g>
<g><path style="opacity:1" fill="#11120a" d="M 45.5,29.5 C 41.3448,30.7938 37.1781,30.7938 33,29.5C 30.6079,31.2797 29.6079,33.613 30,36.5C 34.5633,32.5321 39.73,31.5321 45.5,33.5C 44.3995,34.6049 43.7329,35.9382 43.5,37.5C 38.7747,43.0737 32.7747,45.7403 25.5,45.5C 25.2148,47.288 25.5481,48.9547 26.5,50.5C 27.9397,49.0476 29.6064,48.0476 31.5,47.5C 33.4008,47.5668 35.2341,47.2335 37,46.5C 38.0299,46.8361 38.5299,47.5028 38.5,48.5C 38.5,48.8333 38.5,49.1667 38.5,49.5C 36.6497,52.6867 34.6497,55.8533 32.5,59C 30.0912,60.7068 27.4245,61.5402 24.5,61.5C 23.1944,64.6868 23.1944,68.0202 24.5,71.5C 25.1067,71.3764 25.44,71.0431 25.5,70.5C 27.6706,65.662 31.3373,62.662 36.5,61.5C 37.778,70.6871 34.4447,77.5205 26.5,82C 29.2401,90.7482 31.0734,90.5815 32,81.5C 33.6437,78.6894 35.8103,76.356 38.5,74.5C 39.1698,76.2914 39.8365,77.9581 40.5,79.5C 40.5,80.5 40.5,81.5 40.5,82.5C 41.2086,88.4081 39.2086,93.0747 34.5,96.5C 31.8555,98.2419 28.8555,98.9086 25.5,98.5C 19.7127,96.7251 15.3794,93.0585 12.5,87.5C 16.8124,86.122 21.1457,86.4554 25.5,88.5C 25.8333,88.1667 26.1667,87.8333 26.5,87.5C 25.846,85.8849 25.346,84.2182 25,82.5C 23.6439,81.6198 22.1439,81.2865 20.5,81.5C 12.8343,78.5259 8.83429,72.8593 8.5,64.5C 13.1063,65.5529 17.2729,67.5529 21,70.5C 21.498,67.5184 21.6646,64.5184 21.5,61.5C 13.2792,59.2653 9.61251,53.7653 10.5,45C 10.6667,43.5 10.8333,42 11,40.5C 15.9746,42.8079 19.6413,46.4746 22,51.5C 22.3729,49.3018 22.8729,47.1351 23.5,45C 21.6811,42.5107 19.8478,40.0107 18,37.5C 17.3333,33.1667 17.3333,28.8333 18,24.5C 18.6082,22.9336 19.4415,21.6002 20.5,20.5C 21.7927,22.2959 23.2927,23.9625 25,25.5C 25.9203,28.1013 26.587,30.7679 27,33.5C 28.3631,32.1072 29.1964,30.4405 29.5,28.5C 25.1074,20.481 25.7741,12.8143 31.5,5.5C 33.61,6.4525 34.7767,8.11917 35,10.5C 35.3333,13.5 35.6667,16.5 36,19.5C 37.5774,16.0108 39.4107,12.6774 41.5,9.5C 56.6168,1.15095 58.9501,3.65095 48.5,17C 45.5755,17.9876 42.5755,18.6543 39.5,19C 39.0426,19.414 38.7093,19.914 38.5,20.5C 43.7559,19.7654 48.7559,20.932 53.5,24C 50.9297,26.0869 48.263,27.9202 45.5,29.5 Z"/></g>
<g><path style="opacity:1" fill="#777d57" d="M 142.5,44.5 C 145.713,44.19 148.713,44.5233 151.5,45.5C 148.615,45.1936 145.948,45.5269 143.5,46.5C 141.585,46.2155 139.919,46.5489 138.5,47.5C 137.957,47.44 137.624,47.1067 137.5,46.5C 139.291,45.8302 140.958,45.1635 142.5,44.5 Z"/></g>
<g><path style="opacity:1" fill="#b8c286" d="M 143.5,46.5 C 145.948,45.5269 148.615,45.1936 151.5,45.5C 151.784,47.4147 151.451,49.0813 150.5,50.5C 148.167,49.1667 145.833,47.8333 143.5,46.5 Z"/></g>
<g><path style="opacity:1" fill="#474d2c" d="M 38.5,48.5 C 38.5299,47.5028 38.0299,46.8361 37,46.5C 35.2341,47.2335 33.4008,47.5668 31.5,47.5C 33.8383,45.9605 36.5049,45.2938 39.5,45.5C 39.7373,46.791 39.404,47.791 38.5,48.5 Z"/></g>
<g><path style="opacity:1" fill="#c3ce86" d="M 319.5,58.5 C 319.5,65.1667 319.5,71.8333 319.5,78.5C 320.5,78.5 321.5,78.5 322.5,78.5C 321.768,67.248 323.768,66.5814 328.5,76.5C 324.941,73.4935 323.608,74.4935 324.5,79.5C 317.336,80.4484 310.336,80.4484 303.5,79.5C 307.702,79.8168 311.702,79.4834 315.5,78.5C 316.773,77.9232 316.773,77.2565 315.5,76.5C 312.916,77.3928 310.249,77.7261 307.5,77.5C 307.5,74.5 307.5,71.5 307.5,68.5C 315.5,67.8333 315.5,67.1667 307.5,66.5C 307.5,64.1667 307.5,61.8333 307.5,59.5C 310.347,59.7824 313.013,59.7824 315.5,59.5C 311.893,58.5108 308.226,58.1774 304.5,58.5C 304.918,57.7784 305.584,57.2784 306.5,57C 304.671,56.7265 303.171,55.8932 302,54.5C 300.745,55.2106 299.579,56.044 298.5,57C 299.776,59.724 300.442,62.724 300.5,66C 300.498,69.0208 300.164,71.8541 299.5,74.5C 299.828,69.1254 299.495,63.7921 298.5,58.5C 297.184,64.3204 297.184,69.9871 298.5,75.5C 297.972,76.7206 297.305,77.8873 296.5,79C 293.633,79.8007 290.966,79.6341 288.5,78.5C 291.797,78.6713 292.131,78.0046 289.5,76.5C 288.504,70.5368 288.171,64.5368 288.5,58.5C 287.5,58.5 286.5,58.5 285.5,58.5C 285.5,63.8333 285.5,69.1667 285.5,74.5C 284.894,71.8327 284.061,69.166 283,66.5C 281.277,69.2443 278.777,70.5777 275.5,70.5C 275.665,73.5184 275.498,76.5184 275,79.5C 273.333,80.8333 271.667,80.8333 270,79.5C 269.667,76.8333 269.333,74.1667 269,71.5C 267.176,74.5868 264.842,77.2534 262,79.5C 257.528,81.33 253.362,82.9967 249.5,84.5C 247.251,81.2194 244.251,79.2194 240.5,78.5C 241.376,78.6309 242.043,78.2975 242.5,77.5C 240.455,75.2412 238.789,72.7412 237.5,70C 237.93,68.5659 238.764,67.3992 240,66.5C 240.494,64.8659 240.66,63.1992 240.5,61.5C 241.882,64.4112 241.548,67.2445 239.5,70C 239.78,71.395 240.447,72.5617 241.5,73.5C 242.177,70.1327 243.843,67.466 246.5,65.5C 245.465,70.7263 247.132,74.7263 251.5,77.5C 258.41,80.3068 263.41,78.3068 266.5,71.5C 267.488,66.8077 266.154,63.141 262.5,60.5C 261.833,59.8333 261.167,59.1667 260.5,58.5C 262.091,57.7811 263.591,56.7811 265,55.5C 268.409,55.909 271.909,55.909 275.5,55.5C 277.611,56.9488 279.944,57.9488 282.5,58.5C 284.164,56.6932 285.831,55.6932 287.5,55.5C 285.711,53.9668 283.711,52.9668 281.5,52.5C 281.352,56.5551 280.352,57.0551 278.5,54C 279.167,53.3333 279.833,52.6667 280.5,52C 279.289,50.8869 279.289,49.7202 280.5,48.5C 290.483,47.3344 300.483,47.1678 310.5,48C 311.428,48.3879 312.095,49.0546 312.5,50C 311.546,52.9188 309.879,55.2521 307.5,57C 311.528,57.3918 315.528,57.8918 319.5,58.5 Z"/></g>
<g><path style="opacity:1" fill="#c3cf88" d="M 430.5,78.5 C 426.366,79.4849 422.032,79.8182 417.5,79.5C 417.666,73.8236 417.499,68.1569 417,62.5C 414.039,62.1838 410.872,61.8504 407.5,61.5C 407.5,62.8333 407.5,64.1667 407.5,65.5C 409.5,65.5 411.5,65.5 413.5,65.5C 413.5,66.8333 413.5,68.1667 413.5,69.5C 411.5,69.5 409.5,69.5 407.5,69.5C 407.5,71.5 407.5,73.5 407.5,75.5C 409.735,75.2053 411.735,75.5386 413.5,76.5C 411.393,77.4682 409.059,77.8016 406.5,77.5C 406.5,74.5 406.5,71.5 406.5,68.5C 414.5,67.8333 414.5,67.1667 406.5,66.5C 406.5,64.5 406.5,62.5 406.5,60.5C 409.247,60.8134 411.914,60.48 414.5,59.5C 414.043,58.7025 413.376,58.3691 412.5,58.5C 409.5,58.5 406.5,58.5 403.5,58.5C 402.509,65.3134 402.175,72.3134 402.5,79.5C 401.673,74.0149 401.173,68.3482 401,62.5C 400.818,67.1614 399.985,71.6614 398.5,76C 393.905,79.5511 388.905,80.3844 383.5,78.5C 383.833,78.5 384.167,78.5 384.5,78.5C 385.167,78.5 385.833,78.5 386.5,78.5C 396.408,78.4056 400.241,73.4056 398,63.5C 396.035,61.4497 393.868,59.783 391.5,58.5C 394.313,58.5481 396.979,59.2147 399.5,60.5C 400.567,58.4414 401.9,56.608 403.5,55C 400.748,53.2492 397.748,52.4158 394.5,52.5C 394.766,54.3474 394.432,55.014 393.5,54.5C 391.649,50.8815 392.649,48.5482 396.5,47.5C 406.677,47.4186 417.011,47.5853 427.5,48C 425.338,49.6454 424.005,51.8121 423.5,54.5C 422.092,55.2432 420.759,56.0766 419.5,57C 420.448,57.4828 421.448,57.6495 422.5,57.5C 422.5,63.8333 422.5,70.1667 422.5,76.5C 425.249,76.7261 427.916,76.3928 430.5,75.5C 431.776,76.6136 431.776,77.6136 430.5,78.5 Z"/></g>
<g><path style="opacity:1" fill="#50543a" d="M 151.5,45.5 C 152.965,47.686 153.298,50.0193 152.5,52.5C 151.478,52.1445 150.811,51.4778 150.5,50.5C 151.451,49.0813 151.784,47.4147 151.5,45.5 Z"/></g>
<g><path style="opacity:1" fill="#c1cd86" d="M 75.5,49.5 C 77.5131,51.1683 79.1797,53.1683 80.5,55.5C 80.6596,57.153 81.3263,58.4863 82.5,59.5C 83.0798,61.7488 84.4131,63.4154 86.5,64.5C 87.2998,66.7409 88.9664,67.7409 91.5,67.5C 91.5,68.8333 91.5,70.1667 91.5,71.5C 89.8984,73.0739 87.8984,73.7406 85.5,73.5C 85.8799,75.698 85.2132,77.3646 83.5,78.5C 81.0118,76.4266 81.0118,74.0933 83.5,71.5C 74.7804,66.5053 72.1138,59.172 75.5,49.5 Z"/></g>
<g><path style="opacity:1" fill="#bbc686" d="M 98.5,51.5 C 95.6869,54.4459 93.3535,57.7792 91.5,61.5C 90.1667,61.5 88.8333,61.5 87.5,61.5C 87.5,60.5 87.5,59.5 87.5,58.5C 90.3984,55.3722 93.7317,52.7055 97.5,50.5C 98.1067,50.6236 98.44,50.9569 98.5,51.5 Z"/></g>
<g><path style="opacity:1" fill="#a9b279" d="M 166.5,40.5 C 167.765,41.5145 168.431,43.0145 168.5,45C 168.065,49.2422 167.231,53.4089 166,57.5C 163.833,58.3333 162.333,59.8333 161.5,62C 160.207,62.49 158.873,62.6567 157.5,62.5C 157.077,64.7812 157.744,66.4479 159.5,67.5C 158.542,68.9616 157.376,70.2949 156,71.5C 155.333,68.5 155.333,65.5 156,62.5C 164.791,57.8888 168.291,50.5555 166.5,40.5 Z"/></g>
<g><path style="opacity:1" fill="#869055" d="M 507.5,60.5 C 506.5,59.1667 505.5,59.1667 504.5,60.5C 504.077,57.7118 505.077,55.7118 507.5,54.5C 506.638,56.2521 506.638,58.2521 507.5,60.5 Z"/></g>
<g><path style="opacity:1" fill="#7c854d" d="M 364.5,59.5 C 363.833,59.5 363.5,59.8333 363.5,60.5C 355.487,58.8403 351.821,62.1736 352.5,70.5C 351.833,68.8333 351.167,67.1667 350.5,65.5C 351.34,63.1475 352.674,61.1475 354.5,59.5C 357.969,58.3 361.302,58.3 364.5,59.5 Z"/></g>
<g><path style="opacity:1" fill="#7a8446" d="M 260.5,58.5 C 261.167,59.1667 261.833,59.8333 262.5,60.5C 261.833,60.5 261.5,60.8333 261.5,61.5C 256.938,58.4825 252.938,59.1492 249.5,63.5C 249.5,62.8333 249.167,62.5 248.5,62.5C 249.343,60.8267 250.676,59.66 252.5,59C 255.146,58.5026 257.813,58.3359 260.5,58.5 Z"/></g>
<g><path style="opacity:1" fill="#6e7643" d="M 412.5,58.5 C 413.376,58.3691 414.043,58.7025 414.5,59.5C 411.914,60.48 409.247,60.8134 406.5,60.5C 408.5,59.8333 410.5,59.1667 412.5,58.5 Z"/></g>
<g><path style="opacity:1" fill="#b3bc80" d="M 142.5,56.5 C 145.281,60.0563 148.948,61.7229 153.5,61.5C 153.817,64.5719 153.484,67.5719 152.5,70.5C 149.73,66.3954 146.063,63.3954 141.5,61.5C 140.614,62.325 140.281,63.325 140.5,64.5C 139.876,64.0831 139.543,63.4164 139.5,62.5C 140.963,60.7112 141.963,58.7112 142.5,56.5 Z"/></g>
<g><path style="opacity:1" fill="#343a19" d="M 217.5,60.5 C 216.51,66.31 216.177,72.31 216.5,78.5C 214.541,72.2504 213.874,65.5837 214.5,58.5C 218.226,58.1774 221.893,58.5108 225.5,59.5C 222.808,59.393 220.141,59.7263 217.5,60.5 Z"/></g>
<g><path style="opacity:1" fill="#c4d086" d="M 261.5,61.5 C 263.25,62.6594 264.25,64.326 264.5,66.5C 264.961,75.3809 260.961,78.7142 252.5,76.5C 248.646,72.8775 247.646,68.5442 249.5,63.5C 252.938,59.1492 256.938,58.4825 261.5,61.5 Z"/></g>
<g><path style="opacity:1" fill="#c4d086" d="M 363.5,60.5 C 369.641,65.3141 369.975,70.4808 364.5,76C 358.362,78.7635 354.362,76.9302 352.5,70.5C 351.821,62.1736 355.487,58.8403 363.5,60.5 Z"/></g>
<g><path style="opacity:1" fill="#b4be82" d="M 38.5,49.5 C 38.6602,51.1992 38.4935,52.8659 38,54.5C 36.152,56.018 34.652,57.8513 33.5,60C 34.7932,60.49 36.1266,60.6567 37.5,60.5C 37.3418,67.2091 38.3418,73.5425 40.5,79.5C 39.8365,77.9581 39.1698,76.2914 38.5,74.5C 35.8103,76.356 33.6437,78.6894 32,81.5C 31.0734,90.5815 29.2401,90.7482 26.5,82C 34.4447,77.5205 37.778,70.6871 36.5,61.5C 31.3373,62.662 27.6706,65.662 25.5,70.5C 24.5233,67.7131 24.19,64.7131 24.5,61.5C 27.4245,61.5402 30.0912,60.7068 32.5,59C 34.6497,55.8533 36.6497,52.6867 38.5,49.5 Z"/></g>
<g><path style="opacity:1" fill="#61683a" d="M 87.5,58.5 C 87.5,59.5 87.5,60.5 87.5,61.5C 88.8333,61.5 90.1667,61.5 91.5,61.5C 90.0867,62.9348 88.42,63.9348 86.5,64.5C 84.4131,63.4154 83.0798,61.7488 82.5,59.5C 83.4822,60.1408 84.4822,60.8075 85.5,61.5C 86.1757,60.3984 86.8423,59.3984 87.5,58.5 Z"/></g>
<g><path style="opacity:1" fill="#0f1108" d="M 154.5,43.5 C 153.114,45.9379 153.447,48.2712 155.5,50.5C 156.107,50.3764 156.44,50.0431 156.5,49.5C 158.583,45.0823 161.916,42.0823 166.5,40.5C 168.291,50.5555 164.791,57.8888 156,62.5C 155.333,65.5 155.333,68.5 156,71.5C 157.376,70.2949 158.542,68.9616 159.5,67.5C 162.393,64.6842 165.727,64.0175 169.5,65.5C 167.745,70.0055 165.745,74.3388 163.5,78.5C 160.079,80.3757 156.412,81.3757 152.5,81.5C 151.653,84.1595 151.153,86.8262 151,89.5C 155.063,86.4402 159.563,85.7735 164.5,87.5C 163.873,88.4168 163.539,89.4168 163.5,90.5C 160.455,93.5466 157.122,96.2133 153.5,98.5C 149.498,98.9643 145.831,98.2976 142.5,96.5C 140.204,94.5994 138.371,92.2661 137,89.5C 136.539,84.8159 136.705,80.1493 137.5,75.5C 138.5,75.5 139.5,75.5 140.5,75.5C 144.48,79.2524 146.647,83.9191 147,89.5C 148.353,87.1198 149.519,84.6198 150.5,82C 145.572,78.6271 142.238,74.1271 140.5,68.5C 140.5,67.1667 140.5,65.8333 140.5,64.5C 140.281,63.325 140.614,62.325 141.5,61.5C 146.063,63.3954 149.73,66.3954 152.5,70.5C 153.484,67.5719 153.817,64.5719 153.5,61.5C 148.948,61.7229 145.281,60.0563 142.5,56.5C 140.909,53.6484 139.576,50.6484 138.5,47.5C 139.919,46.5489 141.585,46.2155 143.5,46.5C 145.833,47.8333 148.167,49.1667 150.5,50.5C 150.811,51.4778 151.478,52.1445 152.5,52.5C 153.298,50.0193 152.965,47.686 151.5,45.5C 148.713,44.5233 145.713,44.19 142.5,44.5C 138.044,41.8785 134.377,38.3785 131.5,34C 136.747,31.8235 141.747,32.3235 146.5,35.5C 149.305,36.8451 151.139,35.8451 152,32.5C 152.333,34.5 152.667,36.5 153,38.5C 155.421,33.7139 155.921,28.7139 154.5,23.5C 154.5,23.1667 154.5,22.8333 154.5,22.5C 155.482,21.8592 156.482,21.1925 157.5,20.5C 162.31,29.0226 161.31,36.6893 154.5,43.5 Z"/></g>
<g><path style="opacity:1" fill="#525444" d="M 160.5,48.5 C 160.973,50.9705 160.139,53.3038 158,55.5C 158.22,53.0369 159.054,50.7035 160.5,48.5 Z"/></g>
<g><path style="opacity:1" fill="#4e5041" d="M 144.5,51.5 C 144.897,50.475 145.563,50.3083 146.5,51C 148.5,52.6667 150.5,54.3333 152.5,56C 149.504,55.3293 146.837,53.8293 144.5,51.5 Z"/></g>
<g><path style="opacity:1" fill="#797f5a" d="M 154.5,43.5 C 154.595,45.7857 155.262,47.7857 156.5,49.5C 156.44,50.0431 156.107,50.3764 155.5,50.5C 153.447,48.2712 153.114,45.9379 154.5,43.5 Z"/></g>
<g><path style="opacity:1" fill="#424436" d="M 140.5,37.5 C 143.698,36.7193 146.698,37.5526 149.5,40C 146.336,39.9577 143.336,39.1243 140.5,37.5 Z"/></g>
<g><path style="opacity:1" fill="#2d3314" d="M 262.5,60.5 C 266.154,63.141 267.488,66.8077 266.5,71.5C 265.833,69.8333 265.167,68.1667 264.5,66.5C 264.25,64.326 263.25,62.6594 261.5,61.5C 261.5,60.8333 261.833,60.5 262.5,60.5 Z"/></g>
<g><path style="opacity:1" fill="#2e3510" d="M 271.5,58.5 C 276.295,57.5635 279.628,59.2302 281.5,63.5C 280.399,67.5912 277.733,69.2579 273.5,68.5C 273.82,71.8984 273.487,75.2317 272.5,78.5C 271.503,71.8665 271.17,65.1998 271.5,58.5 Z"/></g>
<g><path style="opacity:1" fill="#adb87d" d="M 273.5,59.5 C 279.501,59.7414 280.834,62.2414 277.5,67C 276.207,67.49 274.873,67.6567 273.5,67.5C 273.5,64.8333 273.5,62.1667 273.5,59.5 Z"/></g>
<g><path style="opacity:1" fill="#b9c483" d="M 354.5,59.5 C 352.674,61.1475 351.34,63.1475 350.5,65.5C 349.378,67.2884 349.211,69.2884 350,71.5C 351.094,73.0779 351.928,74.7446 352.5,76.5C 351.5,76.5 350.5,76.5 349.5,76.5C 349.002,73.9897 348.336,71.4897 347.5,69C 347.439,66.7395 348.106,64.7395 349.5,63C 348.244,62.5831 347.577,61.7498 347.5,60.5C 346.5,60.5 345.5,60.5 344.5,60.5C 344.5,66.8333 344.5,73.1667 344.5,79.5C 342.833,79.5 341.167,79.5 339.5,79.5C 339.829,73.4632 339.496,67.4632 338.5,61.5C 336.929,62.3094 335.262,62.6427 333.5,62.5C 333.286,60.8561 333.62,59.3561 334.5,58C 341.323,57.0656 347.99,57.5656 354.5,59.5 Z"/></g>
<g><path style="opacity:1" fill="#1f2503" d="M 343.5,77.5 C 343.158,78.3382 342.492,78.6716 341.5,78.5C 341.334,72.1579 341.5,65.8246 342,59.5C 342.172,65.6807 342.672,71.6807 343.5,77.5 Z"/></g>
<g><path style="opacity:1" fill="#586034" d="M 347.5,60.5 C 346.432,59.5655 345.099,59.2322 343.5,59.5C 343.5,65.5 343.5,71.5 343.5,77.5C 342.672,71.6807 342.172,65.6807 342,59.5C 341.5,65.8246 341.334,72.1579 341.5,78.5C 340.51,72.3554 340.177,66.0221 340.5,59.5C 339.07,59.4208 337.736,59.7542 336.5,60.5C 336.167,60.1667 335.833,59.8333 335.5,59.5C 339.833,58.1667 344.167,58.1667 348.5,59.5C 348.376,60.1067 348.043,60.44 347.5,60.5 Z"/></g>
<g><path style="opacity:1" fill="#4f5630" d="M 442.5,58.5 C 443.5,58.5 444.5,58.5 445.5,58.5C 445.5,65.1667 445.5,71.8333 445.5,78.5C 444.5,78.5 443.5,78.5 442.5,78.5C 442.5,71.8333 442.5,65.1667 442.5,58.5 Z"/></g>
<g><path style="opacity:1" fill="#6f793f" d="M 299.5,74.5 C 299.5,75.1667 299.167,75.5 298.5,75.5C 297.184,69.9871 297.184,64.3204 298.5,58.5C 299.495,63.7921 299.828,69.1254 299.5,74.5 Z"/></g>
<g><path style="opacity:1" fill="#8d9562" d="M 403.5,58.5 C 402.874,65.5837 403.541,72.2504 405.5,78.5C 408.5,78.5 411.5,78.5 414.5,78.5C 410.702,79.4834 406.702,79.8168 402.5,79.5C 402.175,72.3134 402.509,65.3134 403.5,58.5 Z"/></g>
<g><path style="opacity:1" fill="#9aa36d" d="M 91.5,61.5 C 92.8734,61.3433 94.2068,61.51 95.5,62C 97.8706,64.706 100.537,67.0394 103.5,69C 100.222,69.117 97.3887,67.9503 95,65.5C 94.2838,67.8791 93.1172,69.8791 91.5,71.5C 91.5,70.1667 91.5,68.8333 91.5,67.5C 88.9664,67.7409 87.2998,66.7409 86.5,64.5C 88.42,63.9348 90.0867,62.9348 91.5,61.5 Z"/></g>
<g><path style="opacity:1" fill="#4f562e" d="M 288.5,78.5 C 287.488,77.1283 286.488,75.795 285.5,74.5C 285.5,69.1667 285.5,63.8333 285.5,58.5C 286.5,58.5 287.5,58.5 288.5,58.5C 288.171,64.5368 288.504,70.5368 289.5,76.5C 292.131,78.0046 291.797,78.6713 288.5,78.5 Z"/></g>
<g><path style="opacity:1" fill="#a1ab6e" d="M 304.5,58.5 C 304.5,65.1667 304.5,71.8333 304.5,78.5C 308.167,78.5 311.833,78.5 315.5,78.5C 311.702,79.4834 307.702,79.8168 303.5,79.5C 303.175,72.3134 303.509,65.3134 304.5,58.5 Z"/></g>
<g><path style="opacity:1" fill="#3d4221" d="M 319.5,58.5 C 330.537,57.0033 333.203,60.8366 327.5,70C 328.789,72.7412 330.455,75.2412 332.5,77.5C 332.167,77.8333 331.833,78.1667 331.5,78.5C 330.482,77.8075 329.482,77.1408 328.5,76.5C 323.768,66.5814 321.768,67.248 322.5,78.5C 321.5,78.5 320.5,78.5 319.5,78.5C 319.5,71.8333 319.5,65.1667 319.5,58.5 Z"/></g>
<g><path style="opacity:1" fill="#b6c180" d="M 322.5,59.5 C 328.501,59.7414 329.834,62.2414 326.5,67C 325.207,67.49 323.873,67.6567 322.5,67.5C 322.5,64.8333 322.5,62.1667 322.5,59.5 Z"/></g>
<g><path style="opacity:1" fill="#1f2212" d="M 98.5,51.5 C 98.44,50.9569 98.1067,50.6236 97.5,50.5C 93.7317,52.7055 90.3984,55.3722 87.5,58.5C 86.8423,59.3984 86.1757,60.3984 85.5,61.5C 84.4822,60.8075 83.4822,60.1408 82.5,59.5C 81.3263,58.4863 80.6596,57.153 80.5,55.5C 79.8208,52.2932 78.6541,49.2932 77,46.5C 75.9614,47.2438 75.4614,48.2438 75.5,49.5C 72.1138,59.172 74.7804,66.5053 83.5,71.5C 81.0118,74.0933 81.0118,76.4266 83.5,78.5C 82.791,79.404 81.791,79.7373 80.5,79.5C 80.8076,77.076 80.4742,74.7427 79.5,72.5C 76.3886,70.5597 74.222,67.8931 73,64.5C 72.3333,59.1667 72.3333,53.8333 73,48.5C 74.5157,45.9938 76.6824,45.1605 79.5,46C 80.293,49.642 81.4597,53.142 83,56.5C 85.3001,58.9478 86.6335,58.2812 87,54.5C 90.4834,50.705 94.65,49.3716 99.5,50.5C 99.3764,51.1067 99.0431,51.44 98.5,51.5 Z"/></g>
<g><path style="opacity:1" fill="#848b5e" d="M 80.5,55.5 C 79.1797,53.1683 77.5131,51.1683 75.5,49.5C 75.4614,48.2438 75.9614,47.2438 77,46.5C 78.6541,49.2932 79.8208,52.2932 80.5,55.5 Z"/></g>
<g><path style="opacity:1" fill="#717945" d="M 201.5,60.5 C 201.833,61.8333 202.167,63.1667 202.5,64.5C 200.896,65.287 200.229,66.6203 200.5,68.5C 199.761,68.369 199.094,68.5357 198.5,69C 200.708,69.1909 202.708,69.6909 204.5,70.5C 202.5,70.5 200.5,70.5 198.5,70.5C 198.167,73.1667 197.833,75.8333 197.5,78.5C 196.448,78.6495 195.448,78.4828 194.5,78C 196.313,71.8661 198.647,66.0328 201.5,60.5 Z"/></g>
<g><path style="opacity:1" fill="#303616" d="M 204.5,70.5 C 202.708,69.6909 200.708,69.1909 198.5,69C 199.094,68.5357 199.761,68.369 200.5,68.5C 201.675,68.719 202.675,68.3857 203.5,67.5C 202.873,66.5832 202.539,65.5832 202.5,64.5C 202.167,63.1667 201.833,61.8333 201.5,60.5C 201.639,58.663 202.306,58.3296 203.5,59.5C 205.148,65.9447 207.481,72.1114 210.5,78C 209.552,78.4828 208.552,78.6495 207.5,78.5C 207.02,75.5568 206.02,72.8902 204.5,70.5 Z"/></g>
<g><path style="opacity:1" fill="#626a39" d="M 217.5,60.5 C 217.5,62.5 217.5,64.5 217.5,66.5C 219.591,66.6816 221.591,66.3482 223.5,65.5C 224.386,66.325 224.719,67.325 224.5,68.5C 222.167,68.5 219.833,68.5 217.5,68.5C 217.5,71.5 217.5,74.5 217.5,77.5C 220.187,77.3359 222.854,77.5026 225.5,78C 222.518,78.498 219.518,78.6646 216.5,78.5C 216.177,72.31 216.51,66.31 217.5,60.5 Z"/></g>
<g><path style="opacity:1" fill="#484f27" d="M 304.5,58.5 C 308.226,58.1774 311.893,58.5108 315.5,59.5C 313.013,59.7824 310.347,59.7824 307.5,59.5C 307.5,61.8333 307.5,64.1667 307.5,66.5C 315.5,67.1667 315.5,67.8333 307.5,68.5C 307.5,71.5 307.5,74.5 307.5,77.5C 310.249,77.7261 312.916,77.3928 315.5,76.5C 316.773,77.2565 316.773,77.9232 315.5,78.5C 311.833,78.5 308.167,78.5 304.5,78.5C 304.5,71.8333 304.5,65.1667 304.5,58.5 Z"/></g>
<g><path style="opacity:1" fill="#676f3f" d="M 406.5,60.5 C 406.5,62.5 406.5,64.5 406.5,66.5C 414.5,67.1667 414.5,67.8333 406.5,68.5C 406.5,71.5 406.5,74.5 406.5,77.5C 409.059,77.8016 411.393,77.4682 413.5,76.5C 415.424,76.7107 415.757,77.3774 414.5,78.5C 411.5,78.5 408.5,78.5 405.5,78.5C 405.177,72.31 405.51,66.31 406.5,60.5 Z"/></g>
<g><path style="opacity:1" fill="#bfc88c" d="M 202.5,64.5 C 202.539,65.5832 202.873,66.5832 203.5,67.5C 202.675,68.3857 201.675,68.719 200.5,68.5C 200.229,66.6203 200.896,65.287 202.5,64.5 Z"/></g>
<g><path style="opacity:1" fill="#212605" d="M 403.5,58.5 C 406.5,58.5 409.5,58.5 412.5,58.5C 410.5,59.1667 408.5,59.8333 406.5,60.5C 405.51,66.31 405.177,72.31 405.5,78.5C 403.541,72.2504 402.874,65.5837 403.5,58.5 Z"/></g>
<g><path style="opacity:1" fill="#3e4033" d="M 13.5,68.5 C 17.0338,71.1894 19.8671,74.1894 22,77.5C 18.2637,75.2663 15.4304,72.2663 13.5,68.5 Z"/></g>
<g><path style="opacity:1" fill="#5b613d" d="M 24.5,61.5 C 24.19,64.7131 24.5233,67.7131 25.5,70.5C 25.44,71.0431 25.1067,71.3764 24.5,71.5C 23.1944,68.0202 23.1944,64.6868 24.5,61.5 Z"/></g>
<g><path style="opacity:1" fill="#595f39" d="M 421.5,77.5 C 420.672,71.6807 420.172,65.6807 420,59.5C 419.5,65.8246 419.334,72.1579 419.5,78.5C 418.509,72.021 418.176,65.3543 418.5,58.5C 419.5,58.5 420.5,58.5 421.5,58.5C 421.5,64.8333 421.5,71.1667 421.5,77.5 Z"/></g>
<g><path style="opacity:1" fill="#3c421d" d="M 507.5,60.5 C 509.306,66.5854 511.306,72.5854 513.5,78.5C 512.5,78.5 511.5,78.5 510.5,78.5C 510.44,75.6592 509.774,72.9925 508.5,70.5C 506.5,69.8333 504.5,69.1667 502.5,68.5C 502.584,65.6726 503.25,63.006 504.5,60.5C 505.5,59.1667 506.5,59.1667 507.5,60.5 Z"/></g>
<g><path style="opacity:1" fill="#b6c087" d="M 504.5,64.5 C 506.121,64.7869 507.121,65.7869 507.5,67.5C 506.167,68.8333 504.833,68.8333 503.5,67.5C 504.127,66.5832 504.461,65.5832 504.5,64.5 Z"/></g>
<g><path style="opacity:1" fill="#1d2208" d="M 421.5,77.5 C 424.713,77.19 427.713,77.5233 430.5,78.5C 426.833,78.5 423.167,78.5 419.5,78.5C 419.334,72.1579 419.5,65.8246 420,59.5C 420.172,65.6807 420.672,71.6807 421.5,77.5 Z"/></g>
<g><path style="opacity:1" fill="#444738" d="M 161.5,69.5 C 162.239,69.369 162.906,69.5357 163.5,70C 160.945,73.2593 157.945,75.5926 154.5,77C 157.039,74.6303 159.372,72.1303 161.5,69.5 Z"/></g>
<g><path style="opacity:1" fill="#a0aa6e" d="M 230.5,58.5 C 230.17,65.1998 230.503,71.8665 231.5,78.5C 232.167,75.1667 232.833,71.8333 233.5,68.5C 235.689,70.8867 237.356,73.5534 238.5,76.5C 237.292,75.7659 235.959,75.4326 234.5,75.5C 234.5,76.8333 234.5,78.1667 234.5,79.5C 232.833,79.5 231.167,79.5 229.5,79.5C 229.175,72.3134 229.509,65.3134 230.5,58.5 Z"/></g>
<g><path style="opacity:1" fill="#303717" d="M 230.5,58.5 C 232.735,58.2053 234.735,58.5386 236.5,59.5C 238.38,59.2291 239.713,59.8958 240.5,61.5C 240.66,63.1992 240.494,64.8659 240,66.5C 238.764,67.3992 237.93,68.5659 237.5,70C 238.789,72.7412 240.455,75.2412 242.5,77.5C 242.043,78.2975 241.376,78.6309 240.5,78.5C 240.167,77.5 239.5,76.8333 238.5,76.5C 237.356,73.5534 235.689,70.8867 233.5,68.5C 232.833,71.8333 232.167,75.1667 231.5,78.5C 230.503,71.8665 230.17,65.1998 230.5,58.5 Z"/></g>
<g><path style="opacity:1" fill="#b5c080" d="M 236.5,59.5 C 239.916,64.487 238.582,67.1537 232.5,67.5C 232.5,64.8333 232.5,62.1667 232.5,59.5C 233.833,59.5 235.167,59.5 236.5,59.5 Z"/></g>
<g><path style="opacity:1" fill="#2c3214" d="M 248.5,62.5 C 249.167,62.5 249.5,62.8333 249.5,63.5C 247.646,68.5442 248.646,72.8775 252.5,76.5C 252.5,77.1667 252.167,77.5 251.5,77.5C 247.132,74.7263 245.465,70.7263 246.5,65.5C 246.932,64.2905 247.599,63.2905 248.5,62.5 Z"/></g>
<g><path style="opacity:1" fill="#464d25" d="M 391.5,58.5 C 393.868,59.783 396.035,61.4497 398,63.5C 400.241,73.4056 396.408,78.4056 386.5,78.5C 386.5,78.1667 386.5,77.8333 386.5,77.5C 385.672,71.6807 385.172,65.6807 385,59.5C 384.5,65.8246 384.334,72.1579 384.5,78.5C 384.167,78.5 383.833,78.5 383.5,78.5C 383.5,71.8333 383.5,65.1667 383.5,58.5C 386.167,58.5 388.833,58.5 391.5,58.5 Z"/></g>
<g><path style="opacity:1" fill="#171c01" d="M 386.5,77.5 C 386.5,77.8333 386.5,78.1667 386.5,78.5C 385.833,78.5 385.167,78.5 384.5,78.5C 384.334,72.1579 384.5,65.8246 385,59.5C 385.172,65.6807 385.672,71.6807 386.5,77.5 Z"/></g>
<g><path style="opacity:1" fill="#c4d087" d="M 386.5,77.5 C 386.5,71.5 386.5,65.5 386.5,59.5C 396.945,61.5504 399.278,67.0504 393.5,76C 391.26,76.977 388.927,77.477 386.5,77.5 Z"/></g>
<g><path style="opacity:1" fill="#68713d" d="M 502.5,68.5 C 504.5,69.1667 506.5,69.8333 508.5,70.5C 502.753,69.9532 500.087,72.6199 500.5,78.5C 499.508,78.6716 498.842,78.3382 498.5,77.5C 499.075,74.0884 500.408,71.0884 502.5,68.5 Z"/></g>
<g><path style="opacity:1" fill="#3c4221" d="M 481.5,58.5 C 485.215,58.1961 488.715,58.8627 492,60.5C 492.667,62.5 492.667,64.5 492,66.5C 490.513,67.1552 489.347,68.1552 488.5,69.5C 490.422,71.6866 492.088,74.0199 493.5,76.5C 494.969,78.1053 494.635,78.6053 492.5,78C 490.12,74.7424 487.62,71.5758 485,68.5C 484.502,71.8168 484.335,75.1501 484.5,78.5C 483.5,78.5 482.5,78.5 481.5,78.5C 481.5,71.8333 481.5,65.1667 481.5,58.5 Z"/></g>
<g><path style="opacity:1" fill="#bbc686" d="M 484.5,59.5 C 490.501,59.7414 491.834,62.2414 488.5,67C 487.207,67.49 485.873,67.6567 484.5,67.5C 484.5,64.8333 484.5,62.1667 484.5,59.5 Z"/></g>
<g><path style="opacity:1" fill="#b4bf7d" d="M 450.5,58.5 C 450.5,65.1667 450.5,71.8333 450.5,78.5C 453.518,78.6646 456.518,78.498 459.5,78C 463.044,75.1268 463.377,71.9601 460.5,68.5C 462.124,68.3601 463.29,69.0267 464,70.5C 463.898,66.0442 464.732,62.0442 466.5,58.5C 466.5,58.8333 466.5,59.1667 466.5,59.5C 465.877,66.2547 466.544,72.588 468.5,78.5C 471.972,78.8404 474.639,78.507 476.5,77.5C 477.716,77.2642 478.883,77.2642 480,77.5C 480.172,70.9867 480.672,64.6534 481.5,58.5C 481.5,65.1667 481.5,71.8333 481.5,78.5C 482.5,78.5 483.5,78.5 484.5,78.5C 484.335,75.1501 484.502,71.8168 485,68.5C 487.62,71.5758 490.12,74.7424 492.5,78C 494.635,78.6053 494.969,78.1053 493.5,76.5C 495.117,77.038 496.784,77.3713 498.5,77.5C 498.842,78.3382 499.508,78.6716 500.5,78.5C 492.497,78.1846 484.331,78.5179 476,79.5C 471.523,79.4042 467.19,78.7375 463,77.5C 458.759,80.379 454.259,81.379 449.5,80.5C 449.175,72.9809 449.508,65.6476 450.5,58.5 Z"/></g>
<g><path style="opacity:1" fill="#21260e" d="M 466.5,59.5 C 468.456,65.412 469.123,71.7453 468.5,78.5C 466.544,72.588 465.877,66.2547 466.5,59.5 Z"/></g>
<g><path style="opacity:1" fill="#5f6736" d="M 466.5,59.5 C 466.5,59.1667 466.5,58.8333 466.5,58.5C 470.226,58.1774 473.893,58.5108 477.5,59.5C 475.013,59.7824 472.347,59.7824 469.5,59.5C 469.5,61.8333 469.5,64.1667 469.5,66.5C 477.5,67.1667 477.5,67.8333 469.5,68.5C 469.5,71.5 469.5,74.5 469.5,77.5C 471.833,77.5 474.167,77.5 476.5,77.5C 474.639,78.507 471.972,78.8404 468.5,78.5C 469.123,71.7453 468.456,65.412 466.5,59.5 Z"/></g>
<g><path style="opacity:1" fill="#49502a" d="M 450.5,58.5 C 453.649,58.2114 456.649,58.7114 459.5,60C 460.097,62.9517 460.43,65.7851 460.5,68.5C 463.377,71.9601 463.044,75.1268 459.5,78C 456.518,78.498 453.518,78.6646 450.5,78.5C 450.5,71.8333 450.5,65.1667 450.5,58.5 Z"/></g>
<g><path style="opacity:1" fill="#c5d08b" d="M 453.5,68.5 C 459.643,69.0262 460.976,71.8595 457.5,77C 456.207,77.49 454.873,77.6567 453.5,77.5C 453.5,74.5 453.5,71.5 453.5,68.5 Z"/></g>
<g><path style="opacity:1" fill="#bdc886" d="M 453.5,60.5 C 458.159,60.0146 459.492,61.848 457.5,66C 456.207,66.49 454.873,66.6567 453.5,66.5C 453.5,64.5 453.5,62.5 453.5,60.5 Z"/></g>
<g><path style="opacity:1" fill="#575f30" d="M 264.5,66.5 C 265.167,68.1667 265.833,69.8333 266.5,71.5C 263.41,78.3068 258.41,80.3068 251.5,77.5C 252.167,77.5 252.5,77.1667 252.5,76.5C 260.961,78.7142 264.961,75.3809 264.5,66.5 Z"/></g>
<g><path style="opacity:1" fill="#40481f" d="M 363.5,60.5 C 363.5,59.8333 363.833,59.5 364.5,59.5C 371.011,63.5153 372.178,68.8486 368,75.5C 363.078,79.1012 357.911,79.4345 352.5,76.5C 351.928,74.7446 351.094,73.0779 350,71.5C 349.211,69.2884 349.378,67.2884 350.5,65.5C 351.167,67.1667 351.833,68.8333 352.5,70.5C 354.362,76.9302 358.362,78.7635 364.5,76C 369.975,70.4808 369.641,65.3141 363.5,60.5 Z"/></g>
<g><path style="opacity:1" fill="#adb680" d="M 140.5,68.5 C 142.238,74.1271 145.572,78.6271 150.5,82C 149.519,84.6198 148.353,87.1198 147,89.5C 146.647,83.9191 144.48,79.2524 140.5,75.5C 141.103,73.3743 141.103,71.0409 140.5,68.5 Z"/></g>
<g><path style="opacity:1" fill="#afb880" d="M 163.5,78.5 C 163.063,80.0744 162.063,81.2411 160.5,82C 158.285,82.1705 156.285,82.8372 154.5,84C 158.167,84.3333 161.833,84.6667 165.5,85C 167.18,87.8108 166.513,89.6441 163.5,90.5C 163.539,89.4168 163.873,88.4168 164.5,87.5C 159.563,85.7735 155.063,86.4402 151,89.5C 151.153,86.8262 151.653,84.1595 152.5,81.5C 156.412,81.3757 160.079,80.3757 163.5,78.5 Z"/></g>
<g><path style="opacity:1" fill="#98a16f" d="M 20.5,81.5 C 22.1439,81.2865 23.6439,81.6198 25,82.5C 25.346,84.2182 25.846,85.8849 26.5,87.5C 26.1667,87.8333 25.8333,88.1667 25.5,88.5C 21.1457,86.4554 16.8124,86.122 12.5,87.5C 11.9569,87.44 11.6236,87.1067 11.5,86.5C 15.4454,85.5091 19.4454,85.1758 23.5,85.5C 23.5,84.5 23.5,83.5 23.5,82.5C 22.209,82.7373 21.209,82.404 20.5,81.5 Z"/></g>
<g><path style="opacity:1" fill="#3a3c2f" d="M 34.5,82.5 C 35.9113,86.3572 35.2446,90.0239 32.5,93.5C 32.1667,93 31.8333,92.5 31.5,92C 32.6072,88.8462 33.6072,85.6795 34.5,82.5 Z"/></g>
<g><path style="opacity:1" fill="#b4bd85" d="M 40.5,82.5 C 41.4511,83.9187 41.7845,85.5853 41.5,87.5C 42.5,87.5 43.5,87.5 44.5,87.5C 42.6418,89.8831 41.3084,92.5498 40.5,95.5C 40.5,95.8333 40.5,96.1667 40.5,96.5C 39.8333,98.8333 39.1667,101.167 38.5,103.5C 36.9019,101.302 35.5686,98.9687 34.5,96.5C 39.2086,93.0747 41.2086,88.4081 40.5,82.5 Z"/></g>
<g><path style="opacity:1" fill="#222517" d="M 131.5,88.5 C 133.411,88.5743 134.578,89.5743 135,91.5C 136.616,95.3466 137.616,99.3466 138,103.5C 140.582,101.772 142.082,99.4389 142.5,96.5C 145.831,98.2976 149.498,98.9643 153.5,98.5C 150.311,99.1661 146.977,99.8328 143.5,100.5C 142.833,101.5 142.167,102.5 141.5,103.5C 145.313,104.167 148.979,104.834 152.5,105.5C 147.12,105.676 141.787,105.342 136.5,104.5C 136.819,102.25 136.319,100.25 135,98.5C 134.61,109.581 133.777,109.915 132.5,99.5C 132.667,97.8333 132.833,96.1667 133,94.5C 133.654,95.6956 134.154,95.6956 134.5,94.5C 133.311,93.5713 131.978,93.238 130.5,93.5C 129.373,95.9977 128.706,98.6644 128.5,101.5C 129.426,104.47 130.092,107.47 130.5,110.5C 127.886,107.032 126.886,103.032 127.5,98.5C 128.276,94.9475 129.609,91.6142 131.5,88.5 Z"/></g>
<g><path style="opacity:1" fill="#4e5140" d="M 18.5,90.5 C 18.7352,89.9033 19.2352,89.5699 20,89.5C 23.258,90.8797 26.4247,92.3797 29.5,94C 25.7166,93.4549 22.05,92.2883 18.5,90.5 Z"/></g>
<g><path style="opacity:1" fill="#212218" d="M 44.5,87.5 C 48.8552,92.5476 50.5219,98.2143 49.5,104.5C 49.7204,101.6 49.0538,98.9329 47.5,96.5C 46.5134,99.9901 45.18,103.657 43.5,107.5C 42.6725,103.204 42.1725,98.8711 42,94.5C 41.6174,95.056 41.1174,95.3893 40.5,95.5C 41.3084,92.5498 42.6418,89.8831 44.5,87.5 Z"/></g>
<g><path style="opacity:1" fill="#b3bd81" d="M 140.5,75.5 C 139.5,75.5 138.5,75.5 137.5,75.5C 136.705,80.1493 136.539,84.8159 137,89.5C 138.371,92.2661 140.204,94.5994 142.5,96.5C 142.082,99.4389 140.582,101.772 138,103.5C 137.616,99.3466 136.616,95.3466 135,91.5C 134.578,89.5743 133.411,88.5743 131.5,88.5C 131.821,86.9519 132.821,86.2852 134.5,86.5C 134.987,82.1328 135.653,77.7995 136.5,73.5C 138.38,73.2291 139.713,73.8958 140.5,75.5 Z"/></g>
<g><path style="opacity:1" fill="#494d35" d="M 40.5,96.5 C 40.8134,99.2469 40.48,101.914 39.5,104.5C 38.8933,104.376 38.56,104.043 38.5,103.5C 39.1667,101.167 39.8333,98.8333 40.5,96.5 Z"/></g>
<g><path style="opacity:1" fill="#636a42" d="M 121.5,39.5 C 121.5,44.8333 121.5,50.1667 121.5,55.5C 119.782,77.1168 109.782,93.6168 91.5,105C 88.2171,105.743 85.2171,105.076 82.5,103C 78.6295,99.2977 74.9629,95.4643 71.5,91.5C 71.5,89.8333 71.5,88.1667 71.5,86.5C 74.9352,90.4379 78.6019,94.2712 82.5,98C 85.0699,100.459 88.0699,101.459 91.5,101C 102.536,93.3093 110.536,83.476 115.5,71.5C 116.232,70.1917 117.066,68.8584 118,67.5C 118.406,57.7777 119.572,48.4444 121.5,39.5 Z"/></g>
<g><path style="opacity:1" fill="#2d321a" d="M 34.5,96.5 C 35.5686,98.9687 36.9019,101.302 38.5,103.5C 33.4682,105.37 28.1348,106.037 22.5,105.5C 26.6845,104.834 31.0178,104.167 35.5,103.5C 34.9598,102.252 34.2931,101.085 33.5,100C 30.6353,99.8171 27.9686,99.3171 25.5,98.5C 28.8555,98.9086 31.8555,98.2419 34.5,96.5 Z"/></g>
<g><path style="opacity:1" fill="#aeb87d" d="M 42.5,119.5 C 42.8039,118.85 43.1373,118.183 43.5,117.5C 39.6875,116.833 36.0208,116.166 32.5,115.5C 36.996,115.562 41.3293,115.062 45.5,114C 47.1667,115.667 48.8333,117.333 50.5,119C 47.854,119.497 45.1873,119.664 42.5,119.5 Z"/></g>
<g><path style="opacity:1" fill="#abb57a" d="M 155.5,107.5 C 154.577,110.838 152.577,113.338 149.5,115C 143.883,116.052 138.216,116.718 132.5,117C 135.968,117.23 138.634,118.73 140.5,121.5C 135.972,120.051 131.305,119.217 126.5,119C 128.47,116.684 130.804,114.851 133.5,113.5C 136.67,115.195 140.004,115.695 143.5,115C 148,113.253 152,110.753 155.5,107.5 Z"/></g>
<g><path style="opacity:1" fill="#0f1109" d="M 152.5,105.5 C 154.179,105.285 155.179,105.952 155.5,107.5C 152,110.753 148,113.253 143.5,115C 140.004,115.695 136.67,115.195 133.5,113.5C 130.804,114.851 128.47,116.684 126.5,119C 131.305,119.217 135.972,120.051 140.5,121.5C 142.465,121.948 142.798,122.948 141.5,124.5C 138.327,126.587 134.994,128.421 131.5,130C 125.626,131.395 120.626,129.895 116.5,125.5C 115.099,126.521 113.765,127.521 112.5,128.5C 111.325,128.281 110.325,128.614 109.5,129.5C 112.026,130.897 114.692,131.897 117.5,132.5C 119.883,133.885 121.55,135.885 122.5,138.5C 116.848,139.302 111.182,139.469 105.5,139C 102.946,136.937 100.28,135.103 97.5,133.5C 96.263,133.556 95.263,134.056 94.5,135C 97.6293,136.399 100.629,138.065 103.5,140C 104.252,140.671 104.586,141.504 104.5,142.5C 99.2958,140.319 93.9624,138.319 88.5,136.5C 82.7381,137.529 77.4048,139.529 72.5,142.5C 72.4142,141.504 72.7476,140.671 73.5,140C 76.5,138.333 79.5,136.667 82.5,135C 81.3914,134.362 80.2247,133.862 79,133.5C 76.5515,134.944 74.3848,136.778 72.5,139C 68.5138,139.499 64.5138,139.666 60.5,139.5C 59.7375,138.732 58.7375,138.232 57.5,138C 56.7476,137.329 56.4142,136.496 56.5,135.5C 59.0537,132.295 62.387,130.295 66.5,129.5C 64.5,128.167 62.5,126.833 60.5,125.5C 56.2648,129.523 51.2648,131.023 45.5,130C 41.8333,127.833 38.1667,125.667 34.5,123.5C 36.4981,120.986 39.1648,119.653 42.5,119.5C 45.1873,119.664 47.854,119.497 50.5,119C 48.8333,117.333 47.1667,115.667 45.5,114C 41.3293,115.062 36.996,115.562 32.5,115.5C 28.4753,113.714 24.9753,111.048 22,107.5C 21.3083,106.563 21.475,105.897 22.5,105.5C 28.1348,106.037 33.4682,105.37 38.5,103.5C 38.56,104.043 38.8933,104.376 39.5,104.5C 40.48,101.914 40.8134,99.2469 40.5,96.5C 40.5,96.1667 40.5,95.8333 40.5,95.5C 41.1174,95.3893 41.6174,95.056 42,94.5C 42.1725,98.8711 42.6725,103.204 43.5,107.5C 45.18,103.657 46.5134,99.9901 47.5,96.5C 49.0538,98.9329 49.7204,101.6 49.5,104.5C 48.7878,106.928 47.7878,109.261 46.5,111.5C 48.1901,114.024 50.3568,116.024 53,117.5C 53.4828,116.552 53.6495,115.552 53.5,114.5C 53.2338,110.395 53.7338,106.395 55,102.5C 55.6708,101.748 56.5041,101.414 57.5,101.5C 59.9501,103.629 61.6167,106.296 62.5,109.5C 63.6692,114.579 63.6692,119.412 62.5,124C 70.5548,129.604 72.0548,128.437 67,120.5C 66.502,117.518 66.3354,114.518 66.5,111.5C 66.8966,110.475 67.5632,110.308 68.5,111C 71.9646,113.463 75.1312,116.296 78,119.5C 79.0294,123.429 79.8627,127.429 80.5,131.5C 86.1406,133.91 91.8072,133.91 97.5,131.5C 98.0301,126.673 99.3635,122.006 101.5,117.5C 103.379,114.885 105.712,112.719 108.5,111C 109.437,110.308 110.103,110.475 110.5,111.5C 110.921,116.633 109.921,121.466 107.5,126C 107.833,126.5 108.167,127 108.5,127.5C 111.047,126.066 113.381,124.4 115.5,122.5C 113.87,119.724 113.203,116.724 113.5,113.5C 114.892,108.266 117.392,103.599 121,99.5C 122.947,101.063 124.114,103.063 124.5,105.5C 124.177,109.226 124.511,112.893 125.5,116.5C 127.938,115.069 129.604,113.069 130.5,110.5C 130.092,107.47 129.426,104.47 128.5,101.5C 128.706,98.6644 129.373,95.9977 130.5,93.5C 131.978,93.238 133.311,93.5713 134.5,94.5C 134.154,95.6956 133.654,95.6956 133,94.5C 132.833,96.1667 132.667,97.8333 132.5,99.5C 133.777,109.915 134.61,109.581 135,98.5C 136.319,100.25 136.819,102.25 136.5,104.5C 141.787,105.342 147.12,105.676 152.5,105.5 Z"/></g>
<g><path style="opacity:1" fill="#aab37d" d="M 127.5,98.5 C 126.886,103.032 127.886,107.032 130.5,110.5C 129.604,113.069 127.938,115.069 125.5,116.5C 124.511,112.893 124.177,109.226 124.5,105.5C 126.02,103.412 127.02,101.078 127.5,98.5 Z"/></g>
<g><path style="opacity:1" fill="#5a5d4a" d="M 120.5,106.5 C 121.614,110.709 121.447,115.042 120,119.5C 119.466,115.141 119.632,110.808 120.5,106.5 Z"/></g>
<g><path style="opacity:1" fill="#4d503e" d="M 55.5,106.5 C 57.3057,110.912 58.139,115.579 58,120.5C 56.2057,116.073 55.3724,111.406 55.5,106.5 Z"/></g>
<g><path style="opacity:1" fill="#2f3417" d="M 57.5,101.5 C 56.5041,101.414 55.6708,101.748 55,102.5C 53.7338,106.395 53.2338,110.395 53.5,114.5C 52.3567,111.024 52.1901,107.358 53,103.5C 53.6152,101.884 54.6152,100.551 56,99.5C 56.7172,100.044 57.2172,100.711 57.5,101.5 Z"/></g>
<g><path style="opacity:1" fill="#585b49" d="M 143.5,107.5 C 145.199,107.34 146.866,107.506 148.5,108C 144.892,109.323 141.225,109.989 137.5,110C 139.611,109.155 141.611,108.322 143.5,107.5 Z"/></g>
<g><path style="opacity:1" fill="#5c5e4d" d="M 27.5,108.5 C 31.8086,107.468 36.142,107.968 40.5,110C 36.1677,109.837 31.8343,109.337 27.5,108.5 Z"/></g>
<g><path style="opacity:1" fill="#b5bf83" d="M 62.5,109.5 C 63.6049,110.6 64.9382,111.267 66.5,111.5C 66.3354,114.518 66.502,117.518 67,120.5C 72.0548,128.437 70.5548,129.604 62.5,124C 63.6692,119.412 63.6692,114.579 62.5,109.5 Z"/></g>
<g><path style="opacity:1" fill="#b2bb83" d="M 110.5,111.5 C 111.5,112.167 112.5,112.833 113.5,113.5C 113.203,116.724 113.87,119.724 115.5,122.5C 113.381,124.4 111.047,126.066 108.5,127.5C 108.167,127 107.833,126.5 107.5,126C 109.921,121.466 110.921,116.633 110.5,111.5 Z"/></g>
<g><path style="opacity:1" fill="#505637" d="M 101.5,117.5 C 99.3635,122.006 98.0301,126.673 97.5,131.5C 97.335,128.15 97.5017,124.817 98,121.5C 98.66,119.676 99.8267,118.343 101.5,117.5 Z"/></g>
<g><path style="opacity:1" fill="#939a6e" d="M 112.5,128.5 C 114.389,129.604 116.055,130.937 117.5,132.5C 114.692,131.897 112.026,130.897 109.5,129.5C 110.325,128.614 111.325,128.281 112.5,128.5 Z"/></g>
<g><path style="opacity:1" fill="#4a4d3d" d="M 69.5,131.5 C 70.8734,131.343 72.2068,131.51 73.5,132C 69.5892,133.644 65.5892,134.644 61.5,135C 64.3093,133.907 66.976,132.74 69.5,131.5 Z"/></g>
<g><path style="opacity:1" fill="#4a4d3d" d="M 104.5,132.5 C 104.735,131.903 105.235,131.57 106,131.5C 108.5,132.333 111,133.167 113.5,134C 110.376,134.303 107.376,133.803 104.5,132.5 Z"/></g>
<g><path style="opacity:1" fill="#969e6e" d="M 122.5,138.5 C 122.389,139.117 122.056,139.617 121.5,140C 115.626,140.038 109.959,140.871 104.5,142.5C 104.586,141.504 104.252,140.671 103.5,140C 100.629,138.065 97.6293,136.399 94.5,135C 95.263,134.056 96.263,133.556 97.5,133.5C 100.28,135.103 102.946,136.937 105.5,139C 111.182,139.469 116.848,139.302 122.5,138.5 Z"/></g>
<g><path style="opacity:1" fill="#90976a" d="M 72.5,142.5 C 68.6205,140.977 64.6205,139.977 60.5,139.5C 64.5138,139.666 68.5138,139.499 72.5,139C 74.3848,136.778 76.5515,134.944 79,133.5C 80.2247,133.862 81.3914,134.362 82.5,135C 79.5,136.667 76.5,138.333 73.5,140C 72.7476,140.671 72.4142,141.504 72.5,142.5 Z"/></g>
<g><path style="opacity:1" fill="#424827" d="M 56.5,135.5 C 56.4142,136.496 56.7476,137.329 57.5,138C 58.7375,138.232 59.7375,138.732 60.5,139.5C 58.1727,139.753 56.1727,139.086 54.5,137.5C 54.8555,136.478 55.5222,135.811 56.5,135.5 Z"/></g>
</svg>
