<?xml version="1.0" encoding="UTF-8"?>
<!DOCTYPE svg PUBLIC "-//W3C//DTD SVG 1.1//EN" "http://www.w3.org/Graphics/SVG/1.1/DTD/svg11.dtd">
<svg xmlns="http://www.w3.org/2000/svg" version="1.1" width="1506px" height="160px" style="shape-rendering:geometricPrecision; text-rendering:geometricPrecision; image-rendering:optimizeQuality; fill-rule:evenodd; clip-rule:evenodd" xmlns:xlink="http://www.w3.org/1999/xlink">
<g><path style="opacity:1" fill="#c9d687" d="M -0.5,-0.5 C 37.8333,-0.5 76.1667,-0.5 114.5,-0.5C 114.5,0.5 114.5,1.5 114.5,2.5C 112.219,2.07729 110.552,2.74395 109.5,4.5C 113.923,4.30955 118.256,3.64288 122.5,2.5C 122.5,1.5 122.5,0.5 122.5,-0.5C 123.833,-0.5 125.167,-0.5 126.5,-0.5C 126.5,0.5 126.5,1.5 126.5,2.5C 128.167,2.5 129.833,2.5 131.5,2.5C 131.5,1.5 131.5,0.5 131.5,-0.5C 330.5,-0.5 529.5,-0.5 728.5,-0.5C 728.5,1.16667 728.5,2.83333 728.5,4.5C 726.833,4.5 725.167,4.5 723.5,4.5C 723.5,5.5 723.5,6.5 723.5,7.5C 719.167,7.5 714.833,7.5 710.5,7.5C 710.5,8.5 710.5,9.5 710.5,10.5C 711.833,10.5 713.167,10.5 714.5,10.5C 714.5,12.1667 714.5,13.8333 714.5,15.5C 709.145,15.1263 703.812,14.4596 698.5,13.5C 695.039,13.801 691.706,14.4676 688.5,15.5C 688.5,16.5 688.5,17.5 688.5,18.5C 685.167,18.5 681.833,18.5 678.5,18.5C 678.5,20.5 678.5,22.5 678.5,24.5C 669.115,24.5802 659.782,25.2469 650.5,26.5C 650.5,27.5 650.5,28.5 650.5,29.5C 647.833,29.5 645.167,29.5 642.5,29.5C 642.5,31.5 642.5,33.5 642.5,35.5C 639.167,35.5 635.833,35.5 632.5,35.5C 632.5,38.1667 632.5,40.8333 632.5,43.5C 625.167,43.5 617.833,43.5 610.5,43.5C 610.5,44.5 610.5,45.5 610.5,46.5C 601.276,48.2001 591.943,48.8668 582.5,48.5C 582.5,49.5 582.5,50.5 582.5,51.5C 584.167,51.5 585.833,51.5 587.5,51.5C 587.5,52.5 587.5,53.5 587.5,54.5C 587.5,56.1667 587.5,57.8333 587.5,59.5C 593.5,59.5 599.5,59.5 605.5,59.5C 605.5,57.8333 605.5,56.1667 605.5,54.5C 605.5,53.5 605.5,52.5 605.5,51.5C 607.167,51.5 608.833,51.5 610.5,51.5C 610.5,50.5 610.5,49.5 610.5,48.5C 621.189,48.1269 631.856,47.4603 642.5,46.5C 642.5,48.1667 642.5,49.8333 642.5,51.5C 640.833,51.5 639.167,51.5 637.5,51.5C 637.5,52.5 637.5,53.5 637.5,54.5C 634.5,54.5 631.5,54.5 628.5,54.5C 628.5,55.5 628.5,56.5 628.5,57.5C 623.167,58.1667 623.167,58.8333 628.5,59.5C 628.5,61.5 628.5,63.5 628.5,65.5C 627.167,65.5 625.833,65.5 624.5,65.5C 624.5,67.1667 624.5,68.8333 624.5,70.5C 624.5,71.5 624.5,72.5 624.5,73.5C 623.167,73.5 621.833,73.5 620.5,73.5C 620.5,74.5 620.5,75.5 620.5,76.5C 615.5,76.5 610.5,76.5 605.5,76.5C 605.5,78.1667 605.5,79.8333 605.5,81.5C 608.833,81.5 612.167,81.5 615.5,81.5C 615.5,83.5 615.5,85.5 615.5,87.5C 618.5,87.5 621.5,87.5 624.5,87.5C 624.5,86.5 624.5,85.5 624.5,84.5C 625.833,84.5 627.167,84.5 628.5,84.5C 628.5,83.5 628.5,82.5 628.5,81.5C 633.266,81.4024 637.933,80.7357 642.5,79.5C 642.5,78.5 642.5,77.5 642.5,76.5C 646.833,76.5 651.167,76.5 655.5,76.5C 655.5,77.5 655.5,78.5 655.5,79.5C 661.5,79.5 667.5,79.5 673.5,79.5C 673.5,78.5 673.5,77.5 673.5,76.5C 678.5,76.5 683.5,76.5 688.5,76.5C 688.5,73.8333 688.5,71.1667 688.5,68.5C 688.5,67.5 688.5,66.5 688.5,65.5C 689.5,65.5 690.5,65.5 691.5,65.5C 691.5,63.5 691.5,61.5 691.5,59.5C 690.5,59.5 689.5,59.5 688.5,59.5C 688.5,57.8333 688.5,56.1667 688.5,54.5C 686.833,54.5 685.167,54.5 683.5,54.5C 683.5,53.5 683.5,52.5 683.5,51.5C 685.167,51.5 686.833,51.5 688.5,51.5C 688.5,50.5 688.5,49.5 688.5,48.5C 697.011,46.6881 705.678,46.0214 714.5,46.5C 714.5,45.5 714.5,44.5 714.5,43.5C 717.5,43.5 720.5,43.5 723.5,43.5C 723.5,44.5 723.5,45.5 723.5,46.5C 726.167,46.5 728.833,46.5 731.5,46.5C 731.5,45.5 731.5,44.5 731.5,43.5C 738.167,43.5 744.833,43.5 751.5,43.5C 751.5,39.8333 751.5,36.1667 751.5,32.5C 752.5,32.5 753.5,32.5 754.5,32.5C 754.5,31.5 754.5,30.5 754.5,29.5C 757.833,29.5 761.167,29.5 764.5,29.5C 764.5,30.5 764.5,31.5 764.5,32.5C 766.167,32.5 767.833,32.5 769.5,32.5C 769.5,27.8333 769.5,23.1667 769.5,18.5C 773.833,18.5 778.167,18.5 782.5,18.5C 782.5,17.5 782.5,16.5 782.5,15.5C 784.167,15.5 785.833,15.5 787.5,15.5C 787.5,11.8333 787.5,8.16667 787.5,4.5C 784.167,3.83333 780.833,3.16667 777.5,2.5C 777.5,1.5 777.5,0.5 777.5,-0.5C 934.167,-0.5 1090.83,-0.5 1247.5,-0.5C 1247.5,0.5 1247.5,1.5 1247.5,2.5C 1241.39,2.36475 1235.39,3.03141 1229.5,4.5C 1229.5,5.5 1229.5,6.5 1229.5,7.5C 1226.5,7.5 1223.5,7.5 1220.5,7.5C 1220.5,9.5 1220.5,11.5 1220.5,13.5C 1216.65,13.1715 1212.98,13.8382 1209.5,15.5C 1208.05,14.7202 1206.55,14.0535 1205,13.5C 1201.66,15.0436 1198.16,15.7102 1194.5,15.5C 1194.5,16.5 1194.5,17.5 1194.5,18.5C 1192.83,18.5 1191.17,18.5 1189.5,18.5C 1189.5,19.5 1189.5,20.5 1189.5,21.5C 1187.83,21.5 1186.17,21.5 1184.5,21.5C 1184.5,22.5 1184.5,23.5 1184.5,24.5C 1178.54,25.4257 1172.54,26.0924 1166.5,26.5C 1166.5,27.5 1166.5,28.5 1166.5,29.5C 1163.17,29.5 1159.83,29.5 1156.5,29.5C 1156.5,31.5 1156.5,33.5 1156.5,35.5C 1153.83,35.5 1151.17,35.5 1148.5,35.5C 1148.5,38.1667 1148.5,40.8333 1148.5,43.5C 1152.83,43.5 1157.17,43.5 1161.5,43.5C 1161.5,45.1667 1161.5,46.8333 1161.5,48.5C 1163.17,48.5 1164.83,48.5 1166.5,48.5C 1166.5,49.5 1166.5,50.5 1166.5,51.5C 1168.17,51.5 1169.83,51.5 1171.5,51.5C 1171.5,50.5 1171.5,49.5 1171.5,48.5C 1173.17,48.5 1174.83,48.5 1176.5,48.5C 1176.5,49.5 1176.5,50.5 1176.5,51.5C 1177.5,51.5 1178.5,51.5 1179.5,51.5C 1179.5,54.1667 1179.5,56.8333 1179.5,59.5C 1178.5,59.5 1177.5,59.5 1176.5,59.5C 1173.17,59.5 1169.83,59.5 1166.5,59.5C 1166.5,62.5 1166.5,65.5 1166.5,68.5C 1163.17,69.1667 1159.83,69.8333 1156.5,70.5C 1156.5,72.5 1156.5,74.5 1156.5,76.5C 1165.83,76.5 1175.17,76.5 1184.5,76.5C 1184.5,77.5 1184.5,78.5 1184.5,79.5C 1186.17,79.5 1187.83,79.5 1189.5,79.5C 1189.5,78.5 1189.5,77.5 1189.5,76.5C 1192.17,76.5 1194.83,76.5 1197.5,76.5C 1197.5,75.5 1197.5,74.5 1197.5,73.5C 1199.17,73.5 1200.83,73.5 1202.5,73.5C 1202.5,72.5 1202.5,71.5 1202.5,70.5C 1205.56,70.0725 1208.56,69.4058 1211.5,68.5C 1211.5,67.5 1211.5,66.5 1211.5,65.5C 1213.17,65.5 1214.83,65.5 1216.5,65.5C 1216.5,62.8333 1216.5,60.1667 1216.5,57.5C 1217.83,57.5 1219.17,57.5 1220.5,57.5C 1220.5,56.5 1220.5,55.5 1220.5,54.5C 1221.83,54.5 1223.17,54.5 1224.5,54.5C 1224.5,53.5 1224.5,52.5 1224.5,51.5C 1227.83,51.5 1231.17,51.5 1234.5,51.5C 1234.5,50.5 1234.5,49.5 1234.5,48.5C 1237.31,48.3067 1239.98,47.64 1242.5,46.5C 1242.5,43.5 1242.5,40.5 1242.5,37.5C 1244.17,37.5 1245.83,37.5 1247.5,37.5C 1247.5,35.8333 1247.5,34.1667 1247.5,32.5C 1249.17,32.5 1250.83,32.5 1252.5,32.5C 1252.5,33.5 1252.5,34.5 1252.5,35.5C 1256.55,35.0775 1260.38,35.7441 1264,37.5C 1265.92,35.9972 1268.09,35.3305 1270.5,35.5C 1270.5,34.5 1270.5,33.5 1270.5,32.5C 1272.17,32.5 1273.83,32.5 1275.5,32.5C 1275.5,33.5 1275.5,34.5 1275.5,35.5C 1277.17,35.5 1278.83,35.5 1280.5,35.5C 1280.5,32.5 1280.5,29.5 1280.5,26.5C 1281.5,26.5 1282.5,26.5 1283.5,26.5C 1283.5,23.8333 1283.5,21.1667 1283.5,18.5C 1285.17,18.5 1286.83,18.5 1288.5,18.5C 1288.5,17.5 1288.5,16.5 1288.5,15.5C 1293.07,14.2643 1297.73,13.5976 1302.5,13.5C 1302.5,12.5 1302.5,11.5 1302.5,10.5C 1300.83,10.5 1299.17,10.5 1297.5,10.5C 1297.5,7.83333 1297.5,5.16667 1297.5,2.5C 1296.17,2.5 1294.83,2.5 1293.5,2.5C 1293.5,1.5 1293.5,0.5 1293.5,-0.5C 1364.17,-0.5 1434.83,-0.5 1505.5,-0.5C 1505.5,30.5 1505.5,61.5 1505.5,92.5C 1502.17,92.5 1498.83,92.5 1495.5,92.5C 1495.5,93.5 1495.5,94.5 1495.5,95.5C 1492.83,95.5 1490.17,95.5 1487.5,95.5C 1487.5,96.5 1487.5,97.5 1487.5,98.5C 1484.17,98.5 1480.83,98.5 1477.5,98.5C 1477.5,99.5 1477.5,100.5 1477.5,101.5C 1471.97,103.067 1466.31,103.734 1460.5,103.5C 1460.5,104.5 1460.5,105.5 1460.5,106.5C 1458.83,106.5 1457.17,106.5 1455.5,106.5C 1455.5,107.5 1455.5,108.5 1455.5,109.5C 1454.17,109.5 1452.83,109.5 1451.5,109.5C 1451.5,110.5 1451.5,111.5 1451.5,112.5C 1450.17,112.5 1448.83,112.5 1447.5,112.5C 1447.5,111.5 1447.5,110.5 1447.5,109.5C 1445.83,109.5 1444.17,109.5 1442.5,109.5C 1442.5,108.5 1442.5,107.5 1442.5,106.5C 1440.83,106.5 1439.17,106.5 1437.5,106.5C 1437.5,110.167 1437.5,113.833 1437.5,117.5C 1435.83,117.5 1434.17,117.5 1432.5,117.5C 1432.5,116.5 1432.5,115.5 1432.5,114.5C 1428.17,114.5 1423.83,114.5 1419.5,114.5C 1419.5,121.833 1419.5,129.167 1419.5,136.5C 1421.17,136.5 1422.83,136.5 1424.5,136.5C 1424.5,137.5 1424.5,138.5 1424.5,139.5C 1426.17,139.5 1427.83,139.5 1429.5,139.5C 1429.5,141.5 1429.5,143.5 1429.5,145.5C 1432.17,145.5 1434.83,145.5 1437.5,145.5C 1437.5,147.167 1437.5,148.833 1437.5,150.5C 1443.5,150.5 1449.5,150.5 1455.5,150.5C 1455.5,151.5 1455.5,152.5 1455.5,153.5C 1461.5,153.5 1467.5,153.5 1473.5,153.5C 1473.5,152.5 1473.5,151.5 1473.5,150.5C 1474.83,150.5 1476.17,150.5 1477.5,150.5C 1477.5,149.5 1477.5,148.5 1477.5,147.5C 1480.83,146.833 1484.17,146.167 1487.5,145.5C 1487.5,144.5 1487.5,143.5 1487.5,142.5C 1490.17,142.5 1492.83,142.5 1495.5,142.5C 1495.5,141.5 1495.5,140.5 1495.5,139.5C 1498.83,139.5 1502.17,139.5 1505.5,139.5C 1505.5,146.167 1505.5,152.833 1505.5,159.5C 1501.17,159.5 1496.83,159.5 1492.5,159.5C 1492.5,158.5 1492.5,157.5 1492.5,156.5C 1474.91,155.904 1457.41,156.571 1440,158.5C 1433.27,156.364 1426.44,156.031 1419.5,157.5C 1421.29,158.17 1422.96,158.837 1424.5,159.5C 1303.83,159.5 1183.17,159.5 1062.5,159.5C 1064.04,158.837 1065.71,158.17 1067.5,157.5C 1046.5,157.167 1025.5,156.833 1004.5,156.5C 982.593,156.527 960.759,157.193 939,158.5C 930.258,155.72 921.758,156.053 913.5,159.5C 791.5,159.5 669.5,159.5 547.5,159.5C 547.5,159.167 547.5,158.833 547.5,158.5C 499.214,156.589 450.881,155.922 402.5,156.5C 402.5,157.5 402.5,158.5 402.5,159.5C 279.167,159.5 155.833,159.5 32.5,159.5C 36.6845,158.834 41.0178,158.167 45.5,157.5C 35.573,155.965 25.7396,156.298 16,158.5C 12.6605,156.956 9.16051,156.29 5.5,156.5C 5.5,157.5 5.5,158.5 5.5,159.5C 3.5,159.5 1.5,159.5 -0.5,159.5C -0.5,106.167 -0.5,52.8333 -0.5,-0.5 Z"/></g>
<g><path style="opacity:1" fill="#cad78b" d="M 114.5,-0.5 C 117.167,-0.5 119.833,-0.5 122.5,-0.5C 122.5,0.5 122.5,1.5 122.5,2.5C 118.256,3.64288 113.923,4.30955 109.5,4.5C 110.552,2.74395 112.219,2.07729 114.5,2.5C 114.5,1.5 114.5,0.5 114.5,-0.5 Z"/></g>
<g><path style="opacity:1" fill="#c8d789" d="M 126.5,-0.5 C 128.167,-0.5 129.833,-0.5 131.5,-0.5C 131.5,0.5 131.5,1.5 131.5,2.5C 129.833,2.5 128.167,2.5 126.5,2.5C 126.5,1.5 126.5,0.5 126.5,-0.5 Z"/></g>
<g><path style="opacity:1" fill="#cad68a" d="M 728.5,-0.5 C 740.5,-0.5 752.5,-0.5 764.5,-0.5C 764.5,0.5 764.5,1.5 764.5,2.5C 766.167,2.5 767.833,2.5 769.5,2.5C 769.5,1.5 769.5,0.5 769.5,-0.5C 772.167,-0.5 774.833,-0.5 777.5,-0.5C 777.5,0.5 777.5,1.5 777.5,2.5C 780.833,3.16667 784.167,3.83333 787.5,4.5C 787.5,8.16667 787.5,11.8333 787.5,15.5C 785.833,15.5 784.167,15.5 782.5,15.5C 782.5,16.5 782.5,17.5 782.5,18.5C 778.167,18.5 773.833,18.5 769.5,18.5C 769.5,23.1667 769.5,27.8333 769.5,32.5C 767.833,32.5 766.167,32.5 764.5,32.5C 764.5,31.5 764.5,30.5 764.5,29.5C 761.167,29.5 757.833,29.5 754.5,29.5C 754.5,30.5 754.5,31.5 754.5,32.5C 753.5,32.5 752.5,32.5 751.5,32.5C 751.5,36.1667 751.5,39.8333 751.5,43.5C 744.833,43.5 738.167,43.5 731.5,43.5C 731.5,44.5 731.5,45.5 731.5,46.5C 728.833,46.5 726.167,46.5 723.5,46.5C 723.5,45.5 723.5,44.5 723.5,43.5C 723.5,38.8333 723.5,34.1667 723.5,29.5C 721.833,29.5 720.167,29.5 718.5,29.5C 718.5,30.5 718.5,31.5 718.5,32.5C 717.167,32.5 715.833,32.5 714.5,32.5C 714.5,36.1667 714.5,39.8333 714.5,43.5C 714.5,44.5 714.5,45.5 714.5,46.5C 705.678,46.0214 697.011,46.6881 688.5,48.5C 688.5,49.5 688.5,50.5 688.5,51.5C 686.833,51.5 685.167,51.5 683.5,51.5C 683.5,52.5 683.5,53.5 683.5,54.5C 685.167,54.5 686.833,54.5 688.5,54.5C 688.5,56.1667 688.5,57.8333 688.5,59.5C 688.5,61.5 688.5,63.5 688.5,65.5C 683.5,65.5 678.5,65.5 673.5,65.5C 673.5,64.5 673.5,63.5 673.5,62.5C 671.833,62.5 670.167,62.5 668.5,62.5C 668.5,60.8333 668.5,59.1667 668.5,57.5C 667.5,57.5 666.5,57.5 665.5,57.5C 665.5,56.5 665.5,55.5 665.5,54.5C 666.5,54.5 667.5,54.5 668.5,54.5C 668.5,53.5 668.5,52.5 668.5,51.5C 665.833,51.5 663.167,51.5 660.5,51.5C 660.5,52.5 660.5,53.5 660.5,54.5C 658.833,54.5 657.167,54.5 655.5,54.5C 655.5,55.5 655.5,56.5 655.5,57.5C 652.302,56.9644 649.635,57.631 647.5,59.5C 645.833,59.5 644.167,59.5 642.5,59.5C 641.306,58.2227 639.64,57.5561 637.5,57.5C 634.434,58.0456 631.434,58.7123 628.5,59.5C 623.167,58.8333 623.167,58.1667 628.5,57.5C 628.5,56.5 628.5,55.5 628.5,54.5C 631.5,54.5 634.5,54.5 637.5,54.5C 637.5,53.5 637.5,52.5 637.5,51.5C 639.167,51.5 640.833,51.5 642.5,51.5C 642.5,49.8333 642.5,48.1667 642.5,46.5C 631.856,47.4603 621.189,48.1269 610.5,48.5C 610.5,49.5 610.5,50.5 610.5,51.5C 608.833,51.5 607.167,51.5 605.5,51.5C 605.5,52.5 605.5,53.5 605.5,54.5C 599.5,54.5 593.5,54.5 587.5,54.5C 587.5,53.5 587.5,52.5 587.5,51.5C 585.833,51.5 584.167,51.5 582.5,51.5C 582.5,50.5 582.5,49.5 582.5,48.5C 591.943,48.8668 601.276,48.2001 610.5,46.5C 610.5,45.5 610.5,44.5 610.5,43.5C 617.833,43.5 625.167,43.5 632.5,43.5C 632.5,40.8333 632.5,38.1667 632.5,35.5C 635.833,35.5 639.167,35.5 642.5,35.5C 642.5,33.5 642.5,31.5 642.5,29.5C 645.167,29.5 647.833,29.5 650.5,29.5C 650.5,28.5 650.5,27.5 650.5,26.5C 659.782,25.2469 669.115,24.5802 678.5,24.5C 678.5,22.5 678.5,20.5 678.5,18.5C 681.833,18.5 685.167,18.5 688.5,18.5C 688.5,17.5 688.5,16.5 688.5,15.5C 691.706,14.4676 695.039,13.801 698.5,13.5C 703.812,14.4596 709.145,15.1263 714.5,15.5C 714.5,13.8333 714.5,12.1667 714.5,10.5C 713.167,10.5 711.833,10.5 710.5,10.5C 710.5,9.5 710.5,8.5 710.5,7.5C 714.833,7.5 719.167,7.5 723.5,7.5C 723.5,6.5 723.5,5.5 723.5,4.5C 725.167,4.5 726.833,4.5 728.5,4.5C 728.5,2.83333 728.5,1.16667 728.5,-0.5 Z"/></g>
<g><path style="opacity:1" fill="#c9d888" d="M 764.5,-0.5 C 766.167,-0.5 767.833,-0.5 769.5,-0.5C 769.5,0.5 769.5,1.5 769.5,2.5C 767.833,2.5 766.167,2.5 764.5,2.5C 764.5,1.5 764.5,0.5 764.5,-0.5 Z"/></g>
<g><path style="opacity:1" fill="#cad68a" d="M 1247.5,-0.5 C 1262.83,-0.5 1278.17,-0.5 1293.5,-0.5C 1293.5,0.5 1293.5,1.5 1293.5,2.5C 1294.83,2.5 1296.17,2.5 1297.5,2.5C 1297.5,5.16667 1297.5,7.83333 1297.5,10.5C 1299.17,10.5 1300.83,10.5 1302.5,10.5C 1302.5,11.5 1302.5,12.5 1302.5,13.5C 1297.73,13.5976 1293.07,14.2643 1288.5,15.5C 1288.5,16.5 1288.5,17.5 1288.5,18.5C 1286.83,18.5 1285.17,18.5 1283.5,18.5C 1283.5,21.1667 1283.5,23.8333 1283.5,26.5C 1282.5,26.5 1281.5,26.5 1280.5,26.5C 1280.5,29.5 1280.5,32.5 1280.5,35.5C 1278.83,35.5 1277.17,35.5 1275.5,35.5C 1275.5,34.5 1275.5,33.5 1275.5,32.5C 1273.83,32.5 1272.17,32.5 1270.5,32.5C 1270.5,33.5 1270.5,34.5 1270.5,35.5C 1268.09,35.3305 1265.92,35.9972 1264,37.5C 1260.38,35.7441 1256.55,35.0775 1252.5,35.5C 1252.5,34.5 1252.5,33.5 1252.5,32.5C 1250.83,32.5 1249.17,32.5 1247.5,32.5C 1247.5,34.1667 1247.5,35.8333 1247.5,37.5C 1245.83,37.5 1244.17,37.5 1242.5,37.5C 1242.5,40.5 1242.5,43.5 1242.5,46.5C 1239.98,47.64 1237.31,48.3067 1234.5,48.5C 1234.5,49.5 1234.5,50.5 1234.5,51.5C 1231.17,51.5 1227.83,51.5 1224.5,51.5C 1224.5,52.5 1224.5,53.5 1224.5,54.5C 1223.17,54.5 1221.83,54.5 1220.5,54.5C 1220.5,55.5 1220.5,56.5 1220.5,57.5C 1219.17,57.5 1217.83,57.5 1216.5,57.5C 1216.5,60.1667 1216.5,62.8333 1216.5,65.5C 1214.83,65.5 1213.17,65.5 1211.5,65.5C 1211.5,60.8333 1211.5,56.1667 1211.5,51.5C 1214.5,51.5 1217.5,51.5 1220.5,51.5C 1220.5,49.8333 1220.5,48.1667 1220.5,46.5C 1216.03,46.4579 1211.7,47.1245 1207.5,48.5C 1207.5,50.5 1207.5,52.5 1207.5,54.5C 1205.83,54.5 1204.17,54.5 1202.5,54.5C 1202.5,55.5 1202.5,56.5 1202.5,57.5C 1200.83,57.5 1199.17,57.5 1197.5,57.5C 1197.5,60.1667 1197.5,62.8333 1197.5,65.5C 1196.5,65.5 1195.5,65.5 1194.5,65.5C 1191.17,65.5 1187.83,65.5 1184.5,65.5C 1181.83,65.5 1179.17,65.5 1176.5,65.5C 1176.5,63.5 1176.5,61.5 1176.5,59.5C 1177.5,59.5 1178.5,59.5 1179.5,59.5C 1179.5,56.8333 1179.5,54.1667 1179.5,51.5C 1178.5,51.5 1177.5,51.5 1176.5,51.5C 1176.5,50.5 1176.5,49.5 1176.5,48.5C 1174.83,48.5 1173.17,48.5 1171.5,48.5C 1171.5,49.5 1171.5,50.5 1171.5,51.5C 1169.83,51.5 1168.17,51.5 1166.5,51.5C 1166.5,50.5 1166.5,49.5 1166.5,48.5C 1164.83,48.5 1163.17,48.5 1161.5,48.5C 1161.5,46.8333 1161.5,45.1667 1161.5,43.5C 1157.17,43.5 1152.83,43.5 1148.5,43.5C 1148.5,40.8333 1148.5,38.1667 1148.5,35.5C 1151.17,35.5 1153.83,35.5 1156.5,35.5C 1156.5,33.5 1156.5,31.5 1156.5,29.5C 1159.83,29.5 1163.17,29.5 1166.5,29.5C 1166.5,28.5 1166.5,27.5 1166.5,26.5C 1172.54,26.0924 1178.54,25.4257 1184.5,24.5C 1184.5,23.5 1184.5,22.5 1184.5,21.5C 1186.17,21.5 1187.83,21.5 1189.5,21.5C 1189.5,20.5 1189.5,19.5 1189.5,18.5C 1191.17,18.5 1192.83,18.5 1194.5,18.5C 1194.5,17.5 1194.5,16.5 1194.5,15.5C 1198.16,15.7102 1201.66,15.0436 1205,13.5C 1206.55,14.0535 1208.05,14.7202 1209.5,15.5C 1212.98,13.8382 1216.65,13.1715 1220.5,13.5C 1220.5,11.5 1220.5,9.5 1220.5,7.5C 1223.5,7.5 1226.5,7.5 1229.5,7.5C 1229.5,6.5 1229.5,5.5 1229.5,4.5C 1235.39,3.03141 1241.39,2.36475 1247.5,2.5C 1247.5,1.5 1247.5,0.5 1247.5,-0.5 Z"/></g>
<g><path style="opacity:1" fill="#c9d689" d="M 86.5,4.5 C 88.1667,4.5 89.8333,4.5 91.5,4.5C 91.5,5.5 91.5,6.5 91.5,7.5C 89.8333,7.5 88.1667,7.5 86.5,7.5C 86.5,6.5 86.5,5.5 86.5,4.5 Z"/></g>
<g><path style="opacity:1" fill="#c9d689" d="M 96.5,4.5 C 97.5,4.5 98.5,4.5 99.5,4.5C 99.5,5.5 99.5,6.5 99.5,7.5C 98.5,7.5 97.5,7.5 96.5,7.5C 96.5,6.5 96.5,5.5 96.5,4.5 Z"/></g>
<g><path style="opacity:1" fill="#c6d887" d="M 109.5,4.5 C 109.5,5.5 109.5,6.5 109.5,7.5C 107.833,7.5 106.167,7.5 104.5,7.5C 104.5,6.5 104.5,5.5 104.5,4.5C 106.167,4.5 107.833,4.5 109.5,4.5 Z"/></g>
<g><path style="opacity:1" fill="#c9d787" d="M 696.5,29.5 C 699.5,29.5 702.5,29.5 705.5,29.5C 705.5,31.5 705.5,33.5 705.5,35.5C 702.5,35.5 699.5,35.5 696.5,35.5C 696.5,33.5 696.5,31.5 696.5,29.5 Z"/></g>
<g><path style="opacity:1" fill="#c9d38a" d="M 723.5,43.5 C 720.5,43.5 717.5,43.5 714.5,43.5C 714.5,39.8333 714.5,36.1667 714.5,32.5C 715.833,32.5 717.167,32.5 718.5,32.5C 718.5,31.5 718.5,30.5 718.5,29.5C 720.167,29.5 721.833,29.5 723.5,29.5C 723.5,34.1667 723.5,38.8333 723.5,43.5 Z"/></g>
<g><path style="opacity:1" fill="#c9d787" d="M 1211.5,29.5 C 1214.5,29.5 1217.5,29.5 1220.5,29.5C 1220.5,31.5 1220.5,33.5 1220.5,35.5C 1219.17,35.5 1217.83,35.5 1216.5,35.5C 1216.5,34.5 1216.5,33.5 1216.5,32.5C 1214.83,32.5 1213.17,32.5 1211.5,32.5C 1211.5,31.5 1211.5,30.5 1211.5,29.5 Z"/></g>
<g><path style="opacity:1" fill="#cbd68a" d="M 1148.5,43.5 C 1148.5,44.5 1148.5,45.5 1148.5,46.5C 1141.17,46.5 1133.83,46.5 1126.5,46.5C 1126.5,45.5 1126.5,44.5 1126.5,43.5C 1133.83,43.5 1141.17,43.5 1148.5,43.5 Z"/></g>
<g><path style="opacity:1" fill="#cad68a" d="M 564.5,51.5 C 564.5,50.5 564.5,49.5 564.5,48.5C 569.394,47.1892 574.394,46.5225 579.5,46.5C 579.5,48.1667 579.5,49.8333 579.5,51.5C 574.5,51.5 569.5,51.5 564.5,51.5 Z"/></g>
<g><path style="opacity:1" fill="#cad78a" d="M 723.5,46.5 C 723.5,48.1667 723.5,49.8333 723.5,51.5C 721.833,51.5 720.167,51.5 718.5,51.5C 718.5,52.5 718.5,53.5 718.5,54.5C 715.833,54.5 713.167,54.5 710.5,54.5C 710.5,55.5 710.5,56.5 710.5,57.5C 707.5,57.5 704.5,57.5 701.5,57.5C 701.5,61.8333 701.5,66.1667 701.5,70.5C 699.833,70.5 698.167,70.5 696.5,70.5C 696.5,65.1667 696.5,59.8333 696.5,54.5C 698.167,54.5 699.833,54.5 701.5,54.5C 701.5,53.5 701.5,52.5 701.5,51.5C 702.833,51.5 704.167,51.5 705.5,51.5C 708.5,51.5 711.5,51.5 714.5,51.5C 714.5,50.5 714.5,49.5 714.5,48.5C 717.436,47.5942 720.436,46.9275 723.5,46.5 Z"/></g>
<g><path style="opacity:1" fill="#cad68a" d="M 1126.5,46.5 C 1125.45,48.256 1123.78,48.9227 1121.5,48.5C 1121.5,49.5 1121.5,50.5 1121.5,51.5C 1123.17,51.5 1124.83,51.5 1126.5,51.5C 1126.5,53.5 1126.5,55.5 1126.5,57.5C 1124.83,57.5 1123.17,57.5 1121.5,57.5C 1121.5,56.5 1121.5,55.5 1121.5,54.5C 1118.83,54.5 1116.17,54.5 1113.5,54.5C 1113.5,55.5 1113.5,56.5 1113.5,57.5C 1111.83,57.5 1110.17,57.5 1108.5,57.5C 1108.5,56.5 1108.5,55.5 1108.5,54.5C 1106.83,54.5 1105.17,54.5 1103.5,54.5C 1103.5,53.5 1103.5,52.5 1103.5,51.5C 1100.17,51.5 1096.83,51.5 1093.5,51.5C 1093.5,49.8333 1093.5,48.1667 1093.5,46.5C 1099.04,46.7076 1104.54,47.3743 1110,48.5C 1115.46,47.3743 1120.96,46.7076 1126.5,46.5 Z"/></g>
<g><path style="opacity:1" fill="#cad689" d="M 1153.5,46.5 C 1154.68,46.281 1155.68,46.6143 1156.5,47.5C 1154.95,48.7979 1153.95,48.4646 1153.5,46.5 Z"/></g>
<g><path style="opacity:1" fill="#c9d588" d="M 1211.5,65.5 C 1211.5,66.5 1211.5,67.5 1211.5,68.5C 1208.56,69.4058 1205.56,70.0725 1202.5,70.5C 1199.83,70.5 1197.17,70.5 1194.5,70.5C 1194.5,68.8333 1194.5,67.1667 1194.5,65.5C 1195.5,65.5 1196.5,65.5 1197.5,65.5C 1197.5,62.8333 1197.5,60.1667 1197.5,57.5C 1199.17,57.5 1200.83,57.5 1202.5,57.5C 1202.5,56.5 1202.5,55.5 1202.5,54.5C 1204.17,54.5 1205.83,54.5 1207.5,54.5C 1207.5,52.5 1207.5,50.5 1207.5,48.5C 1211.7,47.1245 1216.03,46.4579 1220.5,46.5C 1220.5,48.1667 1220.5,49.8333 1220.5,51.5C 1217.5,51.5 1214.5,51.5 1211.5,51.5C 1211.5,56.1667 1211.5,60.8333 1211.5,65.5 Z"/></g>
<g><path style="opacity:1" fill="#cad68a" d="M 412.5,51.5 C 409.167,51.5 405.833,51.5 402.5,51.5C 402.5,52.5 402.5,53.5 402.5,54.5C 400.833,54.5 399.167,54.5 397.5,54.5C 397.5,52.5 397.5,50.5 397.5,48.5C 405.167,48.5 412.833,48.5 420.5,48.5C 420.5,49.5 420.5,50.5 420.5,51.5C 417.833,51.5 415.167,51.5 412.5,51.5 Z"/></g>
<g><path style="opacity:1" fill="#c9d48a" d="M 705.5,51.5 C 704.167,51.5 702.833,51.5 701.5,51.5C 701.5,52.5 701.5,53.5 701.5,54.5C 699.833,54.5 698.167,54.5 696.5,54.5C 696.5,52.5 696.5,50.5 696.5,48.5C 699.5,48.5 702.5,48.5 705.5,48.5C 705.5,49.5 705.5,50.5 705.5,51.5 Z"/></g>
<g><path style="opacity:1" fill="#c9d488" d="M 412.5,51.5 C 412.5,52.5 412.5,53.5 412.5,54.5C 410.833,54.5 409.167,54.5 407.5,54.5C 407.5,56.1667 407.5,57.8333 407.5,59.5C 405.833,59.5 404.167,59.5 402.5,59.5C 402.5,60.5 402.5,61.5 402.5,62.5C 400.833,62.5 399.167,62.5 397.5,62.5C 395.833,62.5 394.167,62.5 392.5,62.5C 392.5,61.5 392.5,60.5 392.5,59.5C 391.5,59.5 390.5,59.5 389.5,59.5C 391.635,57.631 394.302,56.9644 397.5,57.5C 397.5,56.5 397.5,55.5 397.5,54.5C 399.167,54.5 400.833,54.5 402.5,54.5C 402.5,53.5 402.5,52.5 402.5,51.5C 405.833,51.5 409.167,51.5 412.5,51.5 Z"/></g>
<g><path style="opacity:1" fill="#cad68a" d="M 564.5,51.5 C 564.5,54.1667 564.5,56.8333 564.5,59.5C 566.167,59.5 567.833,59.5 569.5,59.5C 569.5,60.5 569.5,61.5 569.5,62.5C 569.5,63.5 569.5,64.5 569.5,65.5C 566.833,65.5 564.167,65.5 561.5,65.5C 561.5,66.5 561.5,67.5 561.5,68.5C 557.671,67.931 554.337,68.5977 551.5,70.5C 550.167,70.5 548.833,70.5 547.5,70.5C 547.5,71.5 547.5,72.5 547.5,73.5C 545.833,73.5 544.167,73.5 542.5,73.5C 542.5,71.8333 542.5,70.1667 542.5,68.5C 544.167,68.5 545.833,68.5 547.5,68.5C 547.5,67.5 547.5,66.5 547.5,65.5C 550.5,65.5 553.5,65.5 556.5,65.5C 556.5,64.5 556.5,63.5 556.5,62.5C 558.167,62.5 559.833,62.5 561.5,62.5C 561.5,58.8333 561.5,55.1667 561.5,51.5C 562.5,51.5 563.5,51.5 564.5,51.5 Z"/></g>
<g><path style="opacity:1" fill="#c8d487" d="M 610.5,51.5 C 612.167,51.5 613.833,51.5 615.5,51.5C 615.5,52.5 615.5,53.5 615.5,54.5C 613.833,54.5 612.167,54.5 610.5,54.5C 610.5,53.5 610.5,52.5 610.5,51.5 Z"/></g>
<g><path style="opacity:1" fill="#cad689" d="M 628.5,54.5 C 627.167,54.5 625.833,54.5 624.5,54.5C 624.5,53.5 624.5,52.5 624.5,51.5C 625.833,51.5 627.167,51.5 628.5,51.5C 628.5,52.5 628.5,53.5 628.5,54.5 Z"/></g>
<g><path style="opacity:1" fill="#c9d588" d="M 673.5,65.5 C 669.167,65.5 664.833,65.5 660.5,65.5C 658.833,65.5 657.167,65.5 655.5,65.5C 655.5,66.5 655.5,67.5 655.5,68.5C 653.833,68.5 652.167,68.5 650.5,68.5C 650.5,65.5 650.5,62.5 650.5,59.5C 649.5,59.5 648.5,59.5 647.5,59.5C 649.635,57.631 652.302,56.9644 655.5,57.5C 655.5,56.5 655.5,55.5 655.5,54.5C 657.167,54.5 658.833,54.5 660.5,54.5C 660.5,53.5 660.5,52.5 660.5,51.5C 663.167,51.5 665.833,51.5 668.5,51.5C 668.5,52.5 668.5,53.5 668.5,54.5C 667.5,54.5 666.5,54.5 665.5,54.5C 665.5,55.5 665.5,56.5 665.5,57.5C 666.5,57.5 667.5,57.5 668.5,57.5C 668.5,59.1667 668.5,60.8333 668.5,62.5C 670.167,62.5 671.833,62.5 673.5,62.5C 673.5,63.5 673.5,64.5 673.5,65.5 Z"/></g>
<g><path style="opacity:1" fill="#cad68a" d="M 397.5,54.5 C 397.5,55.5 397.5,56.5 397.5,57.5C 394.302,56.9644 391.635,57.631 389.5,59.5C 387.833,59.5 386.167,59.5 384.5,59.5C 384.5,63.1667 384.5,66.8333 384.5,70.5C 380.646,70.8285 376.979,70.1618 373.5,68.5C 372.167,69.1667 370.833,69.8333 369.5,70.5C 367.354,69.1064 365.021,68.4397 362.5,68.5C 362.5,66.5 362.5,64.5 362.5,62.5C 364.167,62.5 365.833,62.5 367.5,62.5C 367.5,61.5 367.5,60.5 367.5,59.5C 373.279,59.5912 378.946,58.9245 384.5,57.5C 384.5,56.5 384.5,55.5 384.5,54.5C 388.833,54.5 393.167,54.5 397.5,54.5 Z"/></g>
<g><path style="opacity:1" fill="#c9d48a" d="M 412.5,54.5 C 413.5,54.5 414.5,54.5 415.5,54.5C 415.5,56.1667 415.5,57.8333 415.5,59.5C 414.5,59.5 413.5,59.5 412.5,59.5C 410.833,59.5 409.167,59.5 407.5,59.5C 407.5,57.8333 407.5,56.1667 407.5,54.5C 409.167,54.5 410.833,54.5 412.5,54.5 Z"/></g>
<g><path style="opacity:1" fill="#cad689" d="M 579.5,57.5 C 579.5,56.5 579.5,55.5 579.5,54.5C 580.5,54.5 581.5,54.5 582.5,54.5C 582.5,55.5 582.5,56.5 582.5,57.5C 581.5,57.5 580.5,57.5 579.5,57.5 Z"/></g>
<g><path style="opacity:1" fill="#c9d48a" d="M 587.5,54.5 C 593.5,54.5 599.5,54.5 605.5,54.5C 605.5,56.1667 605.5,57.8333 605.5,59.5C 599.5,59.5 593.5,59.5 587.5,59.5C 587.5,57.8333 587.5,56.1667 587.5,54.5 Z"/></g>
<g><path style="opacity:1" fill="#c9d48a" d="M 1103.5,54.5 C 1105.17,54.5 1106.83,54.5 1108.5,54.5C 1108.5,55.5 1108.5,56.5 1108.5,57.5C 1110.17,57.5 1111.83,57.5 1113.5,57.5C 1113.5,56.5 1113.5,55.5 1113.5,54.5C 1116.17,54.5 1118.83,54.5 1121.5,54.5C 1121.5,55.5 1121.5,56.5 1121.5,57.5C 1117.63,59.4302 1113.29,60.0969 1108.5,59.5C 1108.5,61.5 1108.5,63.5 1108.5,65.5C 1103.5,65.5 1098.5,65.5 1093.5,65.5C 1093.5,64.5 1093.5,63.5 1093.5,62.5C 1092.5,62.5 1091.5,62.5 1090.5,62.5C 1090.5,61.5 1090.5,60.5 1090.5,59.5C 1088.83,59.5 1087.17,59.5 1085.5,59.5C 1085.5,57.8333 1085.5,56.1667 1085.5,54.5C 1091.5,54.5 1097.5,54.5 1103.5,54.5 Z"/></g>
<g><path style="opacity:1" fill="#cbd388" d="M 579.5,57.5 C 579.5,59.1667 579.5,60.8333 579.5,62.5C 576.167,62.5 572.833,62.5 569.5,62.5C 569.5,61.5 569.5,60.5 569.5,59.5C 572.337,57.5977 575.671,56.931 579.5,57.5 Z"/></g>
<g><path style="opacity:1" fill="#cad689" d="M 407.5,59.5 C 409.167,59.5 410.833,59.5 412.5,59.5C 412.5,60.5 412.5,61.5 412.5,62.5C 413.5,62.5 414.5,62.5 415.5,62.5C 415.5,63.5 415.5,64.5 415.5,65.5C 412.833,65.5 410.167,65.5 407.5,65.5C 407.5,67.1667 407.5,68.8333 407.5,70.5C 405.833,70.5 404.167,70.5 402.5,70.5C 402.5,68.8333 402.5,67.1667 402.5,65.5C 400.833,65.5 399.167,65.5 397.5,65.5C 397.5,64.5 397.5,63.5 397.5,62.5C 399.167,62.5 400.833,62.5 402.5,62.5C 402.5,61.5 402.5,60.5 402.5,59.5C 404.167,59.5 405.833,59.5 407.5,59.5 Z"/></g>
<g><path style="opacity:1" fill="#c8d487" d="M 610.5,59.5 C 612.167,59.5 613.833,59.5 615.5,59.5C 615.5,60.5 615.5,61.5 615.5,62.5C 613.833,62.5 612.167,62.5 610.5,62.5C 610.5,61.5 610.5,60.5 610.5,59.5 Z"/></g>
<g><path style="opacity:1" fill="#c9d48a" d="M 642.5,59.5 C 644.167,59.5 645.833,59.5 647.5,59.5C 648.5,59.5 649.5,59.5 650.5,59.5C 650.5,62.5 650.5,65.5 650.5,68.5C 647.975,69.64 645.308,70.3067 642.5,70.5C 642.5,66.8333 642.5,63.1667 642.5,59.5 Z"/></g>
<g><path style="opacity:1" fill="#c9d48a" d="M 688.5,59.5 C 689.5,59.5 690.5,59.5 691.5,59.5C 691.5,61.5 691.5,63.5 691.5,65.5C 690.5,65.5 689.5,65.5 688.5,65.5C 688.5,63.5 688.5,61.5 688.5,59.5 Z"/></g>
<g><path style="opacity:1" fill="#c8d487" d="M 1134.5,59.5 C 1135.83,59.5 1137.17,59.5 1138.5,59.5C 1138.5,60.5 1138.5,61.5 1138.5,62.5C 1137.17,62.5 1135.83,62.5 1134.5,62.5C 1134.5,61.5 1134.5,60.5 1134.5,59.5 Z"/></g>
<g><path style="opacity:1" fill="#c9d48a" d="M 1176.5,59.5 C 1176.5,61.5 1176.5,63.5 1176.5,65.5C 1176.5,67.1667 1176.5,68.8333 1176.5,70.5C 1173.17,69.8333 1169.83,69.1667 1166.5,68.5C 1166.5,65.5 1166.5,62.5 1166.5,59.5C 1169.83,59.5 1173.17,59.5 1176.5,59.5 Z"/></g>
<g><path style="opacity:1" fill="#c7d487" d="M 1116.5,62.5 C 1118.17,62.5 1119.83,62.5 1121.5,62.5C 1121.5,63.5 1121.5,64.5 1121.5,65.5C 1119.83,65.5 1118.17,65.5 1116.5,65.5C 1116.5,64.5 1116.5,63.5 1116.5,62.5 Z"/></g>
<g><path style="opacity:1" fill="#c8d487" d="M 420.5,65.5 C 422.167,65.5 423.833,65.5 425.5,65.5C 425.5,66.5 425.5,67.5 425.5,68.5C 423.833,68.5 422.167,68.5 420.5,68.5C 420.5,67.5 420.5,66.5 420.5,65.5 Z"/></g>
<g><path style="opacity:1" fill="#c8d58a" d="M 592.5,65.5 C 594.167,65.5 595.833,65.5 597.5,65.5C 597.5,67.1667 597.5,68.8333 597.5,70.5C 595.833,70.5 594.167,70.5 592.5,70.5C 592.5,68.8333 592.5,67.1667 592.5,65.5 Z"/></g>
<g><path style="opacity:1" fill="#c9d589" d="M 642.5,59.5 C 642.5,63.1667 642.5,66.8333 642.5,70.5C 642.5,71.5 642.5,72.5 642.5,73.5C 640.833,73.5 639.167,73.5 637.5,73.5C 637.5,74.5 637.5,75.5 637.5,76.5C 635.833,76.5 634.167,76.5 632.5,76.5C 632.5,74.5 632.5,72.5 632.5,70.5C 629.833,70.5 627.167,70.5 624.5,70.5C 624.5,68.8333 624.5,67.1667 624.5,65.5C 625.833,65.5 627.167,65.5 628.5,65.5C 628.5,63.5 628.5,61.5 628.5,59.5C 631.434,58.7123 634.434,58.0456 637.5,57.5C 639.64,57.5561 641.306,58.2227 642.5,59.5 Z"/></g>
<g><path style="opacity:1" fill="#cad68a" d="M 660.5,65.5 C 660.5,68.1667 660.5,70.8333 660.5,73.5C 664.833,73.5 669.167,73.5 673.5,73.5C 673.5,72.5 673.5,71.5 673.5,70.5C 678.606,70.4775 683.606,69.8108 688.5,68.5C 688.5,71.1667 688.5,73.8333 688.5,76.5C 683.5,76.5 678.5,76.5 673.5,76.5C 673.5,77.5 673.5,78.5 673.5,79.5C 667.5,79.5 661.5,79.5 655.5,79.5C 655.5,78.5 655.5,77.5 655.5,76.5C 651.167,76.5 646.833,76.5 642.5,76.5C 642.5,77.5 642.5,78.5 642.5,79.5C 637.933,80.7357 633.266,81.4024 628.5,81.5C 628.5,82.5 628.5,83.5 628.5,84.5C 627.167,84.5 625.833,84.5 624.5,84.5C 624.5,85.5 624.5,86.5 624.5,87.5C 621.5,87.5 618.5,87.5 615.5,87.5C 615.5,85.5 615.5,83.5 615.5,81.5C 618.564,81.0725 621.564,80.4058 624.5,79.5C 624.5,78.5 624.5,77.5 624.5,76.5C 627.167,76.5 629.833,76.5 632.5,76.5C 634.167,76.5 635.833,76.5 637.5,76.5C 637.5,75.5 637.5,74.5 637.5,73.5C 639.167,73.5 640.833,73.5 642.5,73.5C 642.5,72.5 642.5,71.5 642.5,70.5C 645.308,70.3067 647.975,69.64 650.5,68.5C 652.167,68.5 653.833,68.5 655.5,68.5C 655.5,67.5 655.5,66.5 655.5,65.5C 657.167,65.5 658.833,65.5 660.5,65.5 Z"/></g>
<g><path style="opacity:1" fill="#c9d48a" d="M 660.5,65.5 C 664.833,65.5 669.167,65.5 673.5,65.5C 678.5,65.5 683.5,65.5 688.5,65.5C 688.5,66.5 688.5,67.5 688.5,68.5C 683.606,69.8108 678.606,70.4775 673.5,70.5C 673.5,71.5 673.5,72.5 673.5,73.5C 669.167,73.5 664.833,73.5 660.5,73.5C 660.5,70.8333 660.5,68.1667 660.5,65.5 Z"/></g>
<g><path style="opacity:1" fill="#c9d48a" d="M 1085.5,73.5 C 1085.5,74.5 1085.5,75.5 1085.5,76.5C 1082.17,76.5 1078.83,76.5 1075.5,76.5C 1075.5,72.8333 1075.5,69.1667 1075.5,65.5C 1078.83,65.5 1082.17,65.5 1085.5,65.5C 1085.5,68.1667 1085.5,70.8333 1085.5,73.5 Z"/></g>
<g><path style="opacity:1" fill="#c8d58a" d="M 1093.5,65.5 C 1098.5,65.5 1103.5,65.5 1108.5,65.5C 1110.17,65.5 1111.83,65.5 1113.5,65.5C 1113.5,67.1667 1113.5,68.8333 1113.5,70.5C 1110.17,70.5 1106.83,70.5 1103.5,70.5C 1100.17,70.5 1096.83,70.5 1093.5,70.5C 1093.5,68.8333 1093.5,67.1667 1093.5,65.5 Z"/></g>
<g><path style="opacity:1" fill="#c8d58a" d="M 1156.5,70.5 C 1153.83,70.5 1151.17,70.5 1148.5,70.5C 1148.5,68.8333 1148.5,67.1667 1148.5,65.5C 1151.17,65.5 1153.83,65.5 1156.5,65.5C 1156.5,67.1667 1156.5,68.8333 1156.5,70.5 Z"/></g>
<g><path style="opacity:1" fill="#c9d588" d="M 1176.5,65.5 C 1179.17,65.5 1181.83,65.5 1184.5,65.5C 1184.5,67.1667 1184.5,68.8333 1184.5,70.5C 1181.83,70.5 1179.17,70.5 1176.5,70.5C 1176.5,68.8333 1176.5,67.1667 1176.5,65.5 Z"/></g>
<g><path style="opacity:1" fill="#c9d48a" d="M 1184.5,65.5 C 1187.83,65.5 1191.17,65.5 1194.5,65.5C 1194.5,67.1667 1194.5,68.8333 1194.5,70.5C 1191.17,70.5 1187.83,70.5 1184.5,70.5C 1184.5,68.8333 1184.5,67.1667 1184.5,65.5 Z"/></g>
<g><path style="opacity:1" fill="#c7d487" d="M 352.5,68.5 C 354.288,68.2148 355.955,68.5481 357.5,69.5C 356.667,69.8333 355.833,70.1667 355,70.5C 353.624,70.3158 352.791,69.6491 352.5,68.5 Z"/></g>
<g><path style="opacity:1" fill="#c8d487" d="M 389.5,68.5 C 390.675,68.281 391.675,68.6143 392.5,69.5C 390.948,70.7979 389.948,70.4646 389.5,68.5 Z"/></g>
<g><path style="opacity:1" fill="#cad689" d="M 1130.5,70.5 C 1129.02,70.762 1127.69,70.4287 1126.5,69.5C 1127.17,69.1667 1127.83,68.8333 1128.5,68.5C 1129.71,68.7472 1130.38,69.4138 1130.5,70.5 Z"/></g>
<g><path style="opacity:1" fill="#c9d58a" d="M 1148.5,70.5 C 1148.5,71.5 1148.5,72.5 1148.5,73.5C 1146.83,73.5 1145.17,73.5 1143.5,73.5C 1143.5,74.5 1143.5,75.5 1143.5,76.5C 1141.83,76.5 1140.17,76.5 1138.5,76.5C 1138.5,79.1667 1138.5,81.8333 1138.5,84.5C 1137.17,84.5 1135.83,84.5 1134.5,84.5C 1134.5,85.5 1134.5,86.5 1134.5,87.5C 1133.17,87.5 1131.83,87.5 1130.5,87.5C 1130.5,85.5 1130.5,83.5 1130.5,81.5C 1131.83,81.5 1133.17,81.5 1134.5,81.5C 1134.5,79.8333 1134.5,78.1667 1134.5,76.5C 1133.17,76.5 1131.83,76.5 1130.5,76.5C 1130.5,74.5 1130.5,72.5 1130.5,70.5C 1134.16,70.7102 1137.66,70.0436 1141,68.5C 1143.36,69.78 1145.86,70.4467 1148.5,70.5 Z"/></g>
<g><path style="opacity:1" fill="#cad68a" d="M 1166.5,68.5 C 1169.83,69.1667 1173.17,69.8333 1176.5,70.5C 1179.17,70.5 1181.83,70.5 1184.5,70.5C 1187.83,70.5 1191.17,70.5 1194.5,70.5C 1197.17,70.5 1199.83,70.5 1202.5,70.5C 1202.5,71.5 1202.5,72.5 1202.5,73.5C 1200.83,73.5 1199.17,73.5 1197.5,73.5C 1197.5,74.5 1197.5,75.5 1197.5,76.5C 1194.83,76.5 1192.17,76.5 1189.5,76.5C 1189.5,77.5 1189.5,78.5 1189.5,79.5C 1187.83,79.5 1186.17,79.5 1184.5,79.5C 1184.5,78.5 1184.5,77.5 1184.5,76.5C 1175.17,76.5 1165.83,76.5 1156.5,76.5C 1156.5,74.5 1156.5,72.5 1156.5,70.5C 1159.83,69.8333 1163.17,69.1667 1166.5,68.5 Z"/></g>
<g><path style="opacity:1" fill="#cad68a" d="M 538.5,76.5 C 538.5,77.5 538.5,78.5 538.5,79.5C 540.483,79.1568 541.817,79.8235 542.5,81.5C 539.833,81.5 537.167,81.5 534.5,81.5C 534.5,82.5 534.5,83.5 534.5,84.5C 531.167,84.5 527.833,84.5 524.5,84.5C 524.5,85.5 524.5,86.5 524.5,87.5C 524.5,88.5 524.5,89.5 524.5,90.5C 526.167,90.5 527.833,90.5 529.5,90.5C 529.5,93.1667 529.5,95.8333 529.5,98.5C 536.833,98.5 544.167,98.5 551.5,98.5C 551.5,99.5 551.5,100.5 551.5,101.5C 554.833,101.5 558.167,101.5 561.5,101.5C 561.5,100.5 561.5,99.5 561.5,98.5C 561.5,96.5 561.5,94.5 561.5,92.5C 564.167,92.5 566.833,92.5 569.5,92.5C 569.5,94.5 569.5,96.5 569.5,98.5C 567.833,98.5 566.167,98.5 564.5,98.5C 564.5,100.167 564.5,101.833 564.5,103.5C 563.5,103.5 562.5,103.5 561.5,103.5C 561.5,104.5 561.5,105.5 561.5,106.5C 559.833,106.5 558.167,106.5 556.5,106.5C 556.5,108.5 556.5,110.5 556.5,112.5C 550.5,113.167 544.5,113.833 538.5,114.5C 538.5,115.5 538.5,116.5 538.5,117.5C 533.833,117.5 529.167,117.5 524.5,117.5C 524.5,118.5 524.5,119.5 524.5,120.5C 521.833,120.5 519.167,120.5 516.5,120.5C 516.5,122.167 516.5,123.833 516.5,125.5C 514.833,125.5 513.167,125.5 511.5,125.5C 511.5,126.5 511.5,127.5 511.5,128.5C 508.167,128.5 504.833,128.5 501.5,128.5C 501.5,129.5 501.5,130.5 501.5,131.5C 498.833,131.5 496.167,131.5 493.5,131.5C 493.5,133.167 493.5,134.833 493.5,136.5C 490.167,136.5 486.833,136.5 483.5,136.5C 483.5,137.5 483.5,138.5 483.5,139.5C 479.167,139.5 474.833,139.5 470.5,139.5C 470.5,140.5 470.5,141.5 470.5,142.5C 468.833,142.5 467.167,142.5 465.5,142.5C 465.5,143.5 465.5,144.5 465.5,145.5C 459.974,147.067 454.308,147.734 448.5,147.5C 448.5,148.5 448.5,149.5 448.5,150.5C 445.167,150.5 441.833,150.5 438.5,150.5C 438.5,151.5 438.5,152.5 438.5,153.5C 434.167,153.5 429.833,153.5 425.5,153.5C 425.5,138.833 425.5,124.167 425.5,109.5C 428.833,109.5 432.167,109.5 435.5,109.5C 435.5,108.5 435.5,107.5 435.5,106.5C 436.5,106.5 437.5,106.5 438.5,106.5C 438.5,105.5 438.5,104.5 438.5,103.5C 443.167,103.5 447.833,103.5 452.5,103.5C 452.5,101.833 452.5,100.167 452.5,98.5C 458.5,98.5 464.5,98.5 470.5,98.5C 470.5,97.5 470.5,96.5 470.5,95.5C 472.167,95.5 473.833,95.5 475.5,95.5C 475.5,94.5 475.5,93.5 475.5,92.5C 478.025,91.36 480.692,90.6933 483.5,90.5C 483.5,86.8333 483.5,83.1667 483.5,79.5C 485.167,79.5 486.833,79.5 488.5,79.5C 488.5,78.5 488.5,77.5 488.5,76.5C 491.833,76.5 495.167,76.5 498.5,76.5C 498.5,75.5 498.5,74.5 498.5,73.5C 501.167,73.5 503.833,73.5 506.5,73.5C 506.5,72.5 506.5,71.5 506.5,70.5C 508.167,70.5 509.833,70.5 511.5,70.5C 511.5,71.5 511.5,72.5 511.5,73.5C 513.167,73.5 514.833,73.5 516.5,73.5C 516.5,74.5 516.5,75.5 516.5,76.5C 523.833,76.5 531.167,76.5 538.5,76.5 Z"/></g>
<g><path style="opacity:1" fill="#c8d487" d="M 551.5,70.5 C 553.167,70.5 554.833,70.5 556.5,70.5C 556.5,71.5 556.5,72.5 556.5,73.5C 554.833,73.5 553.167,73.5 551.5,73.5C 551.5,72.5 551.5,71.5 551.5,70.5 Z"/></g>
<g><path style="opacity:1" fill="#c9d48a" d="M 579.5,76.5 C 576.167,76.5 572.833,76.5 569.5,76.5C 569.5,74.5 569.5,72.5 569.5,70.5C 571.167,70.5 572.833,70.5 574.5,70.5C 574.5,71.5 574.5,72.5 574.5,73.5C 576.167,73.5 577.833,73.5 579.5,73.5C 579.5,74.5 579.5,75.5 579.5,76.5 Z"/></g>
<g><path style="opacity:1" fill="#c9d48a" d="M 624.5,70.5 C 627.167,70.5 629.833,70.5 632.5,70.5C 632.5,72.5 632.5,74.5 632.5,76.5C 629.833,76.5 627.167,76.5 624.5,76.5C 624.5,77.5 624.5,78.5 624.5,79.5C 621.564,80.4058 618.564,81.0725 615.5,81.5C 612.167,81.5 608.833,81.5 605.5,81.5C 605.5,79.8333 605.5,78.1667 605.5,76.5C 610.5,76.5 615.5,76.5 620.5,76.5C 620.5,75.5 620.5,74.5 620.5,73.5C 621.833,73.5 623.167,73.5 624.5,73.5C 624.5,72.5 624.5,71.5 624.5,70.5 Z"/></g>
<g><path style="opacity:1" fill="#cad68a" d="M 1027.5,81.5 C 1024.17,81.5 1020.83,81.5 1017.5,81.5C 1015.83,81.5 1014.17,81.5 1012.5,81.5C 1012.5,80.8333 1012.5,80.1667 1012.5,79.5C 1014.17,79.5 1015.83,79.5 1017.5,79.5C 1017.5,78.5 1017.5,77.5 1017.5,76.5C 1015.83,76.5 1014.17,76.5 1012.5,76.5C 1012.5,75.5 1012.5,74.5 1012.5,73.5C 1020.17,73.5 1027.83,73.5 1035.5,73.5C 1035.5,74.5 1035.5,75.5 1035.5,76.5C 1038.5,76.5 1041.5,76.5 1044.5,76.5C 1044.5,75.5 1044.5,74.5 1044.5,73.5C 1046.17,73.5 1047.83,73.5 1049.5,73.5C 1049.5,72.5 1049.5,71.5 1049.5,70.5C 1052.17,70.5 1054.83,70.5 1057.5,70.5C 1057.5,71.5 1057.5,72.5 1057.5,73.5C 1056.17,73.5 1054.83,73.5 1053.5,73.5C 1053.5,75.5 1053.5,77.5 1053.5,79.5C 1044.96,81.2451 1036.3,81.9118 1027.5,81.5 Z"/></g>
<g><path style="opacity:1" fill="#c9d48a" d="M 1093.5,70.5 C 1096.83,70.5 1100.17,70.5 1103.5,70.5C 1103.5,74.1667 1103.5,77.8333 1103.5,81.5C 1097.5,81.5 1091.5,81.5 1085.5,81.5C 1085.5,79.8333 1085.5,78.1667 1085.5,76.5C 1088.17,76.5 1090.83,76.5 1093.5,76.5C 1093.5,75.5 1093.5,74.5 1093.5,73.5C 1093.5,72.5 1093.5,71.5 1093.5,70.5 Z"/></g>
<g><path style="opacity:1" fill="#cad78a" d="M 542.5,73.5 C 542.5,74.5 542.5,75.5 542.5,76.5C 541.167,76.5 539.833,76.5 538.5,76.5C 538.5,75.5 538.5,74.5 538.5,73.5C 539.833,73.5 541.167,73.5 542.5,73.5 Z"/></g>
<g><path style="opacity:1" fill="#cbd488" d="M 1085.5,73.5 C 1088.17,73.5 1090.83,73.5 1093.5,73.5C 1093.5,74.5 1093.5,75.5 1093.5,76.5C 1090.83,76.5 1088.17,76.5 1085.5,76.5C 1085.5,75.5 1085.5,74.5 1085.5,73.5 Z"/></g>
<g><path style="opacity:1" fill="#c7d487" d="M 407.5,76.5 C 409.167,76.5 410.833,76.5 412.5,76.5C 412.5,77.5 412.5,78.5 412.5,79.5C 410.833,79.5 409.167,79.5 407.5,79.5C 407.5,78.5 407.5,77.5 407.5,76.5 Z"/></g>
<g><path style="opacity:1" fill="#c8d58a" d="M 569.5,76.5 C 572.833,76.5 576.167,76.5 579.5,76.5C 579.5,77.5 579.5,78.5 579.5,79.5C 576.167,80.1667 572.833,80.8333 569.5,81.5C 569.5,79.8333 569.5,78.1667 569.5,76.5 Z"/></g>
<g><path style="opacity:1" fill="#cad68a" d="M 1007.5,79.5 C 1006.5,79.5 1005.5,79.5 1004.5,79.5C 1004.5,83.1667 1004.5,86.8333 1004.5,90.5C 1015.17,91.1667 1015.17,91.8333 1004.5,92.5C 1004.5,93.5 1004.5,94.5 1004.5,95.5C 998.5,95.5 992.5,95.5 986.5,95.5C 986.5,96.5 986.5,97.5 986.5,98.5C 983.167,98.5 979.833,98.5 976.5,98.5C 976.5,97.5 976.5,96.5 976.5,95.5C 978.167,95.5 979.833,95.5 981.5,95.5C 981.5,94.5 981.5,93.5 981.5,92.5C 985.833,92.5 990.167,92.5 994.5,92.5C 994.5,87.1667 994.5,81.8333 994.5,76.5C 998.833,76.5 1003.17,76.5 1007.5,76.5C 1007.5,77.5 1007.5,78.5 1007.5,79.5 Z"/></g>
<g><path style="opacity:1" fill="#cbd488" d="M 1075.5,76.5 C 1075.5,78.1667 1075.5,79.8333 1075.5,81.5C 1072.83,81.5 1070.17,81.5 1067.5,81.5C 1067.5,79.8333 1067.5,78.1667 1067.5,76.5C 1070.17,76.5 1072.83,76.5 1075.5,76.5 Z"/></g>
<g><path style="opacity:1" fill="#cad589" d="M 1121.5,73.5 C 1123.17,73.5 1124.83,73.5 1126.5,73.5C 1126.5,75.5 1126.5,77.5 1126.5,79.5C 1124.83,79.5 1123.17,79.5 1121.5,79.5C 1121.5,77.5 1121.5,75.5 1121.5,73.5 Z"/></g>
<g><path style="opacity:1" fill="#c9d48a" d="M 1130.5,76.5 C 1131.83,76.5 1133.17,76.5 1134.5,76.5C 1134.5,78.1667 1134.5,79.8333 1134.5,81.5C 1133.17,81.5 1131.83,81.5 1130.5,81.5C 1130.5,79.8333 1130.5,78.1667 1130.5,76.5 Z"/></g>
<g><path style="opacity:1" fill="#cad68a" d="M 1156.5,76.5 C 1156.5,77.5 1156.5,78.5 1156.5,79.5C 1153.83,79.5 1151.17,79.5 1148.5,79.5C 1148.5,78.5 1148.5,77.5 1148.5,76.5C 1151.17,76.5 1153.83,76.5 1156.5,76.5 Z"/></g>
<g><path style="opacity:1" fill="#c9d58a" d="M 316.5,79.5 C 319.833,80.1667 323.167,80.8333 326.5,81.5C 326.5,83.5 326.5,85.5 326.5,87.5C 323.167,87.5 319.833,87.5 316.5,87.5C 316.5,84.8333 316.5,82.1667 316.5,79.5 Z"/></g>
<g><path style="opacity:1" fill="#cad78a" d="M 420.5,79.5 C 422.167,79.5 423.833,79.5 425.5,79.5C 425.5,81.1667 425.5,82.8333 425.5,84.5C 423.833,84.5 422.167,84.5 420.5,84.5C 420.5,85.5 420.5,86.5 420.5,87.5C 418.833,87.5 417.167,87.5 415.5,87.5C 415.5,85.5 415.5,83.5 415.5,81.5C 417.781,81.9227 419.448,81.256 420.5,79.5 Z"/></g>
<g><path style="opacity:1" fill="#cbd488" d="M 1007.5,79.5 C 1009.17,79.5 1010.83,79.5 1012.5,79.5C 1012.5,80.1667 1012.5,80.8333 1012.5,81.5C 1010.22,81.9227 1008.55,81.256 1007.5,79.5 Z"/></g>
<g><path style="opacity:1" fill="#c9d689" d="M 308.5,84.5 C 306.833,84.5 305.167,84.5 303.5,84.5C 303.5,83.5 303.5,82.5 303.5,81.5C 305.167,81.5 306.833,81.5 308.5,81.5C 308.5,82.5 308.5,83.5 308.5,84.5 Z"/></g>
<g><path style="opacity:1" fill="#c8d588" d="M 493.5,81.5 C 495.167,81.5 496.833,81.5 498.5,81.5C 498.5,86.1667 498.5,90.8333 498.5,95.5C 496.833,95.5 495.167,95.5 493.5,95.5C 493.5,90.8333 493.5,86.1667 493.5,81.5 Z"/></g>
<g><path style="opacity:1" fill="#c9d48a" d="M 524.5,84.5 C 522.833,84.5 521.167,84.5 519.5,84.5C 519.5,85.5 519.5,86.5 519.5,87.5C 516.833,87.5 514.167,87.5 511.5,87.5C 511.5,86.5 511.5,85.5 511.5,84.5C 509.833,84.5 508.167,84.5 506.5,84.5C 506.5,83.5 506.5,82.5 506.5,81.5C 512.5,81.5 518.5,81.5 524.5,81.5C 524.5,82.5 524.5,83.5 524.5,84.5 Z"/></g>
<g><path style="opacity:1" fill="#c9d48a" d="M 542.5,81.5 C 542.5,83.5 542.5,85.5 542.5,87.5C 539.833,87.5 537.167,87.5 534.5,87.5C 534.5,86.5 534.5,85.5 534.5,84.5C 534.5,83.5 534.5,82.5 534.5,81.5C 537.167,81.5 539.833,81.5 542.5,81.5 Z"/></g>
<g><path style="opacity:1" fill="#cbd488" d="M 542.5,81.5 C 545.5,81.5 548.5,81.5 551.5,81.5C 551.5,83.5 551.5,85.5 551.5,87.5C 548.5,87.5 545.5,87.5 542.5,87.5C 542.5,85.5 542.5,83.5 542.5,81.5 Z"/></g>
<g><path style="opacity:1" fill="#c9d58a" d="M 587.5,81.5 C 587.5,84.5 587.5,87.5 587.5,90.5C 590.833,90.5 594.167,90.5 597.5,90.5C 599.288,90.2148 600.955,90.5481 602.5,91.5C 599.232,92.487 595.898,92.8204 592.5,92.5C 592.5,93.5 592.5,94.5 592.5,95.5C 589.167,95.5 585.833,95.5 582.5,95.5C 582.5,94.5 582.5,93.5 582.5,92.5C 581.5,92.5 580.5,92.5 579.5,92.5C 576.167,92.5 572.833,92.5 569.5,92.5C 569.5,90.8333 569.5,89.1667 569.5,87.5C 572.833,87.5 576.167,87.5 579.5,87.5C 579.5,86.5 579.5,85.5 579.5,84.5C 580.5,84.5 581.5,84.5 582.5,84.5C 582.5,83.5 582.5,82.5 582.5,81.5C 584.167,81.5 585.833,81.5 587.5,81.5 Z"/></g>
<g><path style="opacity:1" fill="#c9d48a" d="M 587.5,81.5 C 590.833,81.5 594.167,81.5 597.5,81.5C 597.5,84.5 597.5,87.5 597.5,90.5C 594.167,90.5 590.833,90.5 587.5,90.5C 587.5,87.5 587.5,84.5 587.5,81.5 Z"/></g>
<g><path style="opacity:1" fill="#cad488" d="M 1017.5,81.5 C 1020.83,81.5 1024.17,81.5 1027.5,81.5C 1027.5,82.5 1027.5,83.5 1027.5,84.5C 1028.5,84.5 1029.5,84.5 1030.5,84.5C 1030.5,86.5 1030.5,88.5 1030.5,90.5C 1029.5,90.5 1028.5,90.5 1027.5,90.5C 1027.5,89.5 1027.5,88.5 1027.5,87.5C 1025.83,87.5 1024.17,87.5 1022.5,87.5C 1022.5,86.5 1022.5,85.5 1022.5,84.5C 1020.83,84.5 1019.17,84.5 1017.5,84.5C 1017.5,83.5 1017.5,82.5 1017.5,81.5 Z"/></g>
<g><path style="opacity:1" fill="#c9d48a" d="M 1121.5,84.5 C 1119.83,84.5 1118.17,84.5 1116.5,84.5C 1116.5,85.5 1116.5,86.5 1116.5,87.5C 1115.5,87.5 1114.5,87.5 1113.5,87.5C 1113.5,85.5 1113.5,83.5 1113.5,81.5C 1116.17,81.5 1118.83,81.5 1121.5,81.5C 1121.5,82.5 1121.5,83.5 1121.5,84.5 Z"/></g>
<g><path style="opacity:1" fill="#cad68a" d="M 303.5,84.5 C 303.5,86.5 303.5,88.5 303.5,90.5C 300.436,90.9275 297.436,91.5942 294.5,92.5C 294.5,93.5 294.5,94.5 294.5,95.5C 292.833,95.5 291.167,95.5 289.5,95.5C 289.5,94.5 289.5,93.5 289.5,92.5C 288.022,92.762 286.689,92.4287 285.5,91.5C 288.428,90.5159 291.428,90.1826 294.5,90.5C 294.5,89.5 294.5,88.5 294.5,87.5C 295.833,87.5 297.167,87.5 298.5,87.5C 298.5,86.5 298.5,85.5 298.5,84.5C 300.167,84.5 301.833,84.5 303.5,84.5 Z"/></g>
<g><path style="opacity:1" fill="#c9d689" d="M 308.5,84.5 C 309.5,84.5 310.5,84.5 311.5,84.5C 311.5,85.5 311.5,86.5 311.5,87.5C 310.5,87.5 309.5,87.5 308.5,87.5C 308.5,86.5 308.5,85.5 308.5,84.5 Z"/></g>
<g><path style="opacity:1" fill="#cbd488" d="M 524.5,84.5 C 527.833,84.5 531.167,84.5 534.5,84.5C 534.5,85.5 534.5,86.5 534.5,87.5C 531.167,87.5 527.833,87.5 524.5,87.5C 524.5,86.5 524.5,85.5 524.5,84.5 Z"/></g>
<g><path style="opacity:1" fill="#c9d488" d="M 1049.5,84.5 C 1052.17,84.5 1054.83,84.5 1057.5,84.5C 1057.5,85.5 1057.5,86.5 1057.5,87.5C 1054.83,87.5 1052.17,87.5 1049.5,87.5C 1049.5,86.5 1049.5,85.5 1049.5,84.5 Z"/></g>
<g><path style="opacity:1" fill="#cad689" d="M 1062.5,87.5 C 1064.17,87.5 1065.83,87.5 1067.5,87.5C 1067.5,88.5 1067.5,89.5 1067.5,90.5C 1065.83,90.5 1064.17,90.5 1062.5,90.5C 1062.5,89.5 1062.5,88.5 1062.5,87.5 Z"/></g>
<g><path style="opacity:1" fill="#cbd488" d="M 1080.5,92.5 C 1078.83,92.5 1077.17,92.5 1075.5,92.5C 1075.5,90.8333 1075.5,89.1667 1075.5,87.5C 1077.17,87.5 1078.83,87.5 1080.5,87.5C 1080.5,89.1667 1080.5,90.8333 1080.5,92.5 Z"/></g>
<g><path style="opacity:1" fill="#cbd68a" d="M 1121.5,84.5 C 1123.17,84.5 1124.83,84.5 1126.5,84.5C 1126.5,85.5 1126.5,86.5 1126.5,87.5C 1124.83,87.5 1123.17,87.5 1121.5,87.5C 1121.5,88.5 1121.5,89.5 1121.5,90.5C 1118.83,90.5 1116.17,90.5 1113.5,90.5C 1113.5,89.5 1113.5,88.5 1113.5,87.5C 1114.5,87.5 1115.5,87.5 1116.5,87.5C 1116.5,86.5 1116.5,85.5 1116.5,84.5C 1118.17,84.5 1119.83,84.5 1121.5,84.5 Z"/></g>
<g><path style="opacity:1" fill="#c7d487" d="M 311.5,90.5 C 313.288,90.2148 314.955,90.5481 316.5,91.5C 315.667,91.8333 314.833,92.1667 314,92.5C 312.624,92.3158 311.791,91.6491 311.5,90.5 Z"/></g>
<g><path style="opacity:1" fill="#c7d487" d="M 326.5,90.5 C 327.675,90.281 328.675,90.6143 329.5,91.5C 327.948,92.7979 326.948,92.4646 326.5,90.5 Z"/></g>
<g><path style="opacity:1" fill="#cad689" d="M 551.5,90.5 C 553.288,90.2148 554.955,90.5481 556.5,91.5C 555.667,91.8333 554.833,92.1667 554,92.5C 552.624,92.3158 551.791,91.6491 551.5,90.5 Z"/></g>
<g><path style="opacity:1" fill="#cad689" d="M 1022.5,92.5 C 1020.71,92.7852 1019.05,92.4519 1017.5,91.5C 1018.33,91.1667 1019.17,90.8333 1020,90.5C 1021.38,90.6842 1022.21,91.3509 1022.5,92.5 Z"/></g>
<g><path style="opacity:1" fill="#cad68a" d="M 1049.5,95.5 C 1049.5,96.5 1049.5,97.5 1049.5,98.5C 1047.83,98.5 1046.17,98.5 1044.5,98.5C 1044.5,99.5 1044.5,100.5 1044.5,101.5C 1046.78,101.077 1048.45,101.744 1049.5,103.5C 1044.73,103.402 1040.07,102.736 1035.5,101.5C 1035.5,100.5 1035.5,99.5 1035.5,98.5C 1037.17,98.5 1038.83,98.5 1040.5,98.5C 1040.5,95.8333 1040.5,93.1667 1040.5,90.5C 1041.83,90.5 1043.17,90.5 1044.5,90.5C 1044.5,92.1667 1044.5,93.8333 1044.5,95.5C 1046.17,95.5 1047.83,95.5 1049.5,95.5 Z"/></g>
<g><path style="opacity:1" fill="#c9d689" d="M 1103.5,92.5 C 1103.79,91.3509 1104.62,90.6842 1106,90.5C 1106.83,90.8333 1107.67,91.1667 1108.5,91.5C 1106.95,92.4519 1105.29,92.7852 1103.5,92.5 Z"/></g>
<g><path style="opacity:1" fill="#cad68a" d="M 253.5,101.5 C 253.5,100.5 253.5,99.5 253.5,98.5C 247.5,98.5 241.5,98.5 235.5,98.5C 235.5,96.5 235.5,94.5 235.5,92.5C 243.167,92.5 250.833,92.5 258.5,92.5C 258.5,93.5 258.5,94.5 258.5,95.5C 260.167,95.5 261.833,95.5 263.5,95.5C 263.5,96.5 263.5,97.5 263.5,98.5C 264.5,98.5 265.5,98.5 266.5,98.5C 266.5,100.167 266.5,101.833 266.5,103.5C 262.077,103.31 257.744,102.643 253.5,101.5 Z"/></g>
<g><path style="opacity:1" fill="#c7d487" d="M 375.5,92.5 C 376.833,92.5 378.167,92.5 379.5,92.5C 379.5,93.5 379.5,94.5 379.5,95.5C 378.167,95.5 376.833,95.5 375.5,95.5C 375.5,94.5 375.5,93.5 375.5,92.5 Z"/></g>
<g><path style="opacity:1" fill="#c9d38a" d="M 569.5,92.5 C 572.833,92.5 576.167,92.5 579.5,92.5C 579.5,93.5 579.5,94.5 579.5,95.5C 577.833,95.5 576.167,95.5 574.5,95.5C 574.5,96.5 574.5,97.5 574.5,98.5C 572.833,98.5 571.167,98.5 569.5,98.5C 569.5,96.5 569.5,94.5 569.5,92.5 Z"/></g>
<g><path style="opacity:1" fill="#c9d48a" d="M 1022.5,92.5 C 1025.17,92.5 1027.83,92.5 1030.5,92.5C 1030.5,94.5 1030.5,96.5 1030.5,98.5C 1027.83,98.5 1025.17,98.5 1022.5,98.5C 1022.5,96.5 1022.5,94.5 1022.5,92.5 Z"/></g>
<g><path style="opacity:1" fill="#c8d487" d="M 1049.5,95.5 C 1049.5,94.5 1049.5,93.5 1049.5,92.5C 1050.83,92.5 1052.17,92.5 1053.5,92.5C 1053.5,93.5 1053.5,94.5 1053.5,95.5C 1052.17,95.5 1050.83,95.5 1049.5,95.5 Z"/></g>
<g><path style="opacity:1" fill="#cad68a" d="M 1103.5,92.5 C 1103.5,94.5 1103.5,96.5 1103.5,98.5C 1100.17,98.5 1096.83,98.5 1093.5,98.5C 1093.5,96.5 1093.5,94.5 1093.5,92.5C 1096.83,92.5 1100.17,92.5 1103.5,92.5 Z"/></g>
<g><path style="opacity:1" fill="#cad68a" d="M 1505.5,92.5 C 1505.5,94.5 1505.5,96.5 1505.5,98.5C 1503.83,98.5 1502.17,98.5 1500.5,98.5C 1498.83,98.5 1497.17,98.5 1495.5,98.5C 1495.5,99.5 1495.5,100.5 1495.5,101.5C 1493.82,101.285 1492.82,101.952 1492.5,103.5C 1489.17,103.5 1485.83,103.5 1482.5,103.5C 1482.5,104.5 1482.5,105.5 1482.5,106.5C 1480.83,106.5 1479.17,106.5 1477.5,106.5C 1477.5,107.5 1477.5,108.5 1477.5,109.5C 1480.83,109.5 1484.17,109.5 1487.5,109.5C 1487.5,108.5 1487.5,107.5 1487.5,106.5C 1489.17,106.5 1490.83,106.5 1492.5,106.5C 1495.17,106.5 1497.83,106.5 1500.5,106.5C 1500.5,107.5 1500.5,108.5 1500.5,109.5C 1498.83,109.5 1497.17,109.5 1495.5,109.5C 1495.5,112.167 1495.5,114.833 1495.5,117.5C 1497.17,117.5 1498.83,117.5 1500.5,117.5C 1500.5,121.167 1500.5,124.833 1500.5,128.5C 1498.83,128.5 1497.17,128.5 1495.5,128.5C 1495.5,129.5 1495.5,130.5 1495.5,131.5C 1492.83,131.5 1490.17,131.5 1487.5,131.5C 1487.5,132.5 1487.5,133.5 1487.5,134.5C 1493.5,134.5 1499.5,134.5 1505.5,134.5C 1505.5,136.167 1505.5,137.833 1505.5,139.5C 1502.17,139.5 1498.83,139.5 1495.5,139.5C 1495.5,140.5 1495.5,141.5 1495.5,142.5C 1492.83,142.5 1490.17,142.5 1487.5,142.5C 1487.5,143.5 1487.5,144.5 1487.5,145.5C 1484.17,146.167 1480.83,146.833 1477.5,147.5C 1477.5,148.5 1477.5,149.5 1477.5,150.5C 1476.17,150.5 1474.83,150.5 1473.5,150.5C 1473.5,151.5 1473.5,152.5 1473.5,153.5C 1467.5,153.5 1461.5,153.5 1455.5,153.5C 1455.5,152.5 1455.5,151.5 1455.5,150.5C 1449.5,150.5 1443.5,150.5 1437.5,150.5C 1437.5,148.833 1437.5,147.167 1437.5,145.5C 1434.83,145.5 1432.17,145.5 1429.5,145.5C 1429.5,143.5 1429.5,141.5 1429.5,139.5C 1427.83,139.5 1426.17,139.5 1424.5,139.5C 1424.5,138.5 1424.5,137.5 1424.5,136.5C 1422.83,136.5 1421.17,136.5 1419.5,136.5C 1419.5,129.167 1419.5,121.833 1419.5,114.5C 1423.83,114.5 1428.17,114.5 1432.5,114.5C 1432.5,115.5 1432.5,116.5 1432.5,117.5C 1434.17,117.5 1435.83,117.5 1437.5,117.5C 1437.5,113.833 1437.5,110.167 1437.5,106.5C 1439.17,106.5 1440.83,106.5 1442.5,106.5C 1442.5,107.5 1442.5,108.5 1442.5,109.5C 1444.17,109.5 1445.83,109.5 1447.5,109.5C 1447.5,110.5 1447.5,111.5 1447.5,112.5C 1448.83,112.5 1450.17,112.5 1451.5,112.5C 1451.5,111.5 1451.5,110.5 1451.5,109.5C 1452.83,109.5 1454.17,109.5 1455.5,109.5C 1455.5,108.5 1455.5,107.5 1455.5,106.5C 1457.17,106.5 1458.83,106.5 1460.5,106.5C 1460.5,105.5 1460.5,104.5 1460.5,103.5C 1466.31,103.734 1471.97,103.067 1477.5,101.5C 1477.5,100.5 1477.5,99.5 1477.5,98.5C 1480.83,98.5 1484.17,98.5 1487.5,98.5C 1487.5,97.5 1487.5,96.5 1487.5,95.5C 1490.17,95.5 1492.83,95.5 1495.5,95.5C 1495.5,94.5 1495.5,93.5 1495.5,92.5C 1498.83,92.5 1502.17,92.5 1505.5,92.5 Z"/></g>
<g><path style="opacity:1" fill="#c9d48a" d="M 289.5,95.5 C 289.5,96.5 289.5,97.5 289.5,98.5C 286.833,98.5 284.167,98.5 281.5,98.5C 281.5,97.5 281.5,96.5 281.5,95.5C 284.167,95.5 286.833,95.5 289.5,95.5 Z"/></g>
<g><path style="opacity:1" fill="#cad48b" d="M 1080.5,92.5 C 1082.17,92.5 1083.83,92.5 1085.5,92.5C 1085.5,94.5 1085.5,96.5 1085.5,98.5C 1082.17,98.5 1078.83,98.5 1075.5,98.5C 1075.5,97.5 1075.5,96.5 1075.5,95.5C 1077.17,95.5 1078.83,95.5 1080.5,95.5C 1080.5,94.5 1080.5,93.5 1080.5,92.5 Z"/></g>
<g><path style="opacity:1" fill="#cad68a" d="M 235.5,98.5 C 235.5,99.5 235.5,100.5 235.5,101.5C 232.167,102.167 228.833,102.833 225.5,103.5C 225.5,101.833 225.5,100.167 225.5,98.5C 228.833,98.5 232.167,98.5 235.5,98.5 Z"/></g>
<g><path style="opacity:1" fill="#c9d48a" d="M 235.5,98.5 C 241.5,98.5 247.5,98.5 253.5,98.5C 253.5,99.5 253.5,100.5 253.5,101.5C 250.913,102.816 247.913,103.483 244.5,103.5C 241.087,103.483 238.087,102.816 235.5,101.5C 235.5,100.5 235.5,99.5 235.5,98.5 Z"/></g>
<g><path style="opacity:1" fill="#c8d487" d="M 289.5,98.5 C 291.167,98.5 292.833,98.5 294.5,98.5C 294.5,100.167 294.5,101.833 294.5,103.5C 292.833,103.5 291.167,103.5 289.5,103.5C 289.5,101.833 289.5,100.167 289.5,98.5 Z"/></g>
<g><path style="opacity:1" fill="#c9d48a" d="M 551.5,98.5 C 554.833,98.5 558.167,98.5 561.5,98.5C 561.5,99.5 561.5,100.5 561.5,101.5C 558.167,101.5 554.833,101.5 551.5,101.5C 551.5,100.5 551.5,99.5 551.5,98.5 Z"/></g>
<g><path style="opacity:1" fill="#cad68a" d="M 574.5,98.5 C 577.167,98.5 579.833,98.5 582.5,98.5C 582.5,99.5 582.5,100.5 582.5,101.5C 579.833,101.5 577.167,101.5 574.5,101.5C 574.5,100.5 574.5,99.5 574.5,98.5 Z"/></g>
<g><path style="opacity:1" fill="#cad68a" d="M 976.5,98.5 C 976.5,99.5 976.5,100.5 976.5,101.5C 973.5,101.5 970.5,101.5 967.5,101.5C 967.5,100.5 967.5,99.5 967.5,98.5C 970.5,98.5 973.5,98.5 976.5,98.5 Z"/></g>
<g><path style="opacity:1" fill="#cad689" d="M 1022.5,98.5 C 1022.5,99.5 1022.5,100.5 1022.5,101.5C 1020.83,101.5 1019.17,101.5 1017.5,101.5C 1017.5,100.5 1017.5,99.5 1017.5,98.5C 1019.17,98.5 1020.83,98.5 1022.5,98.5 Z"/></g>
<g><path style="opacity:1" fill="#cad689" d="M 1057.5,98.5 C 1057.5,99.5 1057.5,100.5 1057.5,101.5C 1056.17,101.5 1054.83,101.5 1053.5,101.5C 1053.5,100.5 1053.5,99.5 1053.5,98.5C 1054.83,98.5 1056.17,98.5 1057.5,98.5 Z"/></g>
<g><path style="opacity:1" fill="#cbd488" d="M 1057.5,98.5 C 1059.17,98.5 1060.83,98.5 1062.5,98.5C 1062.5,99.5 1062.5,100.5 1062.5,101.5C 1060.83,101.5 1059.17,101.5 1057.5,101.5C 1057.5,100.5 1057.5,99.5 1057.5,98.5 Z"/></g>
<g><path style="opacity:1" fill="#cad68a" d="M 1075.5,98.5 C 1078.83,98.5 1082.17,98.5 1085.5,98.5C 1085.5,100.167 1085.5,101.833 1085.5,103.5C 1082.86,103.447 1080.36,102.78 1078,101.5C 1074.66,103.044 1071.16,103.71 1067.5,103.5C 1067.5,101.833 1067.5,100.167 1067.5,98.5C 1070.17,98.5 1072.83,98.5 1075.5,98.5 Z"/></g>
<g><path style="opacity:1" fill="#c9d48a" d="M 1500.5,98.5 C 1500.5,101.167 1500.5,103.833 1500.5,106.5C 1497.83,106.5 1495.17,106.5 1492.5,106.5C 1492.5,105.5 1492.5,104.5 1492.5,103.5C 1492.82,101.952 1493.82,101.285 1495.5,101.5C 1495.5,100.5 1495.5,99.5 1495.5,98.5C 1497.17,98.5 1498.83,98.5 1500.5,98.5 Z"/></g>
<g><path style="opacity:1" fill="#c9d689" d="M 574.5,101.5 C 574.209,102.649 573.376,103.316 572,103.5C 571.167,103.167 570.333,102.833 569.5,102.5C 571.045,101.548 572.712,101.215 574.5,101.5 Z"/></g>
<g><path style="opacity:1" fill="#c9d588" d="M 529.5,103.5 C 531.167,103.5 532.833,103.5 534.5,103.5C 534.5,105.5 534.5,107.5 534.5,109.5C 526.833,109.5 519.167,109.5 511.5,109.5C 511.5,108.5 511.5,107.5 511.5,106.5C 517.5,106.5 523.5,106.5 529.5,106.5C 529.5,105.5 529.5,104.5 529.5,103.5 Z"/></g>
<g><path style="opacity:1" fill="#c9d48a" d="M 542.5,103.5 C 544.167,103.5 545.833,103.5 547.5,103.5C 547.5,105.5 547.5,107.5 547.5,109.5C 545.833,109.5 544.167,109.5 542.5,109.5C 542.5,107.5 542.5,105.5 542.5,103.5 Z"/></g>
<g><path style="opacity:1" fill="#c9d689" d="M 949.5,103.5 C 952.5,103.5 955.5,103.5 958.5,103.5C 958.5,104.5 958.5,105.5 958.5,106.5C 957.167,106.5 955.833,106.5 954.5,106.5C 954.5,107.5 954.5,108.5 954.5,109.5C 952.833,109.5 951.167,109.5 949.5,109.5C 949.5,107.5 949.5,105.5 949.5,103.5 Z"/></g>
<g><path style="opacity:1" fill="#c8d487" d="M 967.5,103.5 C 968.833,103.5 970.167,103.5 971.5,103.5C 971.5,104.5 971.5,105.5 971.5,106.5C 970.167,106.5 968.833,106.5 967.5,106.5C 967.5,105.5 967.5,104.5 967.5,103.5 Z"/></g>
<g><path style="opacity:1" fill="#c9d48a" d="M 976.5,103.5 C 979.833,103.5 983.167,103.5 986.5,103.5C 986.5,105.5 986.5,107.5 986.5,109.5C 983.167,109.5 979.833,109.5 976.5,109.5C 976.5,107.5 976.5,105.5 976.5,103.5 Z"/></g>
<g><path style="opacity:1" fill="#c8d58a" d="M 1049.5,103.5 C 1052.17,103.5 1054.83,103.5 1057.5,103.5C 1057.5,104.5 1057.5,105.5 1057.5,106.5C 1056.17,106.5 1054.83,106.5 1053.5,106.5C 1053.5,107.5 1053.5,108.5 1053.5,109.5C 1052.17,109.5 1050.83,109.5 1049.5,109.5C 1049.5,107.5 1049.5,105.5 1049.5,103.5 Z"/></g>
<g><path style="opacity:1" fill="#cad78a" d="M 1067.5,103.5 C 1067.5,104.5 1067.5,105.5 1067.5,106.5C 1065.83,106.5 1064.17,106.5 1062.5,106.5C 1062.5,105.5 1062.5,104.5 1062.5,103.5C 1064.17,103.5 1065.83,103.5 1067.5,103.5 Z"/></g>
<g><path style="opacity:1" fill="#c9d588" d="M 1492.5,103.5 C 1492.5,104.5 1492.5,105.5 1492.5,106.5C 1490.83,106.5 1489.17,106.5 1487.5,106.5C 1487.5,107.5 1487.5,108.5 1487.5,109.5C 1484.17,109.5 1480.83,109.5 1477.5,109.5C 1477.5,108.5 1477.5,107.5 1477.5,106.5C 1479.17,106.5 1480.83,106.5 1482.5,106.5C 1482.5,105.5 1482.5,104.5 1482.5,103.5C 1485.83,103.5 1489.17,103.5 1492.5,103.5 Z"/></g>
<g><path style="opacity:1" fill="#c8d488" d="M 362.5,106.5 C 365.5,106.5 368.5,106.5 371.5,106.5C 371.5,108.5 371.5,110.5 371.5,112.5C 368.564,113.406 365.564,114.072 362.5,114.5C 362.5,111.833 362.5,109.167 362.5,106.5 Z"/></g>
<g><path style="opacity:1" fill="#cad68a" d="M 926.5,106.5 C 928.167,106.5 929.833,106.5 931.5,106.5C 931.5,107.5 931.5,108.5 931.5,109.5C 935.833,109.5 940.167,109.5 944.5,109.5C 944.5,110.5 944.5,111.5 944.5,112.5C 938.5,112.5 932.5,112.5 926.5,112.5C 926.5,110.5 926.5,108.5 926.5,106.5 Z"/></g>
<g><path style="opacity:1" fill="#c9d68a" d="M 1040.5,112.5 C 1043.5,112.5 1046.5,112.5 1049.5,112.5C 1049.5,111.5 1049.5,110.5 1049.5,109.5C 1050.83,109.5 1052.17,109.5 1053.5,109.5C 1053.5,108.5 1053.5,107.5 1053.5,106.5C 1054.83,106.5 1056.17,106.5 1057.5,106.5C 1059.17,106.5 1060.83,106.5 1062.5,106.5C 1062.5,108.5 1062.5,110.5 1062.5,112.5C 1059.5,112.5 1056.5,112.5 1053.5,112.5C 1053.5,114.167 1053.5,115.833 1053.5,117.5C 1050.5,117.5 1047.5,117.5 1044.5,117.5C 1044.5,118.5 1044.5,119.5 1044.5,120.5C 1043.17,120.5 1041.83,120.5 1040.5,120.5C 1040.5,119.5 1040.5,118.5 1040.5,117.5C 1038.83,117.5 1037.17,117.5 1035.5,117.5C 1035.5,118.5 1035.5,119.5 1035.5,120.5C 1033.83,120.5 1032.17,120.5 1030.5,120.5C 1030.5,122.167 1030.5,123.833 1030.5,125.5C 1029.5,125.5 1028.5,125.5 1027.5,125.5C 1027.5,126.5 1027.5,127.5 1027.5,128.5C 1025.83,128.5 1024.17,128.5 1022.5,128.5C 1022.5,125.833 1022.5,123.167 1022.5,120.5C 1022.5,118.5 1022.5,116.5 1022.5,114.5C 1021.45,112.744 1019.78,112.077 1017.5,112.5C 1017.5,110.5 1017.5,108.5 1017.5,106.5C 1019.17,106.5 1020.83,106.5 1022.5,106.5C 1022.5,107.5 1022.5,108.5 1022.5,109.5C 1024.17,109.5 1025.83,109.5 1027.5,109.5C 1027.5,110.5 1027.5,111.5 1027.5,112.5C 1030.05,113.413 1032.72,114.08 1035.5,114.5C 1037.64,114.444 1039.31,113.777 1040.5,112.5 Z"/></g>
<g><path style="opacity:1" fill="#cad68a" d="M 222.5,109.5 C 226.833,109.5 231.167,109.5 235.5,109.5C 235.5,110.5 235.5,111.5 235.5,112.5C 230.985,112.272 226.652,112.938 222.5,114.5C 222.5,112.833 222.5,111.167 222.5,109.5 Z"/></g>
<g><path style="opacity:1" fill="#c9d48a" d="M 498.5,109.5 C 501.167,109.5 503.833,109.5 506.5,109.5C 506.5,110.5 506.5,111.5 506.5,112.5C 513.167,113.167 513.167,113.833 506.5,114.5C 506.5,115.5 506.5,116.5 506.5,117.5C 504.833,117.5 503.167,117.5 501.5,117.5C 501.5,118.5 501.5,119.5 501.5,120.5C 500.5,120.5 499.5,120.5 498.5,120.5C 498.5,116.833 498.5,113.167 498.5,109.5 Z"/></g>
<g><path style="opacity:1" fill="#cad78a" d="M 913.5,109.5 C 916.833,109.5 920.167,109.5 923.5,109.5C 923.5,110.5 923.5,111.5 923.5,112.5C 920.167,112.5 916.833,112.5 913.5,112.5C 913.5,111.5 913.5,110.5 913.5,109.5 Z"/></g>
<g><path style="opacity:1" fill="#c9d48a" d="M 1049.5,109.5 C 1049.5,110.5 1049.5,111.5 1049.5,112.5C 1046.5,112.5 1043.5,112.5 1040.5,112.5C 1040.5,111.5 1040.5,110.5 1040.5,109.5C 1043.5,109.5 1046.5,109.5 1049.5,109.5 Z"/></g>
<g><path style="opacity:1" fill="#c9d787" d="M 1487.5,109.5 C 1489.17,109.5 1490.83,109.5 1492.5,109.5C 1492.5,110.5 1492.5,111.5 1492.5,112.5C 1490.83,112.5 1489.17,112.5 1487.5,112.5C 1487.5,111.5 1487.5,110.5 1487.5,109.5 Z"/></g>
<g><path style="opacity:1" fill="#cad68a" d="M 1004.5,117.5 C 1002.83,117.5 1001.17,117.5 999.5,117.5C 999.5,116.5 999.5,115.5 999.5,114.5C 997.712,114.785 996.045,114.452 994.5,113.5C 997.768,112.513 1001.1,112.18 1004.5,112.5C 1004.5,114.167 1004.5,115.833 1004.5,117.5 Z"/></g>
<g><path style="opacity:1" fill="#cad689" d="M 266.5,114.5 C 268.167,114.5 269.833,114.5 271.5,114.5C 271.5,115.5 271.5,116.5 271.5,117.5C 269.833,117.5 268.167,117.5 266.5,117.5C 266.5,116.5 266.5,115.5 266.5,114.5 Z"/></g>
<g><path style="opacity:1" fill="#c9d48a" d="M 281.5,114.5 C 284.167,114.5 286.833,114.5 289.5,114.5C 289.5,116.5 289.5,118.5 289.5,120.5C 286.833,120.5 284.167,120.5 281.5,120.5C 281.5,118.5 281.5,116.5 281.5,114.5 Z"/></g>
<g><path style="opacity:1" fill="#c9d689" d="M 298.5,114.5 C 300.167,114.5 301.833,114.5 303.5,114.5C 303.5,115.5 303.5,116.5 303.5,117.5C 301.833,117.5 300.167,117.5 298.5,117.5C 298.5,116.5 298.5,115.5 298.5,114.5 Z"/></g>
<g><path style="opacity:1" fill="#c9d38a" d="M 316.5,117.5 C 314.833,117.5 313.167,117.5 311.5,117.5C 311.5,118.5 311.5,119.5 311.5,120.5C 310.5,120.5 309.5,120.5 308.5,120.5C 308.5,118.5 308.5,116.5 308.5,114.5C 311.167,114.5 313.833,114.5 316.5,114.5C 316.5,115.5 316.5,116.5 316.5,117.5 Z"/></g>
<g><path style="opacity:1" fill="#c9d58a" d="M 308.5,120.5 C 309.5,120.5 310.5,120.5 311.5,120.5C 311.5,119.5 311.5,118.5 311.5,117.5C 313.167,117.5 314.833,117.5 316.5,117.5C 318.167,117.5 319.833,117.5 321.5,117.5C 321.5,118.5 321.5,119.5 321.5,120.5C 323.167,120.5 324.833,120.5 326.5,120.5C 326.5,118.5 326.5,116.5 326.5,114.5C 332.5,114.5 338.5,114.5 344.5,114.5C 344.5,118.167 344.5,121.833 344.5,125.5C 346.167,125.5 347.833,125.5 349.5,125.5C 349.5,126.5 349.5,127.5 349.5,128.5C 341.833,128.5 334.167,128.5 326.5,128.5C 326.5,127.5 326.5,126.5 326.5,125.5C 321.5,125.5 316.5,125.5 311.5,125.5C 311.5,126.5 311.5,127.5 311.5,128.5C 310.5,128.5 309.5,128.5 308.5,128.5C 308.5,125.833 308.5,123.167 308.5,120.5 Z"/></g>
<g><path style="opacity:1" fill="#cad68a" d="M 967.5,139.5 C 970.5,139.5 973.5,139.5 976.5,139.5C 976.5,140.5 976.5,141.5 976.5,142.5C 974.833,142.5 973.167,142.5 971.5,142.5C 971.5,143.5 971.5,144.5 971.5,145.5C 968.833,146.167 966.167,146.833 963.5,147.5C 963.5,148.5 963.5,149.5 963.5,150.5C 951.167,150.5 938.833,150.5 926.5,150.5C 926.5,149.5 926.5,148.5 926.5,147.5C 925.5,147.5 924.5,147.5 923.5,147.5C 923.5,144.833 923.5,142.167 923.5,139.5C 920.167,139.5 916.833,139.5 913.5,139.5C 913.5,137.833 913.5,136.167 913.5,134.5C 911.833,134.5 910.167,134.5 908.5,134.5C 908.5,133.5 908.5,132.5 908.5,131.5C 906.833,131.5 905.167,131.5 903.5,131.5C 903.5,126.833 903.5,122.167 903.5,117.5C 905.167,117.5 906.833,117.5 908.5,117.5C 908.5,116.5 908.5,115.5 908.5,114.5C 910.167,114.5 911.833,114.5 913.5,114.5C 913.5,116.5 913.5,118.5 913.5,120.5C 915.167,120.5 916.833,120.5 918.5,120.5C 918.5,119.5 918.5,118.5 918.5,117.5C 922.833,117.5 927.167,117.5 931.5,117.5C 931.5,118.5 931.5,119.5 931.5,120.5C 934.833,120.5 938.167,120.5 941.5,120.5C 941.5,124.167 941.5,127.833 941.5,131.5C 942.5,131.5 943.5,131.5 944.5,131.5C 944.5,132.5 944.5,133.5 944.5,134.5C 946.167,134.5 947.833,134.5 949.5,134.5C 949.5,138.167 949.5,141.833 949.5,145.5C 954.167,145.5 958.833,145.5 963.5,145.5C 963.5,144.5 963.5,143.5 963.5,142.5C 964.833,142.5 966.167,142.5 967.5,142.5C 967.5,141.5 967.5,140.5 967.5,139.5 Z"/></g>
<g><path style="opacity:1" fill="#cbd488" d="M 976.5,117.5 C 973.5,117.5 970.5,117.5 967.5,117.5C 967.5,116.5 967.5,115.5 967.5,114.5C 970.5,114.5 973.5,114.5 976.5,114.5C 976.5,115.5 976.5,116.5 976.5,117.5 Z"/></g>
<g><path style="opacity:1" fill="#cad48a" d="M 1022.5,114.5 C 1022.5,116.5 1022.5,118.5 1022.5,120.5C 1019.17,120.5 1015.83,120.5 1012.5,120.5C 1012.5,122.167 1012.5,123.833 1012.5,125.5C 1009.83,125.5 1007.17,125.5 1004.5,125.5C 1004.5,123.833 1004.5,122.167 1004.5,120.5C 1004.5,119.5 1004.5,118.5 1004.5,117.5C 1005.5,117.5 1006.5,117.5 1007.5,117.5C 1007.5,116.5 1007.5,115.5 1007.5,114.5C 1012.5,114.5 1017.5,114.5 1022.5,114.5 Z"/></g>
<g><path style="opacity:1" fill="#cad68a" d="M 976.5,117.5 C 978.167,117.5 979.833,117.5 981.5,117.5C 981.5,118.5 981.5,119.5 981.5,120.5C 983.167,120.5 984.833,120.5 986.5,120.5C 986.5,124.167 986.5,127.833 986.5,131.5C 984.833,131.5 983.167,131.5 981.5,131.5C 981.5,130.5 981.5,129.5 981.5,128.5C 979.833,128.5 978.167,128.5 976.5,128.5C 976.5,129.5 976.5,130.5 976.5,131.5C 973.5,131.5 970.5,131.5 967.5,131.5C 967.5,132.5 967.5,133.5 967.5,134.5C 966.167,134.5 964.833,134.5 963.5,134.5C 963.5,132.5 963.5,130.5 963.5,128.5C 964.833,128.5 966.167,128.5 967.5,128.5C 967.5,125.833 967.5,123.167 967.5,120.5C 970.5,120.5 973.5,120.5 976.5,120.5C 976.5,119.5 976.5,118.5 976.5,117.5 Z"/></g>
<g><path style="opacity:1" fill="#c9d589" d="M 1500.5,98.5 C 1502.17,98.5 1503.83,98.5 1505.5,98.5C 1505.5,110.5 1505.5,122.5 1505.5,134.5C 1499.5,134.5 1493.5,134.5 1487.5,134.5C 1487.5,133.5 1487.5,132.5 1487.5,131.5C 1490.17,131.5 1492.83,131.5 1495.5,131.5C 1495.5,130.5 1495.5,129.5 1495.5,128.5C 1497.17,128.5 1498.83,128.5 1500.5,128.5C 1500.5,124.833 1500.5,121.167 1500.5,117.5C 1498.83,117.5 1497.17,117.5 1495.5,117.5C 1495.5,114.833 1495.5,112.167 1495.5,109.5C 1497.17,109.5 1498.83,109.5 1500.5,109.5C 1500.5,108.5 1500.5,107.5 1500.5,106.5C 1500.5,103.833 1500.5,101.167 1500.5,98.5 Z"/></g>
<g><path style="opacity:1" fill="#cad68a" d="M 180.5,120.5 C 180.5,122.167 180.5,123.833 180.5,125.5C 180.5,126.5 180.5,127.5 180.5,128.5C 173.5,128.5 166.5,128.5 159.5,128.5C 159.5,129.5 159.5,130.5 159.5,131.5C 157.833,131.5 156.167,131.5 154.5,131.5C 154.5,133.167 154.5,134.833 154.5,136.5C 151.167,135.833 147.833,135.167 144.5,134.5C 144.5,133.5 144.5,132.5 144.5,131.5C 146.167,131.5 147.833,131.5 149.5,131.5C 149.5,130.5 149.5,129.5 149.5,128.5C 151.167,128.5 152.833,128.5 154.5,128.5C 154.5,127.5 154.5,126.5 154.5,125.5C 156.167,125.5 157.833,125.5 159.5,125.5C 159.5,123.833 159.5,122.167 159.5,120.5C 166.5,120.5 173.5,120.5 180.5,120.5 Z"/></g>
<g><path style="opacity:1" fill="#c7d487" d="M 180.5,120.5 C 182.167,120.5 183.833,120.5 185.5,120.5C 185.5,122.167 185.5,123.833 185.5,125.5C 183.833,125.5 182.167,125.5 180.5,125.5C 180.5,123.833 180.5,122.167 180.5,120.5 Z"/></g>
<g><path style="opacity:1" fill="#c9d689" d="M 199.5,120.5 C 200.833,120.5 202.167,120.5 203.5,120.5C 203.5,122.167 203.5,123.833 203.5,125.5C 202.167,125.5 200.833,125.5 199.5,125.5C 199.5,123.833 199.5,122.167 199.5,120.5 Z"/></g>
<g><path style="opacity:1" fill="#cad68a" d="M 1004.5,120.5 C 1004.5,122.167 1004.5,123.833 1004.5,125.5C 1007.17,125.5 1009.83,125.5 1012.5,125.5C 1014.17,125.5 1015.83,125.5 1017.5,125.5C 1017.5,127.5 1017.5,129.5 1017.5,131.5C 1014.17,131.5 1010.83,131.5 1007.5,131.5C 1007.5,132.5 1007.5,133.5 1007.5,134.5C 1001.54,135.426 995.535,136.092 989.5,136.5C 989.5,137.5 989.5,138.5 989.5,139.5C 986.833,139.5 984.167,139.5 981.5,139.5C 981.5,138.5 981.5,137.5 981.5,136.5C 983.167,136.5 984.833,136.5 986.5,136.5C 986.5,134.833 986.5,133.167 986.5,131.5C 987.5,131.5 988.5,131.5 989.5,131.5C 989.5,132.5 989.5,133.5 989.5,134.5C 991.167,134.5 992.833,134.5 994.5,134.5C 994.5,133.5 994.5,132.5 994.5,131.5C 997.833,131.5 1001.17,131.5 1004.5,131.5C 1004.5,130.5 1004.5,129.5 1004.5,128.5C 1001.17,128.5 997.833,128.5 994.5,128.5C 994.5,127.5 994.5,126.5 994.5,125.5C 996.167,125.5 997.833,125.5 999.5,125.5C 999.5,123.833 999.5,122.167 999.5,120.5C 1001.17,120.5 1002.83,120.5 1004.5,120.5 Z"/></g>
<g><path style="opacity:1" fill="#cad68a" d="M 185.5,125.5 C 188.833,125.5 192.167,125.5 195.5,125.5C 195.5,126.5 195.5,127.5 195.5,128.5C 192.167,128.5 188.833,128.5 185.5,128.5C 185.5,127.5 185.5,126.5 185.5,125.5 Z"/></g>
<g><path style="opacity:1" fill="#c9d588" d="M 913.5,125.5 C 915.167,125.5 916.833,125.5 918.5,125.5C 918.5,126.5 918.5,127.5 918.5,128.5C 921.167,128.5 923.833,128.5 926.5,128.5C 926.5,130.5 926.5,132.5 926.5,134.5C 923.833,134.5 921.167,134.5 918.5,134.5C 918.5,133.5 918.5,132.5 918.5,131.5C 916.833,131.5 915.167,131.5 913.5,131.5C 913.5,129.5 913.5,127.5 913.5,125.5 Z"/></g>
<g><path style="opacity:1" fill="#c9d48a" d="M 281.5,128.5 C 281.5,129.5 281.5,130.5 281.5,131.5C 279.833,131.5 278.167,131.5 276.5,131.5C 276.5,132.5 276.5,133.5 276.5,134.5C 274.833,134.5 273.167,134.5 271.5,134.5C 271.5,132.5 271.5,130.5 271.5,128.5C 274.833,128.5 278.167,128.5 281.5,128.5 Z"/></g>
<g><path style="opacity:1" fill="#c9d58a" d="M 281.5,128.5 C 284.167,128.5 286.833,128.5 289.5,128.5C 289.5,129.5 289.5,130.5 289.5,131.5C 288.167,131.5 286.833,131.5 285.5,131.5C 285.5,133.167 285.5,134.833 285.5,136.5C 284.167,136.5 282.833,136.5 281.5,136.5C 281.5,137.5 281.5,138.5 281.5,139.5C 278.167,139.5 274.833,139.5 271.5,139.5C 271.5,138.5 271.5,137.5 271.5,136.5C 269.833,136.5 268.167,136.5 266.5,136.5C 266.5,138.5 266.5,140.5 266.5,142.5C 265.5,142.5 264.5,142.5 263.5,142.5C 263.5,141.5 263.5,140.5 263.5,139.5C 260.167,139.5 256.833,139.5 253.5,139.5C 253.5,137.833 253.5,136.167 253.5,134.5C 259.5,134.5 265.5,134.5 271.5,134.5C 273.167,134.5 274.833,134.5 276.5,134.5C 276.5,133.5 276.5,132.5 276.5,131.5C 278.167,131.5 279.833,131.5 281.5,131.5C 281.5,130.5 281.5,129.5 281.5,128.5 Z"/></g>
<g><path style="opacity:1" fill="#c9d787" d="M 1469.5,128.5 C 1470.83,128.5 1472.17,128.5 1473.5,128.5C 1473.5,130.5 1473.5,132.5 1473.5,134.5C 1470.5,134.5 1467.5,134.5 1464.5,134.5C 1464.5,133.5 1464.5,132.5 1464.5,131.5C 1466.17,131.5 1467.83,131.5 1469.5,131.5C 1469.5,130.5 1469.5,129.5 1469.5,128.5 Z"/></g>
<g><path style="opacity:1" fill="#c9d48a" d="M 185.5,131.5 C 187.167,131.5 188.833,131.5 190.5,131.5C 190.5,132.5 190.5,133.5 190.5,134.5C 188.833,134.5 187.167,134.5 185.5,134.5C 185.5,133.5 185.5,132.5 185.5,131.5 Z"/></g>
<g><path style="opacity:1" fill="#cad689" d="M 203.5,134.5 C 202.167,134.5 200.833,134.5 199.5,134.5C 199.5,133.5 199.5,132.5 199.5,131.5C 200.833,131.5 202.167,131.5 203.5,131.5C 203.5,132.5 203.5,133.5 203.5,134.5 Z"/></g>
<g><path style="opacity:1" fill="#c9d689" d="M 289.5,131.5 C 291.167,131.5 292.833,131.5 294.5,131.5C 294.5,132.5 294.5,133.5 294.5,134.5C 292.833,134.5 291.167,134.5 289.5,134.5C 289.5,133.5 289.5,132.5 289.5,131.5 Z"/></g>
<g><path style="opacity:1" fill="#ccd489" d="M 159.5,134.5 C 166.532,134.17 173.532,134.503 180.5,135.5C 179.675,136.386 178.675,136.719 177.5,136.5C 177.5,137.5 177.5,138.5 177.5,139.5C 171.5,139.5 165.5,139.5 159.5,139.5C 159.5,137.833 159.5,136.167 159.5,134.5 Z"/></g>
<g><path style="opacity:1" fill="#c8d48a" d="M 199.5,134.5 C 200.833,134.5 202.167,134.5 203.5,134.5C 205.167,134.5 206.833,134.5 208.5,134.5C 208.5,136.167 208.5,137.833 208.5,139.5C 205.5,139.5 202.5,139.5 199.5,139.5C 199.5,137.833 199.5,136.167 199.5,134.5 Z"/></g>
<g><path style="opacity:1" fill="#c9d688" d="M 931.5,134.5 C 936.015,134.272 940.348,134.938 944.5,136.5C 944.5,137.5 944.5,138.5 944.5,139.5C 941.833,139.5 939.167,139.5 936.5,139.5C 936.5,140.5 936.5,141.5 936.5,142.5C 934.833,142.5 933.167,142.5 931.5,142.5C 931.5,139.833 931.5,137.167 931.5,134.5 Z"/></g>
<g><path style="opacity:1" fill="#c8d487" d="M 954.5,134.5 C 955.978,134.238 957.311,134.571 958.5,135.5C 957.833,135.833 957.167,136.167 956.5,136.5C 955.287,136.253 954.62,135.586 954.5,134.5 Z"/></g>
<g><path style="opacity:1" fill="#c8d487" d="M 967.5,139.5 C 966.167,139.5 964.833,139.5 963.5,139.5C 963.5,138.5 963.5,137.5 963.5,136.5C 964.833,136.5 966.167,136.5 967.5,136.5C 967.5,137.5 967.5,138.5 967.5,139.5 Z"/></g>
<g><path style="opacity:1" fill="#c8d58a" d="M 180.5,139.5 C 183.833,139.5 187.167,139.5 190.5,139.5C 190.5,141.5 190.5,143.5 190.5,145.5C 187.167,145.5 183.833,145.5 180.5,145.5C 180.5,143.5 180.5,141.5 180.5,139.5 Z"/></g>
<g><path style="opacity:1" fill="#c7d487" d="M 235.5,145.5 C 233.833,145.5 232.167,145.5 230.5,145.5C 230.5,144.5 230.5,143.5 230.5,142.5C 232.167,142.5 233.833,142.5 235.5,142.5C 235.5,143.5 235.5,144.5 235.5,145.5 Z"/></g>
<g><path style="opacity:1" fill="#c9d689" d="M 136.5,147.5 C 134.833,147.5 133.167,147.5 131.5,147.5C 131.791,146.351 132.624,145.684 134,145.5C 135.376,145.684 136.209,146.351 136.5,147.5 Z"/></g>
<g><path style="opacity:1" fill="#c8d58a" d="M 217.5,150.5 C 214.5,150.5 211.5,150.5 208.5,150.5C 208.5,148.833 208.5,147.167 208.5,145.5C 211.5,145.5 214.5,145.5 217.5,145.5C 217.5,147.167 217.5,148.833 217.5,150.5 Z"/></g>
<g><path style="opacity:1" fill="#c9d38a" d="M 230.5,145.5 C 232.167,145.5 233.833,145.5 235.5,145.5C 235.5,147.167 235.5,148.833 235.5,150.5C 233.833,150.5 232.167,150.5 230.5,150.5C 228.833,150.5 227.167,150.5 225.5,150.5C 225.5,149.5 225.5,148.5 225.5,147.5C 226.552,145.744 228.219,145.077 230.5,145.5 Z"/></g>
<g><path style="opacity:1" fill="#c9d689" d="M 131.5,147.5 C 131.5,148.5 131.5,149.5 131.5,150.5C 129.833,150.5 128.167,150.5 126.5,150.5C 126.5,149.5 126.5,148.5 126.5,147.5C 128.167,147.5 129.833,147.5 131.5,147.5 Z"/></g>
<g><path style="opacity:1" fill="#c8d487" d="M 136.5,147.5 C 139.167,147.5 141.833,147.5 144.5,147.5C 144.5,148.5 144.5,149.5 144.5,150.5C 141.833,150.5 139.167,150.5 136.5,150.5C 136.5,149.5 136.5,148.5 136.5,147.5 Z"/></g>
<g><path style="opacity:1" fill="#c9d58a" d="M 225.5,147.5 C 225.5,148.5 225.5,149.5 225.5,150.5C 227.167,150.5 228.833,150.5 230.5,150.5C 230.5,151.5 230.5,152.5 230.5,153.5C 228.833,153.5 227.167,153.5 225.5,153.5C 225.5,154.5 225.5,155.5 225.5,156.5C 222.833,156.5 220.167,156.5 217.5,156.5C 217.5,154.5 217.5,152.5 217.5,150.5C 219.167,150.5 220.833,150.5 222.5,150.5C 222.5,149.5 222.5,148.5 222.5,147.5C 223.5,147.5 224.5,147.5 225.5,147.5 Z"/></g>
<g><path style="opacity:1" fill="#cad68a" d="M 126.5,150.5 C 126.5,151.5 126.5,152.5 126.5,153.5C 125.167,153.5 123.833,153.5 122.5,153.5C 122.5,154.5 122.5,155.5 122.5,156.5C 118.167,156.5 113.833,156.5 109.5,156.5C 109.5,155.5 109.5,154.5 109.5,153.5C 112.167,153.5 114.833,153.5 117.5,153.5C 117.5,152.5 117.5,151.5 117.5,150.5C 120.5,150.5 123.5,150.5 126.5,150.5 Z"/></g>
<g><path style="opacity:1" fill="#c9d689" d="M 240.5,150.5 C 241.5,150.5 242.5,150.5 243.5,150.5C 243.5,151.5 243.5,152.5 243.5,153.5C 242.5,153.5 241.5,153.5 240.5,153.5C 240.5,152.5 240.5,151.5 240.5,150.5 Z"/></g>
<g><path style="opacity:1" fill="#cad689" d="M 136.5,153.5 C 137.5,153.5 138.5,153.5 139.5,153.5C 139.5,154.5 139.5,155.5 139.5,156.5C 138.5,156.5 137.5,156.5 136.5,156.5C 136.5,155.5 136.5,154.5 136.5,153.5 Z"/></g>
<g><path style="opacity:1" fill="#cad689" d="M 149.5,153.5 C 151.167,153.5 152.833,153.5 154.5,153.5C 154.5,154.5 154.5,155.5 154.5,156.5C 152.833,156.5 151.167,156.5 149.5,156.5C 149.5,155.5 149.5,154.5 149.5,153.5 Z"/></g>
<g><path style="opacity:1" fill="#c9d68a" d="M 32.5,159.5 C 23.5,159.5 14.5,159.5 5.5,159.5C 5.5,158.5 5.5,157.5 5.5,156.5C 9.16051,156.29 12.6605,156.956 16,158.5C 25.7396,156.298 35.573,155.965 45.5,157.5C 41.0178,158.167 36.6845,158.834 32.5,159.5 Z"/></g>
<g><path style="opacity:1" fill="#cad68b" d="M 547.5,158.5 C 547.5,158.833 547.5,159.167 547.5,159.5C 499.167,159.5 450.833,159.5 402.5,159.5C 402.5,158.5 402.5,157.5 402.5,156.5C 450.881,155.922 499.214,156.589 547.5,158.5 Z"/></g>
<g><path style="opacity:1" fill="#cad78a" d="M 547.5,158.5 C 547.62,157.414 548.287,156.747 549.5,156.5C 550.167,156.833 550.833,157.167 551.5,157.5C 550.311,158.429 548.978,158.762 547.5,158.5 Z"/></g>
<g><path style="opacity:1" fill="#cad58b" d="M 1062.5,159.5 C 1012.83,159.5 963.167,159.5 913.5,159.5C 921.758,156.053 930.258,155.72 939,158.5C 960.759,157.193 982.593,156.527 1004.5,156.5C 1025.5,156.833 1046.5,157.167 1067.5,157.5C 1065.71,158.17 1064.04,158.837 1062.5,159.5 Z"/></g>
<g><path style="opacity:1" fill="#cad68a" d="M 1492.5,159.5 C 1469.83,159.5 1447.17,159.5 1424.5,159.5C 1422.96,158.837 1421.29,158.17 1419.5,157.5C 1426.44,156.031 1433.27,156.364 1440,158.5C 1457.41,156.571 1474.91,155.904 1492.5,156.5C 1492.5,157.5 1492.5,158.5 1492.5,159.5 Z"/></g>
</svg>
