<?xml version="1.0" encoding="UTF-8"?>
<!DOCTYPE svg PUBLIC "-//W3C//DTD SVG 1.1//EN" "http://www.w3.org/Graphics/SVG/1.1/DTD/svg11.dtd">
<svg xmlns="http://www.w3.org/2000/svg" version="1.1" width="474px" height="180px" style="shape-rendering:geometricPrecision; text-rendering:geometricPrecision; image-rendering:optimizeQuality; fill-rule:evenodd; clip-rule:evenodd" xmlns:xlink="http://www.w3.org/1999/xlink">
<g><path style="opacity:1" fill="#fefefe" d="M -0.5,-0.5 C 157.5,-0.5 315.5,-0.5 473.5,-0.5C 473.5,59.5 473.5,119.5 473.5,179.5C 315.5,179.5 157.5,179.5 -0.5,179.5C -0.5,119.5 -0.5,59.5 -0.5,-0.5 Z"/></g>
<g><path style="opacity:1" fill="#c0e0cb" d="M 8.5,27.5 C 7.1688,34.1507 5.83547,40.8174 4.5,47.5C 3.89333,47.3764 3.55999,47.0431 3.5,46.5C 3.80363,39.8302 5.47029,33.4969 8.5,27.5 Z"/></g>
<g><path style="opacity:1" fill="#7bbd90" d="M 144.5,26.5 C 145.873,26.3433 147.207,26.51 148.5,27C 131.323,44.8538 118.323,65.3538 109.5,88.5C 101.012,91.6606 93.1782,95.994 86,101.5C 81.4,98.5713 77.9,94.738 75.5,90C 76.5109,82.0068 80.3442,75.8401 87,71.5C 89.5632,64.9171 93.7299,59.4171 99.5,55C 101.217,53.4412 103.217,52.6079 105.5,52.5C 105.238,53.9778 105.571,55.3112 106.5,56.5C 111.579,45.5866 119.579,37.4199 130.5,32C 135.453,30.6322 140.12,28.7988 144.5,26.5 Z"/></g>
<g><path style="opacity:1" fill="#85bd97" d="M 52.5,81.5 C 61.8889,92.0031 72.2222,101.336 83.5,109.5C 81.5588,109.131 79.7255,108.464 78,107.5C 77.2496,108.126 76.4162,108.626 75.5,109C 78.7564,110.459 81.4231,112.626 83.5,115.5C 85.0453,116.452 86.712,116.785 88.5,116.5C 87.7387,117.391 86.7387,118.058 85.5,118.5C 70.2648,109.303 59.2648,96.9696 52.5,81.5 Z"/></g>
<g><path style="opacity:1" fill="#7abd8f" d="M 47.5,80.5 C 55.497,96.6276 66.497,110.461 80.5,122C 91.0033,129.446 102.67,132.946 115.5,132.5C 115.663,134.857 115.497,137.19 115,139.5C 112.804,144.531 109.637,148.865 105.5,152.5C 89.5,152.5 73.5,152.5 57.5,152.5C 57.4187,148.327 58.752,144.661 61.5,141.5C 60.9984,140.479 60.3317,140.312 59.5,141C 57.6266,142.704 55.9599,144.537 54.5,146.5C 51.0233,148.258 47.3566,148.758 43.5,148C 23.5453,135.877 11.2119,118.377 6.5,95.5C 6.71631,93.6161 7.38298,91.9494 8.5,90.5C 1.54215,76.1573 -0.124516,61.4906 3.5,46.5C 3.55999,47.0431 3.89333,47.3764 4.5,47.5C 5.83547,40.8174 7.1688,34.1507 8.5,27.5C 10.5727,19.7792 14.0727,12.7792 19,6.5C 23.8234,24.0963 29.4901,41.4296 36,58.5C 39.5926,66.0208 43.426,73.3542 47.5,80.5 Z"/></g>
<g><path style="opacity:1" fill="#7fbe92" d="M 129.5,125.5 C 128.171,118.668 124.171,114.168 117.5,112C 107.308,110.486 97.6414,111.986 88.5,116.5C 86.712,116.785 85.0453,116.452 83.5,115.5C 81.4231,112.626 78.7564,110.459 75.5,109C 76.4162,108.626 77.2496,108.126 78,107.5C 79.7255,108.464 81.5588,109.131 83.5,109.5C 106.201,88.4733 125.534,91.3067 141.5,118C 152.167,126 162.833,134 173.5,142C 171.5,142.667 169.5,142.667 167.5,142C 154.668,136.613 142.001,131.113 129.5,125.5 Z"/></g>
<g><path style="opacity:1" fill="#a9a9a9" d="M 291.5,122.5 C 294.962,121.518 298.629,121.185 302.5,121.5C 302.715,123.179 302.048,124.179 300.5,124.5C 298.365,122.631 295.698,121.964 292.5,122.5C 292.167,122.5 291.833,122.5 291.5,122.5 Z"/></g>
<g><path style="opacity:1" fill="#979797" d="M 327.5,122.5 C 324.428,122.183 321.428,122.516 318.5,123.5C 319.602,124.176 320.602,124.842 321.5,125.5C 320.167,125.5 318.833,125.5 317.5,125.5C 317.5,124.167 317.5,122.833 317.5,121.5C 321.042,121.187 324.375,121.521 327.5,122.5 Z"/></g>
<g><path style="opacity:1" fill="#8e8e8e" d="M 450.5,122.5 C 449.5,122.5 448.5,122.5 447.5,122.5C 447.222,120.654 447.889,119.32 449.5,118.5C 450.429,119.689 450.762,121.022 450.5,122.5 Z"/></g>
<g><path style="opacity:1" fill="#80807f" d="M 243.5,122.5 C 241.167,122.5 238.833,122.5 236.5,122.5C 235.945,126.012 236.612,129.012 238.5,131.5C 237.791,132.404 236.791,132.737 235.5,132.5C 235.5,128.833 235.5,125.167 235.5,121.5C 238.385,121.194 241.052,121.527 243.5,122.5 Z"/></g>
<g><path style="opacity:1" fill="#161616" d="M 243.5,122.5 C 244.88,122.962 245.547,123.962 245.5,125.5C 244.452,127.41 244.452,129.244 245.5,131C 243.717,131.232 242.05,130.732 240.5,129.5C 239.287,129.747 238.62,130.414 238.5,131.5C 236.612,129.012 235.945,126.012 236.5,122.5C 238.833,122.5 241.167,122.5 243.5,122.5 Z"/></g>
<g><path style="opacity:1" fill="#101010" d="M 292.5,122.5 C 295.698,121.964 298.365,122.631 300.5,124.5C 298.473,124.338 296.473,124.505 294.5,125C 296.134,125.494 297.801,125.66 299.5,125.5C 299.5,126.5 299.5,127.5 299.5,128.5C 297.801,128.34 296.134,128.506 294.5,129C 296.473,129.495 298.473,129.662 300.5,129.5C 300.5,130.167 300.5,130.833 300.5,131.5C 297.833,131.5 295.167,131.5 292.5,131.5C 292.5,128.5 292.5,125.5 292.5,122.5 Z"/></g>
<g><path style="opacity:1" fill="#bbbbbb" d="M 304.5,122.5 C 304.183,125.572 304.516,128.572 305.5,131.5C 306.182,130.757 306.849,130.091 307.5,129.5C 307.5,130.5 307.5,131.5 307.5,132.5C 306.167,132.5 304.833,132.5 303.5,132.5C 303.187,128.958 303.521,125.625 304.5,122.5 Z"/></g>
<g><path style="opacity:1" fill="#1d1d1d" d="M 304.5,122.5 C 307.518,122.335 310.518,122.502 313.5,123C 314.38,124.356 314.714,125.856 314.5,127.5C 313.579,128.931 312.579,130.264 311.5,131.5C 310.713,129.896 309.38,129.229 307.5,129.5C 306.849,130.091 306.182,130.757 305.5,131.5C 304.516,128.572 304.183,125.572 304.5,122.5 Z"/></g>
<g><path style="opacity:1" fill="#121212" d="M 327.5,122.5 C 327.5,123.167 327.5,123.833 327.5,124.5C 326.167,124.5 324.833,124.5 323.5,124.5C 324.01,127.388 323.344,129.721 321.5,131.5C 321.5,129.5 321.5,127.5 321.5,125.5C 320.602,124.842 319.602,124.176 318.5,123.5C 321.428,122.516 324.428,122.183 327.5,122.5 Z"/></g>
<g><path style="opacity:1" fill="#0f0f0f" d="M 417.5,122.5 C 420.247,122.187 422.914,122.52 425.5,123.5C 423.577,124.308 421.577,124.808 419.5,125C 421.134,125.494 422.801,125.66 424.5,125.5C 424.5,126.5 424.5,127.5 424.5,128.5C 422.801,128.34 421.134,128.506 419.5,129C 421.473,129.495 423.473,129.662 425.5,129.5C 423.365,131.369 420.698,132.036 417.5,131.5C 417.5,128.5 417.5,125.5 417.5,122.5 Z"/></g>
<g><path style="opacity:1" fill="#8d8d8d" d="M 438.5,122.5 C 435.833,122.5 433.167,122.5 430.5,122.5C 430.183,125.572 430.516,128.572 431.5,131.5C 432.182,130.757 432.849,130.091 433.5,129.5C 433.5,130.5 433.5,131.5 433.5,132.5C 432.167,132.5 430.833,132.5 429.5,132.5C 429.5,128.833 429.5,125.167 429.5,121.5C 432.713,121.19 435.713,121.523 438.5,122.5 Z"/></g>
<g><path style="opacity:1" fill="#282828" d="M 332.5,122.5 C 335.881,122.46 339.214,122.793 342.5,123.5C 342.345,132.818 338.512,134.818 331,129.5C 330.167,126.829 330.667,124.496 332.5,122.5 Z"/></g>
<g><path style="opacity:1" fill="#4d4d4d" d="M 396.5,121.5 C 397.5,121.5 398.5,121.5 399.5,121.5C 399.5,124.833 399.5,128.167 399.5,131.5C 398.5,131.5 397.5,131.5 396.5,131.5C 396.5,128.167 396.5,124.833 396.5,121.5 Z"/></g>
<g><path style="opacity:1" fill="#a0a0a0" d="M 223.5,122.5 C 226.287,121.523 229.287,121.19 232.5,121.5C 232.167,124.167 231.833,126.833 231.5,129.5C 229.473,129.662 227.473,129.495 225.5,129C 227.134,128.506 228.801,128.34 230.5,128.5C 230.5,127.5 230.5,126.5 230.5,125.5C 228.801,125.66 227.134,125.494 225.5,125C 227.577,124.808 229.577,124.308 231.5,123.5C 228.914,122.52 226.247,122.187 223.5,122.5 Z"/></g>
<g><path style="opacity:1" fill="#aeaeae" d="M 238.5,124.5 C 240.288,124.215 241.955,124.548 243.5,125.5C 242.667,125.833 241.833,126.167 241,126.5C 239.624,126.316 238.791,125.649 238.5,124.5 Z"/></g>
<g><path style="opacity:1" fill="#c2c2c2" d="M 365.5,122.5 C 368.962,121.518 372.629,121.185 376.5,121.5C 376.34,123.199 376.506,124.866 377,126.5C 377.21,124.942 377.71,123.609 378.5,122.5C 378.5,125.5 378.5,128.5 378.5,131.5C 381.5,131.5 384.5,131.5 387.5,131.5C 384.375,132.479 381.042,132.813 377.5,132.5C 377.66,130.801 377.494,129.134 377,127.5C 376.95,129.744 376.117,131.411 374.5,132.5C 374.5,132.167 374.5,131.833 374.5,131.5C 373.051,129.836 371.051,129.002 368.5,129C 370.134,128.506 371.801,128.34 373.5,128.5C 373.5,127.5 373.5,126.5 373.5,125.5C 371.801,125.66 370.134,125.494 368.5,125C 370.577,124.808 372.577,124.308 374.5,123.5C 371.914,122.52 369.247,122.187 366.5,122.5C 366.167,122.5 365.833,122.5 365.5,122.5 Z"/></g>
<g><path style="opacity:1" fill="#e7f8ee" d="M 47.5,80.5 C 49.2739,81.0169 50.9405,81.3502 52.5,81.5C 59.2648,96.9696 70.2648,109.303 85.5,118.5C 86.7387,118.058 87.7387,117.391 88.5,116.5C 97.6414,111.986 107.308,110.486 117.5,112C 124.171,114.168 128.171,118.668 129.5,125.5C 127.833,126.167 126.167,126.833 124.5,127.5C 124.804,126.85 125.137,126.183 125.5,125.5C 113.819,124.555 102.152,124.055 90.5,124C 98.3447,129.295 107.011,131.461 116.5,130.5C 116.167,131.167 115.833,131.833 115.5,132.5C 102.67,132.946 91.0033,129.446 80.5,122C 66.497,110.461 55.497,96.6276 47.5,80.5 Z"/></g>
<g><path style="opacity:1" fill="#89b999" d="M 116.5,116.5 C 119.665,114.909 121.998,115.909 123.5,119.5C 120.731,119.96 118.398,118.96 116.5,116.5 Z"/></g>
<g><path style="opacity:1" fill="#84be97" d="M 100.5,114.5 C 105.5,114.5 110.5,114.5 115.5,114.5C 115.269,117.785 116.603,120.285 119.5,122C 109.797,122.744 100.13,122.411 90.5,121C 89.1667,120.333 89.1667,119.667 90.5,119C 94.0251,117.562 97.3585,116.062 100.5,114.5 Z"/></g>
<g><path style="opacity:1" fill="#88c099" d="M 124.5,127.5 C 121.828,128.501 119.162,129.501 116.5,130.5C 107.011,131.461 98.3447,129.295 90.5,124C 102.152,124.055 113.819,124.555 125.5,125.5C 125.137,126.183 124.804,126.85 124.5,127.5 Z"/></g>
<g><path style="opacity:1" fill="#111111" d="M 223.5,122.5 C 226.247,122.187 228.914,122.52 231.5,123.5C 229.577,124.308 227.577,124.808 225.5,125C 227.134,125.494 228.801,125.66 230.5,125.5C 230.5,126.5 230.5,127.5 230.5,128.5C 228.801,128.34 227.134,128.506 225.5,129C 227.473,129.495 229.473,129.662 231.5,129.5C 229.365,131.369 226.698,132.036 223.5,131.5C 223.5,128.5 223.5,125.5 223.5,122.5 Z"/></g>
<g><path style="opacity:1" fill="#c3c3c3" d="M 306.5,124.5 C 308.288,124.215 309.955,124.548 311.5,125.5C 310.667,125.833 309.833,126.167 309,126.5C 307.624,126.316 306.791,125.649 306.5,124.5 Z"/></g>
<g><path style="opacity:1" fill="#828282" d="M 327.5,124.5 C 326.791,125.404 325.791,125.737 324.5,125.5C 324.5,127.833 324.5,130.167 324.5,132.5C 323.209,132.737 322.209,132.404 321.5,131.5C 323.344,129.721 324.01,127.388 323.5,124.5C 324.833,124.5 326.167,124.5 327.5,124.5 Z"/></g>
<g><path style="opacity:1" fill="#252525" d="M 403.5,122.5 C 406.187,122.336 408.854,122.503 411.5,123C 412.833,124.333 412.833,125.667 411.5,127C 414.003,128.549 414.003,130.216 411.5,132C 408.854,132.497 406.187,132.664 403.5,132.5C 403.5,129.167 403.5,125.833 403.5,122.5 Z"/></g>
<g><path style="opacity:1" fill="#555555" d="M 405.5,125.5 C 407.035,124.212 408.701,124.212 410.5,125.5C 408.833,126.666 407.166,126.666 405.5,125.5 Z"/></g>
<g><path style="opacity:1" fill="#bababa" d="M 264.5,122.5 C 264.183,125.572 264.516,128.572 265.5,131.5C 266.265,130.388 267.265,129.721 268.5,129.5C 268.5,130.5 268.5,131.5 268.5,132.5C 266.833,132.5 265.167,132.5 263.5,132.5C 263.187,128.958 263.521,125.625 264.5,122.5 Z"/></g>
<g><path style="opacity:1" fill="#1b1b1b" d="M 264.5,122.5 C 267.5,122.5 270.5,122.5 273.5,122.5C 273.662,124.527 273.495,126.527 273,128.5C 271.644,129.38 270.144,129.714 268.5,129.5C 267.265,129.721 266.265,130.388 265.5,131.5C 264.516,128.572 264.183,125.572 264.5,122.5 Z"/></g>
<g><path style="opacity:1" fill="#ababac" d="M 266.5,124.5 C 268.288,124.215 269.955,124.548 271.5,125.5C 270.667,125.833 269.833,126.167 269,126.5C 267.624,126.316 266.791,125.649 266.5,124.5 Z"/></g>
<g><path style="opacity:1" fill="#141414" d="M 438.5,122.5 C 439.065,125.348 439.398,128.181 439.5,131C 437.481,130.848 435.481,130.348 433.5,129.5C 432.849,130.091 432.182,130.757 431.5,131.5C 430.516,128.572 430.183,125.572 430.5,122.5C 433.167,122.5 435.833,122.5 438.5,122.5 Z"/></g>
<g><path style="opacity:1" fill="#aeaeae" d="M 432.5,124.5 C 434.288,124.215 435.955,124.548 437.5,125.5C 436.667,125.833 435.833,126.167 435,126.5C 433.624,126.316 432.791,125.649 432.5,124.5 Z"/></g>
<g><path style="opacity:1" fill="#252525" d="M 212.5,122.5 C 213.978,122.238 215.311,122.571 216.5,123.5C 218.279,126.115 218.945,128.782 218.5,131.5C 215.833,130.167 213.167,130.167 210.5,131.5C 210.167,130.833 209.833,130.167 209.5,129.5C 210.251,127.004 211.251,124.67 212.5,122.5 Z"/></g>
<g><path style="opacity:1" fill="#a2a2a2" d="M 417.5,122.5 C 420.287,121.523 423.287,121.19 426.5,121.5C 426.167,124.167 425.833,126.833 425.5,129.5C 423.473,129.662 421.473,129.495 419.5,129C 421.134,128.506 422.801,128.34 424.5,128.5C 424.5,127.5 424.5,126.5 424.5,125.5C 422.801,125.66 421.134,125.494 419.5,125C 421.577,124.808 423.577,124.308 425.5,123.5C 422.914,122.52 420.247,122.187 417.5,122.5 Z"/></g>
<g><path style="opacity:1" fill="#222222" d="M 447.5,122.5 C 448.5,122.5 449.5,122.5 450.5,122.5C 451.233,124.963 452.233,127.297 453.5,129.5C 453.167,130.167 452.833,130.833 452.5,131.5C 450.591,130.652 448.591,130.318 446.5,130.5C 443.543,132.025 442.876,131.358 444.5,128.5C 444.992,126.181 445.992,124.181 447.5,122.5 Z"/></g>
<g><path style="opacity:1" fill="#c2c2c2" d="M 447.5,126.5 C 449.337,126.639 449.67,127.306 448.5,128.5C 447.702,128.043 447.369,127.376 447.5,126.5 Z"/></g>
<g><path style="opacity:1" fill="#bbbbbb" d="M 300.5,124.5 C 300.5,126.167 300.5,127.833 300.5,129.5C 298.473,129.662 296.473,129.495 294.5,129C 296.134,128.506 297.801,128.34 299.5,128.5C 299.5,127.5 299.5,126.5 299.5,125.5C 297.801,125.66 296.134,125.494 294.5,125C 296.473,124.505 298.473,124.338 300.5,124.5 Z"/></g>
<g><path style="opacity:1" fill="#cacaca" d="M 333.5,124.5 C 335.5,124.5 337.5,124.5 339.5,124.5C 339.5,126.167 339.5,127.833 339.5,129.5C 337.5,129.5 335.5,129.5 333.5,129.5C 333.5,127.833 333.5,126.167 333.5,124.5 Z"/></g>
<g><path style="opacity:1" fill="#1e1e1e" d="M 250.5,122.5 C 253.579,122.26 256.579,122.593 259.5,123.5C 261.171,130.98 258.171,133.48 250.5,131C 249.214,128.168 249.214,125.335 250.5,122.5 Z"/></g>
<g><path style="opacity:1" fill="#c4c4c4" d="M 252.5,124.5 C 254.199,124.34 255.866,124.506 257.5,125C 258.517,126.049 258.684,127.216 258,128.5C 253.085,130.679 251.251,129.346 252.5,124.5 Z"/></g>
<g><path style="opacity:1" fill="#252525" d="M 351.5,122.5 C 354.187,122.336 356.854,122.503 359.5,123C 363.178,130.849 360.511,134.016 351.5,132.5C 351.5,129.167 351.5,125.833 351.5,122.5 Z"/></g>
<g><path style="opacity:1" fill="#a5a5a5" d="M 358.5,125.5 C 359.434,126.568 359.768,127.901 359.5,129.5C 357.5,129.5 355.5,129.5 353.5,129.5C 353.5,127.833 353.5,126.167 353.5,124.5C 355.415,124.216 357.081,124.549 358.5,125.5 Z"/></g>
<g><path style="opacity:1" fill="#f7f7f7" d="M 358.5,125.5 C 358.5,126.5 358.5,127.5 358.5,128.5C 357.167,128.5 355.833,128.5 354.5,128.5C 354.5,127.5 354.5,126.5 354.5,125.5C 355.833,125.5 357.167,125.5 358.5,125.5 Z"/></g>
<g><path style="opacity:1" fill="#1f1f1f" d="M 280.5,122.5 C 280.5,124.833 280.5,127.167 280.5,129.5C 282.167,129.5 283.833,129.5 285.5,129.5C 285.5,127.167 285.5,124.833 285.5,122.5C 286.748,123.334 287.415,124.667 287.5,126.5C 287.333,127.833 287.167,129.167 287,130.5C 284.959,131.423 282.792,131.756 280.5,131.5C 279.85,131.196 279.183,130.863 278.5,130.5C 277.52,127.914 277.187,125.247 277.5,122.5C 278.5,122.5 279.5,122.5 280.5,122.5 Z"/></g>
<g><path style="opacity:1" fill="#c4c4c4" d="M 280.5,122.5 C 281.461,124.265 281.795,126.265 281.5,128.5C 282.5,128.5 283.5,128.5 284.5,128.5C 284.205,126.265 284.539,124.265 285.5,122.5C 285.5,124.833 285.5,127.167 285.5,129.5C 283.833,129.5 282.167,129.5 280.5,129.5C 280.5,127.167 280.5,124.833 280.5,122.5 Z"/></g>
<g><path style="opacity:1" fill="#121212" d="M 366.5,122.5 C 369.247,122.187 371.914,122.52 374.5,123.5C 372.577,124.308 370.577,124.808 368.5,125C 370.134,125.494 371.801,125.66 373.5,125.5C 373.5,126.5 373.5,127.5 373.5,128.5C 371.801,128.34 370.134,128.506 368.5,129C 371.051,129.002 373.051,129.836 374.5,131.5C 371.833,131.5 369.167,131.5 366.5,131.5C 366.5,128.5 366.5,125.5 366.5,122.5 Z"/></g>
<g><path style="opacity:1" fill="#171717" d="M 378.5,122.5 C 380.344,124.279 381.01,126.612 380.5,129.5C 383.388,128.99 385.721,129.656 387.5,131.5C 384.5,131.5 381.5,131.5 378.5,131.5C 378.5,128.5 378.5,125.5 378.5,122.5 Z"/></g>
<g><path style="opacity:1" fill="#a6a6a6" d="M 444.5,128.5 C 442.876,131.358 443.543,132.025 446.5,130.5C 445.817,132.176 444.483,132.843 442.5,132.5C 442.229,130.62 442.896,129.287 444.5,128.5 Z"/></g>
<g><path style="opacity:1" fill="#828282" d="M 223.5,122.5 C 223.5,125.5 223.5,128.5 223.5,131.5C 226.698,132.036 229.365,131.369 231.5,129.5C 232.404,130.209 232.737,131.209 232.5,132.5C 229.167,132.5 225.833,132.5 222.5,132.5C 222.187,128.958 222.521,125.625 223.5,122.5 Z"/></g>
<g><path style="opacity:1" fill="#a9a9a9" d="M 285.5,122.5 C 286.209,121.596 287.209,121.263 288.5,121.5C 288.665,124.85 288.498,128.183 288,131.5C 285.395,132.814 282.895,132.814 280.5,131.5C 282.792,131.756 284.959,131.423 287,130.5C 287.167,129.167 287.333,127.833 287.5,126.5C 287.415,124.667 286.748,123.334 285.5,122.5 Z"/></g>
<g><path style="opacity:1" fill="#747474" d="M 291.5,122.5 C 291.833,122.5 292.167,122.5 292.5,122.5C 292.5,125.5 292.5,128.5 292.5,131.5C 295.167,131.5 297.833,131.5 300.5,131.5C 297.713,132.477 294.713,132.81 291.5,132.5C 291.5,129.167 291.5,125.833 291.5,122.5 Z"/></g>
<g><path style="opacity:1" fill="#999999" d="M 314.5,127.5 C 314.5,129.167 314.5,130.833 314.5,132.5C 313.209,132.737 312.209,132.404 311.5,131.5C 312.579,130.264 313.579,128.931 314.5,127.5 Z"/></g>
<g><path style="opacity:1" fill="#6b6c6c" d="M 365.5,122.5 C 365.833,122.5 366.167,122.5 366.5,122.5C 366.5,125.5 366.5,128.5 366.5,131.5C 369.167,131.5 371.833,131.5 374.5,131.5C 374.5,131.833 374.5,132.167 374.5,132.5C 371.5,132.5 368.5,132.5 365.5,132.5C 365.5,129.167 365.5,125.833 365.5,122.5 Z"/></g>
<g><path style="opacity:1" fill="#7f7f7f" d="M 417.5,122.5 C 417.5,125.5 417.5,128.5 417.5,131.5C 420.698,132.036 423.365,131.369 425.5,129.5C 426.404,130.209 426.737,131.209 426.5,132.5C 423.167,132.5 419.833,132.5 416.5,132.5C 416.187,128.958 416.521,125.625 417.5,122.5 Z"/></g>
<g><path style="opacity:1" fill="#90c19e" d="M 366.5,150.5 C 366.5,151.167 366.5,151.833 366.5,152.5C 273.167,151.833 273.167,151.167 366.5,150.5 Z"/></g>
<g><path style="opacity:1" fill="#cfe9d8" d="M 105.5,152.5 C 89.3419,153.496 73.0085,153.83 56.5,153.5C 57.0102,150.612 56.3435,148.279 54.5,146.5C 55.9599,144.537 57.6266,142.704 59.5,141C 60.3317,140.312 60.9984,140.479 61.5,141.5C 58.752,144.661 57.4187,148.327 57.5,152.5C 73.5,152.5 89.5,152.5 105.5,152.5 Z"/></g>
<g><path style="opacity:1" fill="#d6eddd" d="M 366.5,150.5 C 273.167,151.167 273.167,151.833 366.5,152.5C 343.006,153.498 319.339,153.831 295.5,153.5C 295.5,152.167 295.5,150.833 295.5,149.5C 319.339,149.169 343.006,149.502 366.5,150.5 Z"/></g>
</svg>
